<?xml version="1.0" encoding="UTF-8" standalone="no"?>
<svg xmlns:xlink="http://www.w3.org/1999/xlink" height="88.1px" width="170.95px" xmlns="http://www.w3.org/2000/svg">
  <g transform="matrix(1.0, 0.0, 0.0, 1.0, -153.9, -108.4)">
    <path d="M220.15 135.8 L220.15 135.8 Q232.65 134.15 245.15 132.55 257.6 130.95 270.05 129.35 269.85 126.2 269.7 123.05 L269.5 120.6 Q269.0 116.25 268.55 111.9 L268.2 108.4 263.7 108.8 Q250.4 110.05 237.15 111.25 229.7 111.95 222.25 112.65 221.75 118.1 221.25 123.55 L220.15 135.8" fill="#010101" fill-opacity="0.0" fill-rule="evenodd" stroke="none">
      <animate attributeName="fill" dur="2s" repeatCount="indefinite" values="#010101;#000001"/>
      <animate attributeName="fill-opacity" dur="2s" repeatCount="indefinite" values="0.0;0.2"/>
      <animate attributeName="d" dur="2s" repeatCount="indefinite" values="M220.15 135.8 L220.15 135.8 Q232.65 134.15 245.15 132.55 257.6 130.95 270.05 129.35 269.85 126.2 269.7 123.05 L269.5 120.6 Q269.0 116.25 268.55 111.9 L268.2 108.4 263.7 108.8 Q250.4 110.05 237.15 111.25 229.7 111.95 222.25 112.65 221.75 118.1 221.25 123.55 L220.15 135.8;M153.9 181.45 L154.1 181.55 Q183.55 202.2 226.75 185.1 263.3 176.2 301.55 189.2 310.55 192.25 319.6 196.5 L319.95 189.55 Q320.55 180.2 322.3 162.65 L323.4 152.05 324.85 138.45 Q302.65 133.4 246.05 141.4 220.4 149.7 200.85 151.0 181.1 152.35 167.55 146.6 L153.9 181.45"/>
    </path>
    <path d="M220.15 135.8 L221.25 123.55 Q221.75 118.1 222.25 112.65 229.7 111.95 237.15 111.25 250.4 110.05 263.7 108.8 L268.2 108.4 268.55 111.9 Q269.0 116.25 269.5 120.6 L269.7 123.05 Q269.85 126.2 270.05 129.35 257.6 130.95 245.15 132.55 232.65 134.15 220.15 135.8 L220.15 135.8" fill="none" stroke="#000000" stroke-linecap="round" stroke-linejoin="round" stroke-opacity="0.0" stroke-width="1.0">
      <animate attributeName="stroke" dur="2s" repeatCount="indefinite" values="#000000;#000001"/>
      <animate attributeName="stroke-width" dur="2s" repeatCount="indefinite" values="0.0;0.0"/>
      <animate attributeName="fill-opacity" dur="2s" repeatCount="indefinite" values="0.0;0.0"/>
      <animate attributeName="d" dur="2s" repeatCount="indefinite" values="M220.15 135.8 L221.25 123.55 Q221.75 118.1 222.25 112.65 229.7 111.95 237.15 111.25 250.4 110.05 263.7 108.8 L268.2 108.4 268.55 111.9 Q269.0 116.25 269.5 120.6 L269.7 123.05 Q269.85 126.2 270.05 129.35 257.6 130.95 245.15 132.55 232.65 134.15 220.15 135.8 L220.15 135.8;M153.9 181.45 L167.55 146.6 Q181.1 152.35 200.85 151.0 220.4 149.7 246.05 141.4 302.65 133.4 324.85 138.45 L323.4 152.05 322.3 162.65 Q320.55 180.2 319.95 189.55 L319.6 196.5 Q310.55 192.25 301.55 189.2 263.3 176.2 226.75 185.1 183.55 202.2 154.1 181.55 L153.9 181.45"/>
    </path>
  </g>
</svg>
