<?xml version="1.0" encoding="UTF-8" standalone="no"?>
<svg xmlns:xlink="http://www.w3.org/1999/xlink" height="114.8px" width="306.85px" xmlns="http://www.w3.org/2000/svg">
  <g transform="matrix(1.0, 0.0, 0.0, 1.0, -80.0, -100.55)">
    <path d="M153.9 181.45 Q183.45 202.25 226.75 185.1 271.9 174.1 319.6 196.5 319.7 188.45 322.3 162.65 323.6 150.55 324.85 138.45 302.65 133.4 246.05 141.4 194.5 158.05 167.55 146.6 L153.9 181.45" fill="#000000" fill-opacity="0.2" fill-rule="evenodd" stroke="none">
      <animate attributeName="fill" dur="2s" repeatCount="indefinite" values="#000000;#000001"/>
      <animate attributeName="fill-opacity" dur="2s" repeatCount="indefinite" values="0.2;0.2"/>
      <animate attributeName="d" dur="2s" repeatCount="indefinite" values="M153.9 181.45 Q183.45 202.25 226.75 185.1 271.9 174.1 319.6 196.5 319.7 188.45 322.3 162.65 323.6 150.55 324.85 138.45 302.65 133.4 246.05 141.4 194.5 158.05 167.55 146.6 L153.9 181.45;M80.0 215.35 Q215.7 207.5 291.45 211.0 367.15 214.45 386.85 204.75 385.15 199.05 383.8 162.6 382.55 128.9 382.75 105.5 305.9 103.0 229.1 100.55 155.3 102.35 81.5 104.1 L80.0 215.35"/>
    </path>
    <path d="M153.9 181.45 L167.55 146.6 Q194.5 158.05 246.05 141.4 302.65 133.4 324.85 138.45 323.6 150.55 322.3 162.65 319.7 188.45 319.6 196.5 271.9 174.1 226.75 185.1 183.45 202.25 153.9 181.45" fill="none" stroke="#000000" stroke-linecap="round" stroke-linejoin="round" stroke-opacity="0.0" stroke-width="1.0">
      <animate attributeName="stroke" dur="2s" repeatCount="indefinite" values="#000000;#000001"/>
      <animate attributeName="stroke-width" dur="2s" repeatCount="indefinite" values="0.0;0.0"/>
      <animate attributeName="fill-opacity" dur="2s" repeatCount="indefinite" values="0.0;0.0"/>
      <animate attributeName="d" dur="2s" repeatCount="indefinite" values="M153.9 181.45 L167.55 146.6 Q194.5 158.05 246.05 141.4 302.65 133.4 324.85 138.45 323.6 150.55 322.3 162.65 319.7 188.45 319.6 196.5 271.9 174.1 226.75 185.1 183.45 202.25 153.9 181.45;M80.0 215.35 L81.5 104.1 Q155.3 102.35 229.1 100.55 305.9 103.0 382.75 105.5 382.55 128.9 383.8 162.6 385.15 199.05 386.85 204.75 367.15 214.45 291.45 211.0 215.7 207.5 80.0 215.35"/>
    </path>
  </g>
</svg>
