<?xml version="1.0" encoding="UTF-8" standalone="no"?>
<svg xmlns:xlink="http://www.w3.org/1999/xlink" height="139.8px" width="382.2px" xmlns="http://www.w3.org/2000/svg">
  <g transform="matrix(1.0, 0.0, 0.0, 1.0, -41.35, -85.45)">
    <path d="M80.0 215.35 L80.0 215.35 Q215.7 207.5 291.45 211.0 324.05 212.5 346.25 211.55 373.85 210.35 385.45 205.4 L386.85 204.75 Q385.3 199.45 384.0 167.85 L383.8 162.6 Q382.55 128.9 382.75 105.5 L378.45 105.4 229.1 100.55 81.5 104.1 81.5 105.95 80.0 215.35" fill="#000000" fill-opacity="0.2" fill-rule="evenodd" stroke="none">
      <animate attributeName="fill" dur="2s" repeatCount="indefinite" values="#000000;#000001"/>
      <animate attributeName="fill-opacity" dur="2s" repeatCount="indefinite" values="0.2;0.2"/>
      <animate attributeName="d" dur="2s" repeatCount="indefinite" values="M80.0 215.35 L80.0 215.35 Q215.7 207.5 291.45 211.0 324.05 212.5 346.25 211.55 373.85 210.35 385.45 205.4 L386.85 204.75 Q385.3 199.45 384.0 167.85 L383.8 162.6 Q382.55 128.9 382.75 105.5 L378.45 105.4 229.1 100.55 81.5 104.1 81.5 105.95 80.0 215.35;M41.35 225.25 L41.55 225.25 Q178.6 217.5 306.3 220.65 340.2 221.9 374.05 223.15 410.7 224.65 423.55 219.05 L423.45 217.15 Q422.15 192.55 420.85 168.0 L420.6 161.45 Q419.85 135.85 422.75 90.95 L423.1 85.45 233.2 85.85 45.55 86.2 43.25 86.2 41.35 225.25"/>
    </path>
    <path d="M80.0 215.35 L81.5 105.95 81.5 104.1 229.1 100.55 378.45 105.4 382.75 105.5 Q382.55 128.9 383.8 162.6 L384.0 167.85 Q385.3 199.45 386.85 204.75 L385.45 205.4 Q373.85 210.35 346.25 211.55 324.05 212.5 291.45 211.0 215.7 207.5 80.0 215.35 L80.0 215.35" fill="none" stroke="#000000" stroke-linecap="round" stroke-linejoin="round" stroke-opacity="0.0" stroke-width="1.0">
      <animate attributeName="stroke" dur="2s" repeatCount="indefinite" values="#000000;#000001"/>
      <animate attributeName="stroke-width" dur="2s" repeatCount="indefinite" values="0.0;0.0"/>
      <animate attributeName="fill-opacity" dur="2s" repeatCount="indefinite" values="0.0;0.0"/>
      <animate attributeName="d" dur="2s" repeatCount="indefinite" values="M80.0 215.35 L81.5 105.95 81.5 104.1 229.1 100.55 378.45 105.4 382.75 105.5 Q382.55 128.9 383.8 162.6 L384.0 167.85 Q385.3 199.45 386.85 204.75 L385.45 205.4 Q373.85 210.35 346.25 211.55 324.05 212.5 291.45 211.0 215.7 207.5 80.0 215.35 L80.0 215.35;M41.35 225.25 L43.25 86.2 45.55 86.2 233.2 85.85 423.1 85.45 422.75 90.95 Q419.85 135.85 420.6 161.45 L420.85 168.0 Q422.15 192.55 423.45 217.15 L423.55 219.05 Q410.7 224.65 374.05 223.15 340.2 221.9 306.3 220.65 178.6 217.5 41.55 225.25 L41.35 225.25"/>
    </path>
  </g>
</svg>
