<?xml version="1.0" encoding="UTF-8" standalone="no"?>
<svg xmlns:xlink="http://www.w3.org/1999/xlink" height="140.9px" width="382.2px" xmlns="http://www.w3.org/2000/svg">
  <g transform="matrix(1.0, 0.0, 0.0, 1.0, -41.35, -85.45)">
    <path d="M41.35 225.25 L41.35 225.25 Q195.4 216.5 337.65 221.6 L374.05 223.15 386.85 223.5 Q410.2 223.6 421.05 220.0 L423.55 219.05 Q422.4 197.4 421.25 175.8 L420.85 168.0 Q419.55 143.55 422.35 97.3 L423.1 85.45 46.45 86.2 43.25 86.2 41.35 225.25" fill="#000000" fill-opacity="0.2" fill-rule="evenodd" stroke="none">
      <animate attributeName="fill" dur="2s" repeatCount="indefinite" values="#000000;#010102"/>
      <animate attributeName="fill-opacity" dur="2s" repeatCount="indefinite" values="0.2;0.3019608"/>
      <animate attributeName="d" dur="2s" repeatCount="indefinite" values="M41.35 225.25 L41.35 225.25 Q195.4 216.5 337.65 221.6 L374.05 223.15 386.85 223.5 Q410.2 223.6 421.05 220.0 L423.55 219.05 Q422.4 197.4 421.25 175.8 L420.85 168.0 Q419.55 143.55 422.35 97.3 L423.1 85.45 46.45 86.2 43.25 86.2 41.35 225.25;M41.35 225.25 L41.45 225.25 Q210.5 215.65 332.85 223.8 L369.7 225.4 382.4 226.3 Q391.5 227.25 401.1 203.0 L402.3 200.75 Q412.2 182.0 418.05 161.45 L418.5 154.25 Q420.8 119.85 423.1 85.45 L411.4 85.45 43.25 86.2 43.25 89.35 41.35 225.25"/>
    </path>
    <path d="M41.35 225.25 L43.25 86.2 46.45 86.2 423.1 85.45 422.35 97.3 Q419.55 143.55 420.85 168.0 L421.25 175.8 Q422.4 197.4 423.55 219.05 L421.05 220.0 Q410.2 223.6 386.85 223.5 L374.05 223.15 337.65 221.6 Q195.4 216.5 41.35 225.25 L41.35 225.25" fill="none" stroke="#000000" stroke-linecap="round" stroke-linejoin="round" stroke-opacity="0.0" stroke-width="1.0">
      <animate attributeName="stroke" dur="2s" repeatCount="indefinite" values="#000000;#000001"/>
      <animate attributeName="stroke-width" dur="2s" repeatCount="indefinite" values="0.0;0.0"/>
      <animate attributeName="fill-opacity" dur="2s" repeatCount="indefinite" values="0.0;0.0"/>
      <animate attributeName="d" dur="2s" repeatCount="indefinite" values="M41.35 225.25 L43.25 86.2 46.45 86.2 423.1 85.45 422.35 97.3 Q419.55 143.55 420.85 168.0 L421.25 175.8 Q422.4 197.4 423.55 219.05 L421.05 220.0 Q410.2 223.6 386.85 223.5 L374.05 223.15 337.65 221.6 Q195.4 216.5 41.35 225.25 L41.35 225.25;M41.35 225.25 L43.25 89.35 43.25 86.2 411.4 85.45 423.1 85.45 Q420.8 119.85 418.5 154.25 L418.05 161.45 Q412.2 182.0 402.3 200.75 L401.1 203.0 Q391.5 227.25 382.4 226.3 L369.7 225.4 332.85 223.8 Q210.5 215.65 41.45 225.25 L41.35 225.25"/>
    </path>
  </g>
</svg>
