<?xml version="1.0" encoding="UTF-8" standalone="no"?>
<svg xmlns:xlink="http://www.w3.org/1999/xlink" height="88.35px" width="248.15px" xmlns="http://www.w3.org/2000/svg">
  <g transform="matrix(1.0, 0.0, 0.0, 1.0, 113.4, -0.9)">
    <g transform="matrix(1.0, 0.0, 0.0, 1.0, -114.4, 0.0)">
      <use fill="#2d1804" height="88.35" transform="matrix(0.2734, 0.0, 0.0, 0.2734, 0.35, 12.0)" width="248.15" xlink:href="#font_HY_________0"/>
      <use fill="#2d1804" height="88.35" transform="matrix(0.2734, 0.0, 0.0, 0.2734, 13.15, 12.0)" width="248.15" xlink:href="#font_HY_________1"/>
      <use fill="#2d1804" height="88.35" transform="matrix(0.2734, 0.0, 0.0, 0.2734, 25.95, 12.0)" width="248.15" xlink:href="#font_HY_________2"/>
      <use fill="#2d1804" height="88.35" transform="matrix(0.2734, 0.0, 0.0, 0.2734, 38.75, 12.0)" width="248.15" xlink:href="#font_HY_________3"/>
      <use fill="#2d1804" height="88.35" transform="matrix(0.2734, 0.0, 0.0, 0.2734, 51.55, 12.0)" width="248.15" xlink:href="#font_HY_________4"/>
      <use fill="#2d1804" height="88.35" transform="matrix(0.2734, 0.0, 0.0, 0.2734, 67.8, 12.0)" width="248.15" xlink:href="#font_HY_________6"/>
      <use fill="#2d1804" height="88.35" transform="matrix(0.2734, 0.0, 0.0, 0.2734, 80.6, 12.0)" width="248.15" xlink:href="#font_HY_________7"/>
      <use fill="#2d1804" height="88.35" transform="matrix(0.2734, 0.0, 0.0, 0.2734, 93.4, 12.0)" width="248.15" xlink:href="#font_HY_________8"/>
      <use fill="#2d1804" height="88.35" transform="matrix(0.2734, 0.0, 0.0, 0.2734, 109.65, 12.0)" width="248.15" xlink:href="#font_HY_________9"/>
      <use fill="#2d1804" height="88.35" transform="matrix(0.2734, 0.0, 0.0, 0.2734, 122.45, 12.0)" width="248.15" xlink:href="#font_HY_________10"/>
      <use fill="#2d1804" height="88.35" transform="matrix(0.2734, 0.0, 0.0, 0.2734, 135.25, 12.0)" width="248.15" xlink:href="#font_HY_________11"/>
      <use fill="#2d1804" height="88.35" transform="matrix(0.2734, 0.0, 0.0, 0.2734, 138.7, 12.0)" width="248.15" xlink:href="#font_HY_________12"/>
      <use fill="#2d1804" height="88.35" transform="matrix(0.2734, 0.0, 0.0, 0.2734, 151.5, 12.0)" width="248.15" xlink:href="#font_HY_________13"/>
      <use fill="#2d1804" height="88.35" transform="matrix(0.2734, 0.0, 0.0, 0.2734, 164.3, 12.0)" width="248.15" xlink:href="#font_HY_________14"/>
      <use fill="#2d1804" height="88.35" transform="matrix(0.2734, 0.0, 0.0, 0.2734, 167.75, 12.0)" width="248.15" xlink:href="#font_HY_________15"/>
      <use fill="#2d1804" height="88.35" transform="matrix(0.2734, 0.0, 0.0, 0.2734, 180.55, 12.0)" width="248.15" xlink:href="#font_HY_________16"/>
      <use fill="#2d1804" height="88.35" transform="matrix(0.2734, 0.0, 0.0, 0.2734, 193.35, 12.0)" width="248.15" xlink:href="#font_HY_________17"/>
      <use fill="#2d1804" height="88.35" transform="matrix(0.2734, 0.0, 0.0, 0.2734, 206.15, 12.0)" width="248.15" xlink:href="#font_HY_________18"/>
      <use fill="#2d1804" height="88.35" transform="matrix(0.2734, 0.0, 0.0, 0.2734, 218.95, 12.0)" width="248.15" xlink:href="#font_HY_________19"/>
      <use fill="#2d1804" height="88.35" transform="matrix(0.2734, 0.0, 0.0, 0.2734, 231.75, 12.0)" width="248.15" xlink:href="#font_HY________.0"/>
    </g>
    <g transform="matrix(1.0, 0.0, 0.0, 1.0, -114.4, 0.0)">
      <use fill="#2d1804" height="88.35" transform="matrix(0.2734, 0.0, 0.0, 0.2734, 16.3, 34.0)" width="248.15" xlink:href="#font_HY_________0"/>
      <use fill="#2d1804" height="88.35" transform="matrix(0.2734, 0.0, 0.0, 0.2734, 29.1, 34.0)" width="248.15" xlink:href="#font_HY_________1"/>
      <use fill="#2d1804" height="88.35" transform="matrix(0.2734, 0.0, 0.0, 0.2734, 41.9, 34.0)" width="248.15" xlink:href="#font_HY_________2"/>
      <use fill="#2d1804" height="88.35" transform="matrix(0.2734, 0.0, 0.0, 0.2734, 54.7, 34.0)" width="248.15" xlink:href="#font_HY_________3"/>
      <use fill="#2d1804" height="88.35" transform="matrix(0.2734, 0.0, 0.0, 0.2734, 67.5, 34.0)" width="248.15" xlink:href="#font_HY_________4"/>
      <use fill="#2d1804" height="88.35" transform="matrix(0.2734, 0.0, 0.0, 0.2734, 83.75, 34.0)" width="248.15" xlink:href="#font_HY_________20"/>
      <use fill="#2d1804" height="88.35" transform="matrix(0.2734, 0.0, 0.0, 0.2734, 96.55, 34.0)" width="248.15" xlink:href="#font_HY_________21"/>
      <use fill="#2d1804" height="88.35" transform="matrix(0.2734, 0.0, 0.0, 0.2734, 112.8, 34.0)" width="248.15" xlink:href="#font_HY_________22"/>
      <use fill="#2d1804" height="88.35" transform="matrix(0.2734, 0.0, 0.0, 0.2734, 125.6, 34.0)" width="248.15" xlink:href="#font_HY_________23"/>
      <use fill="#2d1804" height="88.35" transform="matrix(0.2734, 0.0, 0.0, 0.2734, 138.4, 34.0)" width="248.15" xlink:href="#font_HY_________24"/>
      <use fill="#2d1804" height="88.35" transform="matrix(0.2734, 0.0, 0.0, 0.2734, 151.2, 34.0)" width="248.15" xlink:href="#font_HY_________25"/>
      <use fill="#2d1804" height="88.35" transform="matrix(0.2734, 0.0, 0.0, 0.2734, 164.0, 34.0)" width="248.15" xlink:href="#font_HY_________4"/>
      <use fill="#2d1804" height="88.35" transform="matrix(0.2734, 0.0, 0.0, 0.2734, 180.25, 34.0)" width="248.15" xlink:href="#font_HY_________26"/>
      <use fill="#2d1804" height="88.35" transform="matrix(0.2734, 0.0, 0.0, 0.2734, 193.05, 34.0)" width="248.15" xlink:href="#font_HY_________27"/>
      <use fill="#2d1804" height="88.35" transform="matrix(0.2734, 0.0, 0.0, 0.2734, 205.85, 34.0)" width="248.15" xlink:href="#font_HY_________8"/>
    </g>
    <g transform="matrix(1.0, 0.0, 0.0, 1.0, -114.4, 0.0)">
      <use fill="#2d1804" height="88.35" transform="matrix(0.2734, 0.0, 0.0, 0.2734, 27.65, 50.0)" width="248.15" xlink:href="#font_HY_________28"/>
      <use fill="#2d1804" height="88.35" transform="matrix(0.2734, 0.0, 0.0, 0.2734, 40.45, 50.0)" width="248.15" xlink:href="#font_HY_________29"/>
      <use fill="#2d1804" height="88.35" transform="matrix(0.2734, 0.0, 0.0, 0.2734, 56.7, 50.0)" width="248.15" xlink:href="#font_HY_________30"/>
      <use fill="#2d1804" height="88.35" transform="matrix(0.2734, 0.0, 0.0, 0.2734, 69.5, 50.0)" width="248.15" xlink:href="#font_HY_________31"/>
      <use fill="#2d1804" height="88.35" transform="matrix(0.2734, 0.0, 0.0, 0.2734, 82.3, 50.0)" width="248.15" xlink:href="#font_HY_________32"/>
      <use fill="#2d1804" height="88.35" transform="matrix(0.2734, 0.0, 0.0, 0.2734, 95.1, 50.0)" width="248.15" xlink:href="#font_HY_________33"/>
      <use fill="#2d1804" height="88.35" transform="matrix(0.2734, 0.0, 0.0, 0.2734, 111.35, 50.0)" width="248.15" xlink:href="#font_HY_________24"/>
      <use fill="#2d1804" height="88.35" transform="matrix(0.2734, 0.0, 0.0, 0.2734, 124.15, 50.0)" width="248.15" xlink:href="#font_HY_________25"/>
      <use fill="#2d1804" height="88.35" transform="matrix(0.2734, 0.0, 0.0, 0.2734, 136.95, 50.0)" width="248.15" xlink:href="#font_HY_________24"/>
      <use fill="#2d1804" height="88.35" transform="matrix(0.2734, 0.0, 0.0, 0.2734, 153.2, 50.0)" width="248.15" xlink:href="#font_HY_________34"/>
      <use fill="#2d1804" height="88.35" transform="matrix(0.2734, 0.0, 0.0, 0.2734, 166.0, 50.0)" width="248.15" xlink:href="#font_HY_________35"/>
      <use fill="#2d1804" height="88.35" transform="matrix(0.2734, 0.0, 0.0, 0.2734, 178.8, 50.0)" width="248.15" xlink:href="#font_HY_________18"/>
      <use fill="#2d1804" height="88.35" transform="matrix(0.2734, 0.0, 0.0, 0.2734, 191.6, 50.0)" width="248.15" xlink:href="#font_HY_________19"/>
      <use fill="#2d1804" height="88.35" transform="matrix(0.2734, 0.0, 0.0, 0.2734, 204.4, 50.0)" width="248.15" xlink:href="#font_HY________.0"/>
    </g>
    <g transform="matrix(1.0, 0.0, 0.0, 1.0, -114.4, 0.0)">
      <use fill="#2d1804" height="88.35" transform="matrix(0.2734, 0.0, 0.0, 0.2734, 1.8, 72.0)" width="248.15" xlink:href="#font_HY_________28"/>
      <use fill="#2d1804" height="88.35" transform="matrix(0.2734, 0.0, 0.0, 0.2734, 14.6, 72.0)" width="248.15" xlink:href="#font_HY_________29"/>
      <use fill="#2d1804" height="88.35" transform="matrix(0.2734, 0.0, 0.0, 0.2734, 30.85, 72.0)" width="248.15" xlink:href="#font_HY_________30"/>
      <use fill="#2d1804" height="88.35" transform="matrix(0.2734, 0.0, 0.0, 0.2734, 43.65, 72.0)" width="248.15" xlink:href="#font_HY_________31"/>
      <use fill="#2d1804" height="88.35" transform="matrix(0.2734, 0.0, 0.0, 0.2734, 56.45, 72.0)" width="248.15" xlink:href="#font_HY_________32"/>
      <use fill="#2d1804" height="88.35" transform="matrix(0.2734, 0.0, 0.0, 0.2734, 69.25, 72.0)" width="248.15" xlink:href="#font_HY_________33"/>
      <use fill="#2d1804" height="88.35" transform="matrix(0.2734, 0.0, 0.0, 0.2734, 82.05, 72.0)" width="248.15" xlink:href="#font_HY_________36"/>
      <use fill="#2d1804" height="88.35" transform="matrix(0.2734, 0.0, 0.0, 0.2734, 98.3, 72.0)" width="248.15" xlink:href="#font_HY_________37"/>
      <use fill="#2d1804" height="88.35" transform="matrix(0.2734, 0.0, 0.0, 0.2734, 111.1, 72.0)" width="248.15" xlink:href="#font_HY_________38"/>
      <use fill="#2d1804" height="88.35" transform="matrix(0.2734, 0.0, 0.0, 0.2734, 123.9, 72.0)" width="248.15" xlink:href="#font_HY_________39"/>
      <use fill="#2d1804" height="88.35" transform="matrix(0.2734, 0.0, 0.0, 0.2734, 140.15, 72.0)" width="248.15" xlink:href="#font_HY_________40"/>
      <use fill="#2d1804" height="88.35" transform="matrix(0.2734, 0.0, 0.0, 0.2734, 152.95, 72.0)" width="248.15" xlink:href="#font_HY_________41"/>
      <use fill="#2d1804" height="88.35" transform="matrix(0.2734, 0.0, 0.0, 0.2734, 165.75, 72.0)" width="248.15" xlink:href="#font_HY_________42"/>
      <use fill="#2d1804" height="88.35" transform="matrix(0.2734, 0.0, 0.0, 0.2734, 178.55, 72.0)" width="248.15" xlink:href="#font_HY_________4"/>
      <use fill="#2d1804" height="88.35" transform="matrix(0.2734, 0.0, 0.0, 0.2734, 194.8, 72.0)" width="248.15" xlink:href="#font_HY_________43"/>
      <use fill="#2d1804" height="88.35" transform="matrix(0.2734, 0.0, 0.0, 0.2734, 207.6, 72.0)" width="248.15" xlink:href="#font_HY_________44"/>
      <use fill="#2d1804" height="88.35" transform="matrix(0.2734, 0.0, 0.0, 0.2734, 220.4, 72.0)" width="248.15" xlink:href="#font_HY_________39"/>
    </g>
    <g transform="matrix(1.0, 0.0, 0.0, 1.0, -114.4, 0.0)">
      <use fill="#2d1804" height="88.35" transform="matrix(0.2734, 0.0, 0.0, 0.2734, 56.7, 88.0)" width="248.15" xlink:href="#font_HY_________39"/>
      <use fill="#2d1804" height="88.35" transform="matrix(0.2734, 0.0, 0.0, 0.2734, 69.5, 88.0)" width="248.15" xlink:href="#font_HY_________45"/>
      <use fill="#2d1804" height="88.35" transform="matrix(0.2734, 0.0, 0.0, 0.2734, 82.3, 88.0)" width="248.15" xlink:href="#font_HY_________46"/>
      <use fill="#2d1804" height="88.35" transform="matrix(0.2734, 0.0, 0.0, 0.2734, 95.1, 88.0)" width="248.15" xlink:href="#font_HY_________24"/>
      <use fill="#2d1804" height="88.35" transform="matrix(0.2734, 0.0, 0.0, 0.2734, 107.9, 88.0)" width="248.15" xlink:href="#font_HY_________47"/>
      <use fill="#2d1804" height="88.35" transform="matrix(0.2734, 0.0, 0.0, 0.2734, 124.15, 88.0)" width="248.15" xlink:href="#font_HY_________48"/>
      <use fill="#2d1804" height="88.35" transform="matrix(0.2734, 0.0, 0.0, 0.2734, 136.95, 88.0)" width="248.15" xlink:href="#font_HY_________49"/>
      <use fill="#2d1804" height="88.35" transform="matrix(0.2734, 0.0, 0.0, 0.2734, 149.75, 88.0)" width="248.15" xlink:href="#font_HY_________18"/>
      <use fill="#2d1804" height="88.35" transform="matrix(0.2734, 0.0, 0.0, 0.2734, 162.55, 88.0)" width="248.15" xlink:href="#font_HY_________19"/>
      <use fill="#2d1804" height="88.35" transform="matrix(0.2734, 0.0, 0.0, 0.2734, 175.35, 88.0)" width="248.15" xlink:href="#font_HY________.0"/>
    </g>
  </g>
  <defs>
    <g id="font_HY_________0">
      <path d="M19.7 -30.1 Q20.15 -29.5 19.95 -28.15 L19.9 -22.55 Q19.9 -21.55 19.45 -21.1 19.1 -20.7 18.55 -20.95 18.0 -21.2 17.65 -21.95 17.25 -22.85 17.25 -24.05 L17.25 -26.15 Q17.25 -27.45 16.9 -28.1 16.4 -29.1 14.9 -29.8 13.35 -30.4 14.0 -31.1 14.65 -31.85 16.15 -31.45 18.95 -31.0 19.7 -30.1 M29.8 -31.3 Q28.45 -32.0 29.0 -32.7 29.55 -33.45 31.35 -32.9 34.6 -31.95 35.25 -31.15 35.7 -30.6 35.15 -29.1 L34.55 -27.1 33.5 -23.5 32.45 -20.5 33.35 -20.85 35.55 -21.5 40.3 -21.4 Q41.3 -21.25 41.95 -20.7 42.5 -20.25 42.55 -19.65 42.65 -19.05 42.25 -18.65 41.85 -18.2 41.15 -18.2 L26.65 -18.2 26.65 -3.75 36.85 -3.75 38.65 -3.95 39.8 -4.4 41.75 -5.05 46.05 -4.85 Q47.05 -4.75 47.7 -4.25 48.2 -3.85 48.3 -3.25 48.35 -2.65 48.0 -2.25 47.6 -1.8 46.9 -1.8 L14.85 -1.8 11.55 -1.5 9.8 -0.9 Q8.7 -0.4 7.85 -0.5 6.5 -0.65 3.45 -1.95 2.2 -2.6 2.35 -3.4 2.5 -4.2 3.75 -4.0 L5.95 -3.8 9.15 -3.75 24.05 -3.75 24.05 -18.2 17.65 -18.2 15.2 -18.05 13.45 -17.65 11.25 -17.3 Q10.1 -17.45 8.4 -18.5 7.15 -19.25 7.3 -19.95 7.4 -20.6 8.6 -20.4 L10.9 -20.2 13.55 -20.15 30.4 -20.15 31.25 -24.35 31.85 -28.5 Q31.85 -29.45 31.3 -30.15 30.8 -30.8 29.8 -31.3 M32.15 -37.45 L33.35 -37.9 35.55 -38.6 40.3 -38.45 41.95 -37.8 Q42.5 -37.35 42.55 -36.75 42.65 -36.2 42.25 -35.8 41.85 -35.35 41.15 -35.35 L17.65 -35.35 15.15 -35.15 13.4 -34.7 11.25 -34.35 Q10.05 -34.45 8.4 -35.55 7.15 -36.35 7.3 -37.05 7.4 -37.7 8.6 -37.5 L10.95 -37.25 13.65 -37.2 30.35 -37.2 32.15 -37.45" fill-rule="evenodd" stroke="none"/>
    </g>
    <g id="font_HY_________1">
      <path d="M7.85 -5.75 Q7.2 -5.85 7.0 -6.25 6.85 -6.65 7.15 -7.15 L8.1 -7.95 9.8 -8.2 Q13.3 -7.8 14.15 -6.9 14.7 -6.35 14.4 -4.65 L14.25 -3.8 14.2 -2.8 14.2 -1.05 Q14.2 -0.35 14.75 0.15 15.3 0.65 16.3 0.65 L31.4 0.65 32.9 0.45 33.8 0.1 35.65 -0.45 Q37.3 -0.7 40.7 -0.45 L43.25 0.1 Q44.05 0.55 44.15 1.15 44.2 1.75 43.7 2.2 L42.4 2.65 16.65 2.65 Q14.15 2.65 12.8 1.6 11.5 0.6 11.5 -1.05 L11.5 -3.1 Q11.5 -4.2 10.85 -4.8 9.95 -5.6 7.85 -5.75 M14.85 -15.05 L11.55 -14.75 9.8 -14.15 Q8.7 -13.65 7.85 -13.8 6.5 -13.95 3.45 -15.3 2.2 -15.95 2.35 -16.75 2.5 -17.5 3.75 -17.3 L6.2 -17.1 9.9 -17.05 36.85 -17.05 38.65 -17.25 39.8 -17.7 41.75 -18.35 46.05 -18.2 Q47.05 -18.1 47.7 -17.55 L48.3 -16.5 Q48.35 -15.9 48.0 -15.5 47.6 -15.05 46.9 -15.05 L26.9 -15.05 26.9 -9.8 26.65 -6.55 Q26.4 -5.5 25.8 -4.8 L24.75 -4.85 Q24.3 -5.65 24.3 -8.0 L24.3 -15.05 14.85 -15.05 M26.6 -30.35 Q27.25 -29.65 27.2 -28.95 27.1 -28.2 26.15 -27.45 28.8 -26.7 30.7 -26.4 L33.4 -26.15 36.15 -25.9 Q37.9 -25.55 40.6 -24.5 41.55 -24.15 42.1 -23.5 42.6 -22.85 42.55 -22.3 42.45 -21.7 41.8 -21.5 L39.9 -21.6 32.05 -24.0 24.5 -26.15 Q19.75 -23.75 15.1 -22.45 10.5 -21.1 6.65 -21.0 4.85 -20.9 4.65 -21.65 4.4 -22.35 6.0 -22.5 10.3 -23.0 14.7 -24.55 19.3 -26.15 23.0 -28.5 L23.8 -29.55 Q23.95 -29.95 23.7 -30.35 L18.15 -30.35 15.35 -30.2 13.8 -29.8 12.1 -29.55 Q11.05 -29.65 8.85 -30.5 7.15 -31.1 7.35 -32.0 7.55 -32.9 8.75 -32.7 L11.4 -32.3 14.05 -32.2 30.9 -32.2 32.6 -32.4 33.45 -32.8 35.05 -33.35 39.5 -33.45 Q41.05 -33.4 41.9 -32.9 42.6 -32.5 42.7 -31.85 42.75 -31.3 42.25 -30.85 41.8 -30.35 41.15 -30.35 L26.6 -30.35 M34.2 -40.0 L35.6 -39.55 36.15 -38.5 Q36.2 -37.9 35.7 -37.45 35.15 -36.95 34.2 -36.95 L19.65 -36.95 17.35 -37.1 Q15.9 -37.4 14.55 -38.45 13.3 -39.4 13.7 -40.0 14.05 -40.6 15.25 -40.35 L17.75 -40.05 20.25 -40.0 34.2 -40.0" fill-rule="evenodd" stroke="none"/>
    </g>
    <g id="font_HY_________2">
      <path d="M37.4 -38.25 L38.15 -38.5 38.7 -38.95 Q39.35 -39.5 39.8 -39.5 40.5 -39.55 41.65 -38.5 L42.55 -37.3 42.2 -36.4 41.7 -35.6 41.4 -34.25 40.15 -25.65 38.3 -17.35 39.15 -17.6 39.85 -17.9 41.85 -18.55 46.05 -18.4 Q47.05 -18.25 47.7 -17.75 L48.3 -16.7 Q48.35 -16.15 48.0 -15.75 47.6 -15.3 46.9 -15.3 L26.9 -15.3 26.9 -0.65 26.65 2.6 Q26.4 3.6 25.8 4.4 L24.75 4.3 Q24.3 3.5 24.3 1.05 L24.3 -15.3 14.85 -15.3 11.55 -15.0 9.8 -14.4 Q8.7 -13.9 7.85 -14.0 6.5 -14.2 3.45 -15.55 2.2 -16.15 2.35 -16.9 2.5 -17.65 3.75 -17.45 L6.65 -17.25 11.6 -17.2 36.4 -17.2 37.35 -22.7 38.05 -28.3 Q34.3 -27.4 27.05 -26.45 L14.55 -25.0 13.6 -24.85 12.85 -24.65 11.0 -24.5 Q9.85 -24.85 7.7 -26.7 6.9 -27.4 6.75 -27.95 6.55 -28.45 6.8 -28.7 L7.5 -29.0 8.3 -28.75 Q10.3 -27.7 13.8 -27.6 L22.9 -28.1 30.95 -28.95 38.2 -29.95 38.45 -33.8 38.55 -36.45 20.3 -36.45 17.35 -36.2 15.6 -35.6 13.4 -35.2 Q12.05 -35.35 9.45 -36.65 8.0 -37.4 8.15 -38.1 8.3 -38.75 9.35 -38.55 L12.1 -38.3 16.9 -38.25 37.4 -38.25" fill-rule="evenodd" stroke="none"/>
    </g>
    <g id="font_HY_________3">
      <path d="M30.1 -31.8 L29.45 -31.1 28.95 -30.25 Q24.35 -17.75 18.35 -10.9 13.5 -5.4 4.8 -0.75 3.75 -0.25 3.4 -0.9 3.05 -1.6 4.1 -2.15 10.05 -5.3 14.9 -10.7 19.55 -15.8 22.95 -22.65 L17.45 -21.15 11.45 -19.9 10.45 -19.65 9.65 -19.25 Q8.4 -18.65 7.55 -18.75 6.15 -18.85 3.75 -20.35 2.05 -21.5 2.6 -22.1 L4.45 -22.2 13.7 -22.55 Q18.9 -23.35 23.85 -24.7 L25.3 -28.55 26.65 -32.45 15.7 -32.45 13.15 -32.25 11.6 -31.75 Q10.45 -31.3 9.7 -31.4 8.55 -31.55 6.4 -32.7 5.0 -33.45 5.15 -34.15 5.25 -34.85 6.3 -34.65 L8.7 -34.3 11.1 -34.25 26.35 -34.25 26.8 -34.45 27.3 -34.85 28.5 -35.55 Q29.3 -35.65 30.3 -34.6 31.15 -33.75 30.95 -33.05 L30.1 -31.8 M34.2 -38.75 Q32.7 -39.35 33.3 -40.1 33.9 -40.85 35.4 -40.6 39.2 -39.9 40.2 -38.85 40.8 -38.15 40.55 -36.4 L40.45 -35.65 40.4 -34.8 40.4 -1.1 40.15 2.15 Q39.9 3.25 39.3 3.9 L38.2 3.85 Q37.75 3.1 37.75 0.65 L37.75 -33.85 Q37.75 -35.95 37.25 -36.75 36.6 -37.9 34.2 -38.75" fill-rule="evenodd" stroke="none"/>
    </g>
    <g id="font_HY_________4">
      <path d="M8.4 -7.95 Q7.75 -8.0 7.55 -8.45 7.35 -8.85 7.65 -9.3 7.95 -9.85 8.65 -10.15 L10.35 -10.35 Q13.85 -10.0 14.65 -9.05 15.2 -8.5 14.9 -6.7 L14.75 -5.7 14.7 -4.55 14.7 -2.05 Q14.7 -0.9 15.25 -0.3 15.8 0.25 16.85 0.25 L31.0 0.25 32.5 0.05 33.4 -0.25 35.3 -0.85 Q36.95 -1.1 40.3 -0.9 L42.85 -0.3 Q43.65 0.15 43.75 0.75 43.85 1.35 43.35 1.8 42.85 2.25 42.05 2.25 L17.2 2.25 Q14.65 2.25 13.35 1.15 12.05 0.05 12.05 -2.05 L12.05 -4.8 Q12.05 -6.2 11.35 -6.9 10.5 -7.8 8.4 -7.95 M14.85 -15.55 L11.55 -15.25 9.8 -14.6 Q8.7 -14.1 7.85 -14.2 6.5 -14.35 3.45 -15.7 2.2 -16.3 2.35 -17.1 2.5 -17.9 3.75 -17.7 L6.2 -17.5 9.9 -17.45 36.85 -17.45 38.65 -17.65 39.8 -18.1 41.75 -18.75 46.05 -18.55 Q47.05 -18.45 47.7 -17.95 48.2 -17.55 48.3 -16.95 48.35 -16.4 48.0 -16.0 47.6 -15.55 46.9 -15.55 L14.85 -15.55 M34.55 -29.85 Q36.2 -30.1 39.6 -29.85 41.2 -29.75 42.15 -29.25 42.95 -28.8 43.05 -28.2 43.1 -27.6 42.6 -27.15 42.1 -26.7 41.3 -26.7 L14.9 -26.7 Q12.35 -26.7 11.05 -27.8 9.75 -28.95 9.75 -31.0 L9.75 -33.55 Q9.75 -35.0 9.05 -35.7 8.25 -36.55 6.1 -36.7 5.45 -36.8 5.25 -37.25 5.1 -37.65 5.4 -38.15 5.7 -38.65 6.35 -38.95 L8.05 -39.15 Q11.55 -38.7 12.4 -37.85 12.95 -37.25 12.65 -35.45 L12.5 -34.45 12.45 -33.3 12.45 -31.0 Q12.45 -29.9 13.0 -29.3 13.55 -28.7 14.55 -28.7 L30.35 -28.7 31.8 -28.9 32.7 -29.25 34.55 -29.85" fill-rule="evenodd" stroke="none"/>
    </g>
    <g id="font_HY_________6">
      <path d="M11.5 -4.25 Q11.5 -1.5 14.8 -0.05 18.3 1.5 25.6 1.5 32.8 1.5 36.3 -0.05 39.65 -1.5 39.65 -4.25 39.65 -7.05 36.3 -8.5 32.75 -10.05 25.6 -10.05 25.45 -9.9 25.25 -9.9 25.1 -9.9 24.95 -10.05 18.05 -10.0 14.65 -8.45 11.5 -7.0 11.5 -4.25 M14.85 -18.25 L11.55 -17.95 9.8 -17.35 Q8.7 -16.85 7.85 -16.95 6.5 -17.15 3.45 -18.5 2.2 -19.1 2.35 -19.9 2.5 -20.7 3.75 -20.5 L5.95 -20.3 9.15 -20.25 36.85 -20.25 38.65 -20.45 39.8 -20.9 41.75 -21.55 46.05 -21.4 Q47.05 -21.3 47.7 -20.75 L48.3 -19.7 Q48.35 -19.1 48.0 -18.7 47.6 -18.25 46.9 -18.25 L26.9 -18.25 26.9 -15.25 26.85 -13.55 26.65 -12.3 Q34.5 -12.2 38.6 -9.95 42.45 -7.85 42.45 -4.25 42.45 -0.6 38.35 1.5 33.95 3.8 25.6 3.8 17.15 3.8 12.8 1.5 8.75 -0.6 8.75 -4.25 8.75 -7.8 12.45 -9.9 16.5 -12.15 24.3 -12.3 L24.3 -18.25 14.85 -18.25 M31.9 -38.5 L32.75 -38.85 34.45 -39.4 Q36.0 -39.65 39.3 -39.5 L41.8 -38.95 Q42.6 -38.55 42.65 -37.9 42.75 -37.35 42.25 -36.9 41.8 -36.4 41.15 -36.4 L26.6 -36.4 Q27.2 -35.15 27.05 -34.5 26.95 -33.95 26.05 -32.95 29.0 -31.75 31.05 -31.25 L33.95 -30.8 36.55 -30.4 Q38.2 -29.95 40.65 -28.8 41.6 -28.35 42.25 -27.6 42.8 -26.9 42.85 -26.25 42.9 -25.6 42.4 -25.4 L40.6 -25.55 24.3 -31.7 Q19.75 -28.75 15.35 -27.0 11.05 -25.35 6.65 -24.7 4.85 -24.45 4.65 -25.1 4.45 -25.7 6.0 -26.05 10.35 -27.15 14.8 -29.05 20.25 -31.45 23.0 -34.1 L23.75 -35.2 23.7 -36.4 19.1 -36.4 16.2 -36.15 14.5 -35.6 12.45 -35.2 Q11.2 -35.35 8.85 -36.55 7.3 -37.4 7.45 -38.2 7.55 -39.0 8.75 -38.75 L11.4 -38.4 14.05 -38.3 30.25 -38.3 31.9 -38.5" fill-rule="evenodd" stroke="none"/>
    </g>
    <g id="font_HY_________7">
      <path d="M37.65 -30.55 L37.9 -36.2 19.2 -36.2 16.25 -35.95 14.5 -35.35 12.35 -34.95 Q11.0 -35.1 8.4 -36.4 6.95 -37.1 7.05 -37.8 7.2 -38.5 8.3 -38.3 L11.0 -38.05 15.8 -38.0 36.65 -38.0 37.35 -38.25 37.95 -38.7 Q38.6 -39.25 39.05 -39.25 39.8 -39.3 40.95 -38.25 L41.9 -37.05 41.5 -36.15 41.0 -35.35 40.65 -34.0 39.9 -29.15 38.65 -24.05 39.3 -24.3 39.9 -24.55 Q41.0 -25.05 41.85 -25.15 L46.05 -25.0 Q47.05 -24.9 47.7 -24.35 L48.3 -23.3 Q48.35 -22.75 48.0 -22.35 47.6 -21.9 46.9 -21.9 L26.9 -21.9 26.9 -16.65 26.65 -13.35 Q26.4 -12.25 25.8 -11.6 L25.45 -11.4 36.55 -11.4 37.3 -11.65 37.9 -12.1 Q38.6 -12.65 39.05 -12.65 39.8 -12.7 40.95 -11.65 41.75 -10.95 41.8 -10.45 L41.35 -9.65 40.75 -8.9 Q40.5 -8.4 40.5 -7.7 L40.5 -1.0 40.25 2.3 Q40.0 3.4 39.35 4.1 38.7 4.65 38.3 4.0 37.85 3.25 37.85 0.8 L37.85 -9.6 19.35 -9.6 16.4 -9.35 14.65 -8.75 Q13.35 -8.25 12.5 -8.3 11.15 -8.45 8.55 -9.8 7.05 -10.5 7.2 -11.25 7.3 -11.95 8.4 -11.75 L11.15 -11.5 15.9 -11.4 25.05 -11.4 Q24.65 -11.65 24.5 -12.45 L24.3 -14.85 24.3 -21.9 14.85 -21.9 11.55 -21.6 9.8 -21.0 Q8.7 -20.5 7.85 -20.6 6.5 -20.75 3.45 -22.1 2.2 -22.7 2.35 -23.5 2.5 -24.25 3.75 -24.0 L6.65 -23.8 11.6 -23.75 36.65 -23.75 Q37.35 -26.75 37.65 -30.55" fill-rule="evenodd" stroke="none"/>
    </g>
    <g id="font_HY_________8">
      <path d="M27.4 -25.1 Q27.4 -29.1 25.2 -31.45 22.75 -33.95 18.2 -33.95 13.65 -33.95 11.25 -31.45 9.05 -29.1 9.05 -25.1 9.05 -21.2 11.25 -18.9 13.65 -16.4 18.2 -16.4 22.8 -16.4 25.2 -18.9 27.4 -21.15 27.4 -25.1 M27.6 -32.5 Q30.1 -29.65 30.1 -25.1 30.1 -20.3 27.2 -17.4 24.05 -14.2 18.2 -14.2 12.3 -14.2 9.15 -17.4 6.3 -20.3 6.3 -25.1 6.3 -29.85 8.95 -32.75 11.9 -35.95 17.35 -36.2 L17.35 -37.05 16.95 -37.7 Q16.05 -38.15 16.45 -38.75 16.85 -39.3 18.2 -39.3 19.75 -39.3 20.25 -38.4 20.7 -37.55 20.05 -36.1 25.0 -35.6 27.6 -32.5 M37.75 -33.85 Q37.75 -35.95 37.25 -36.75 36.6 -37.9 34.2 -38.75 32.7 -39.35 33.3 -40.1 33.9 -40.85 35.4 -40.6 39.2 -39.9 40.2 -38.85 40.8 -38.15 40.55 -36.4 L40.45 -35.65 40.4 -34.8 40.4 -1.1 40.15 2.15 Q39.9 3.25 39.3 3.9 L38.2 3.85 Q37.75 3.1 37.75 0.65 L37.75 -8.55 Q32.85 -7.25 26.45 -6.0 L11.8 -3.55 10.4 -3.25 9.45 -2.8 Q8.3 -2.25 7.45 -2.35 6.1 -2.6 3.35 -4.3 2.3 -4.9 2.5 -5.7 2.7 -6.45 3.8 -6.1 5.6 -5.8 9.45 -6.0 L17.8 -6.7 28.9 -8.25 Q35.35 -9.3 37.75 -10.0 L37.75 -33.85" fill-rule="evenodd" stroke="none"/>
    </g>
    <g id="font_HY_________9">
      <path d="M37.85 -0.45 L37.85 -9.9 14.45 -9.9 14.45 0.0 33.9 0.0 36.1 -0.15 37.85 -0.45 M9.2 -10.2 Q8.4 -10.2 8.2 -10.6 8.0 -10.9 8.25 -11.35 8.5 -11.8 9.1 -12.1 L10.5 -12.45 12.0 -12.35 13.05 -12.1 13.8 -11.9 14.55 -11.8 37.1 -11.8 Q37.6 -11.8 37.95 -12.05 L38.5 -12.45 39.35 -12.9 Q39.95 -12.95 41.15 -12.3 42.15 -11.7 42.2 -11.15 L41.7 -10.15 41.2 -9.4 40.85 -8.35 39.95 -1.0 Q41.15 -0.75 41.75 -0.25 42.3 0.2 42.25 0.75 42.2 1.2 41.75 1.55 41.25 1.9 40.6 1.9 L14.45 1.9 Q14.2 4.2 13.1 4.45 12.0 4.65 12.0 1.75 L11.8 -8.55 Q11.8 -9.3 11.25 -9.7 10.6 -10.2 9.2 -10.2 M25.1 -38.4 Q26.7 -38.35 27.6 -37.85 28.35 -37.4 28.45 -36.8 28.5 -36.2 28.05 -35.75 27.55 -35.3 26.9 -35.3 L17.55 -35.3 Q19.0 -33.95 19.0 -32.75 19.05 -32.0 18.25 -30.55 L18.2 -30.35 17.95 -29.9 17.1 -28.1 15.3 -24.95 17.85 -23.05 Q18.5 -22.6 19.7 -22.05 L22.0 -20.65 25.4 -17.25 Q26.3 -16.2 26.55 -15.25 26.75 -14.4 26.45 -13.9 26.15 -13.4 25.6 -13.35 25.05 -13.35 24.6 -13.8 L19.85 -18.65 14.5 -23.45 Q12.0 -19.95 9.7 -17.45 7.1 -14.65 4.6 -12.95 3.2 -11.95 2.85 -12.4 2.5 -12.85 3.75 -14.05 8.05 -18.15 11.35 -23.25 14.55 -28.1 15.6 -31.9 15.8 -32.6 15.65 -33.55 15.5 -34.5 15.0 -35.3 L14.3 -35.3 12.2 -35.05 10.95 -34.55 Q9.9 -34.0 9.15 -34.1 7.9 -34.2 5.5 -35.4 3.85 -36.3 4.0 -37.1 4.15 -37.9 5.35 -37.7 L7.95 -37.25 10.6 -37.15 18.35 -37.15 20.05 -37.35 20.8 -37.8 21.9 -38.35 Q22.9 -38.55 25.1 -38.4 M34.2 -38.75 Q32.7 -39.35 33.3 -40.1 33.9 -40.85 35.4 -40.6 39.2 -39.9 40.2 -38.85 40.8 -38.15 40.55 -36.4 L40.45 -35.65 40.4 -34.8 40.4 -18.9 40.15 -15.65 Q39.9 -14.6 39.3 -13.85 38.6 -13.35 38.2 -13.95 37.75 -14.7 37.75 -17.2 L37.75 -25.25 33.3 -25.25 30.8 -25.05 29.25 -24.65 27.35 -24.35 Q26.25 -24.5 24.1 -25.6 22.7 -26.35 22.85 -27.1 22.95 -27.8 24.0 -27.6 L26.35 -27.25 28.7 -27.2 37.75 -27.2 37.75 -33.85 Q37.75 -35.95 37.25 -36.75 36.6 -37.9 34.2 -38.75" fill-rule="evenodd" stroke="none"/>
    </g>
    <g id="font_HY_________10">
      <path d="M22.7 -33.3 Q23.45 -33.35 24.65 -32.35 L25.5 -31.15 25.15 -30.25 24.65 -29.45 24.35 -28.05 23.8 -21.4 Q23.3 -16.95 22.5 -14.25 22.0 -12.55 21.35 -12.55 20.65 -12.6 20.9 -14.4 21.35 -17.6 21.5 -22.6 L21.6 -30.35 15.55 -30.35 12.7 -30.1 11.05 -29.55 Q9.95 -29.1 9.2 -29.2 8.05 -29.3 5.8 -30.4 4.35 -31.15 4.45 -31.9 4.55 -32.65 5.65 -32.45 L8.4 -32.1 13.15 -32.0 20.35 -32.0 Q20.7 -32.0 21.05 -32.25 L21.65 -32.7 Q22.25 -33.3 22.7 -33.3 M34.2 -38.75 Q32.7 -39.35 33.3 -40.1 33.9 -40.85 35.4 -40.6 39.2 -39.9 40.2 -38.85 40.8 -38.15 40.55 -36.4 L40.45 -35.65 40.4 -34.8 40.4 -1.1 40.15 2.15 Q39.9 3.25 39.3 3.9 L38.2 3.85 Q37.75 3.1 37.75 0.65 L37.75 -14.8 31.65 -14.8 31.65 -4.2 Q31.65 -2.0 31.35 -0.9 31.15 0.15 30.5 0.85 29.85 1.45 29.45 0.75 29.0 -0.05 29.0 -2.45 L29.0 -10.05 Q25.8 -8.7 21.1 -7.3 L10.65 -4.5 10.6 -4.45 9.75 -4.2 9.1 -3.85 Q7.85 -3.25 7.0 -3.4 5.7 -3.6 3.35 -5.4 2.35 -6.2 2.5 -6.85 2.65 -7.55 3.8 -7.15 L8.1 -6.85 12.55 -7.7 12.55 -16.15 Q12.55 -17.9 11.9 -18.7 11.25 -19.55 9.45 -20.0 7.95 -20.4 8.7 -21.1 9.4 -21.8 10.6 -21.7 14.25 -21.6 15.15 -20.65 15.7 -20.1 15.35 -18.35 L15.2 -17.55 15.15 -16.65 15.15 -8.25 22.95 -9.9 29.0 -11.5 29.0 -31.85 Q29.0 -33.85 28.6 -34.55 28.0 -35.7 25.95 -36.5 24.4 -37.15 25.05 -37.9 25.7 -38.7 27.2 -38.3 30.65 -37.6 31.5 -36.6 32.05 -35.95 31.8 -34.25 L31.7 -33.5 31.65 -32.6 31.65 -16.75 37.75 -16.75 37.75 -33.85 Q37.75 -35.95 37.25 -36.75 36.6 -37.9 34.2 -38.75" fill-rule="evenodd" stroke="none"/>
    </g>
    <g id="font_HY_________11">
      <path d="M11.4 -38.75 Q12.35 -40.45 13.2 -40.45 L13.45 -40.35 13.5 -40.0 13.2 -39.05 12.5 -37.65 11.95 -36.55 11.5 -35.45 Q9.7 -31.1 8.9 -26.7 8.1 -22.55 8.1 -18.4 8.1 -14.0 8.9 -9.7 9.7 -5.4 11.5 -0.75 L12.05 0.6 12.7 1.8 13.2 2.9 13.45 3.65 13.4 4.05 13.25 4.15 Q12.7 4.15 12.15 3.45 L10.4 0.45 Q8.15 -4.25 7.05 -8.9 5.95 -13.65 5.95 -18.4 5.95 -22.25 6.8 -26.25 7.65 -30.4 9.4 -34.25 L9.65 -35.0 11.4 -38.75" fill-rule="evenodd" stroke="none"/>
    </g>
    <g id="font_HY_________12">
      <path d="M8.4 -7.95 Q7.75 -8.0 7.55 -8.45 7.35 -8.85 7.65 -9.3 7.95 -9.85 8.65 -10.15 L10.35 -10.35 Q13.85 -10.0 14.65 -9.05 15.2 -8.5 14.9 -6.7 L14.75 -5.7 14.7 -4.55 14.7 -2.05 Q14.7 -0.9 15.25 -0.3 15.8 0.25 16.85 0.25 L31.0 0.25 32.5 0.05 33.4 -0.25 35.3 -0.85 Q36.95 -1.1 40.3 -0.9 L42.85 -0.3 Q43.65 0.15 43.75 0.75 43.85 1.35 43.35 1.8 42.85 2.25 42.05 2.25 L17.2 2.25 Q14.65 2.25 13.35 1.15 12.05 0.05 12.05 -2.05 L12.05 -4.8 Q12.05 -6.2 11.35 -6.9 10.5 -7.8 8.4 -7.95 M14.85 -15.8 L11.55 -15.5 9.8 -14.85 Q8.7 -14.35 7.85 -14.45 6.5 -14.6 3.45 -15.95 2.2 -16.55 2.35 -17.35 2.5 -18.15 3.75 -17.95 L6.2 -17.75 9.9 -17.7 36.85 -17.7 38.65 -17.9 39.8 -18.35 41.75 -19.0 46.05 -18.8 Q47.05 -18.7 47.7 -18.25 L48.3 -17.2 Q48.35 -16.65 48.0 -16.25 47.6 -15.8 46.9 -15.8 L26.9 -15.8 26.9 -9.75 26.65 -6.45 Q26.4 -5.4 25.8 -4.6 25.15 -4.1 24.75 -4.7 24.3 -5.5 24.3 -7.95 L24.3 -15.8 14.85 -15.8 M25.6 -40.05 Q33.95 -40.05 38.35 -37.6 42.45 -35.3 42.45 -31.35 42.45 -27.45 38.35 -25.15 33.95 -22.65 25.6 -22.65 17.2 -22.65 12.8 -25.15 8.75 -27.45 8.75 -31.35 8.75 -35.3 12.8 -37.6 17.2 -40.05 25.6 -40.05 M39.65 -31.35 Q39.65 -34.45 36.3 -36.1 32.75 -37.9 25.6 -37.9 18.4 -37.9 14.8 -36.1 11.5 -34.45 11.5 -31.35 11.5 -28.35 14.8 -26.7 18.4 -24.9 25.6 -24.9 32.75 -24.9 36.3 -26.7 39.65 -28.35 39.65 -31.35" fill-rule="evenodd" stroke="none"/>
    </g>
    <g id="font_HY_________13">
      <path d="M13.8 -29.35 Q14.15 -31.1 13.65 -31.9 13.2 -32.6 11.2 -33.75 9.95 -34.45 10.75 -35.05 L13.3 -35.1 Q16.65 -34.1 17.35 -33.15 17.8 -32.5 17.25 -30.95 L17.0 -30.1 15.15 -24.05 12.9 -17.55 Q14.75 -15.55 16.35 -14.25 L18.75 -12.75 20.75 -11.3 Q21.65 -10.3 22.6 -8.0 L23.2 -5.75 Q23.25 -4.9 22.9 -4.5 22.55 -4.1 22.05 -4.2 21.5 -4.3 21.1 -4.8 L15.75 -11.85 12.1 -16.15 Q10.6 -12.95 8.65 -9.9 L4.5 -4.25 Q3.3 -2.95 2.9 -3.45 2.45 -3.95 3.45 -5.3 6.85 -9.95 9.8 -16.95 12.5 -23.45 13.8 -29.35 M24.95 -37.9 Q25.6 -38.65 27.15 -38.3 30.6 -37.6 31.4 -36.6 31.95 -35.95 31.7 -34.25 L31.6 -33.5 31.55 -32.6 31.55 -4.2 31.3 -0.9 Q31.05 0.15 30.4 0.85 29.75 1.45 29.4 0.75 28.95 0.0 28.95 -2.45 L28.95 -18.5 27.7 -18.5 25.15 -18.3 23.65 -17.9 21.75 -17.6 Q20.65 -17.75 18.5 -18.9 17.05 -19.65 17.2 -20.35 17.35 -21.05 18.45 -20.8 L20.75 -20.5 23.05 -20.4 28.95 -20.4 28.95 -31.75 Q28.95 -33.8 28.55 -34.55 27.95 -35.7 25.85 -36.5 24.3 -37.15 24.95 -37.9 M34.2 -38.75 Q32.7 -39.35 33.3 -40.1 33.9 -40.85 35.4 -40.6 39.2 -39.9 40.2 -38.85 40.8 -38.15 40.55 -36.4 L40.45 -35.65 40.4 -34.8 40.4 -1.1 40.15 2.15 Q39.9 3.25 39.3 3.9 L38.2 3.85 Q37.75 3.1 37.75 0.65 L37.75 -33.85 Q37.75 -35.95 37.25 -36.75 36.6 -37.9 34.2 -38.75" fill-rule="evenodd" stroke="none"/>
    </g>
    <g id="font_HY_________14">
      <path d="M5.4 -40.25 L5.65 -40.35 Q6.45 -40.35 7.35 -38.8 L9.0 -35.2 9.45 -34.2 Q11.15 -30.4 12.05 -26.2 12.9 -22.25 12.9 -18.35 12.9 -13.6 11.75 -8.8 10.65 -4.15 8.45 0.55 L6.65 3.5 Q6.15 4.2 5.65 4.2 L5.4 4.1 5.4 3.75 5.6 2.9 6.2 1.75 6.8 0.55 7.4 -0.7 Q9.1 -5.3 9.95 -9.6 10.75 -13.85 10.75 -18.35 10.75 -22.45 9.95 -26.6 9.1 -31.0 7.4 -35.35 L6.9 -36.45 6.35 -37.6 5.65 -39.0 5.4 -39.9 5.4 -40.25" fill-rule="evenodd" stroke="none"/>
    </g>
    <g id="font_HY_________15">
      <path d="M17.85 -19.85 L17.8 -18.9 17.8 -5.6 27.7 -7.55 35.05 -9.45 Q36.75 -9.9 36.85 -9.25 36.9 -8.6 35.35 -8.0 30.35 -6.35 25.2 -5.0 L11.8 -1.8 10.45 -1.4 9.55 -0.95 Q8.4 -0.35 7.5 -0.5 6.2 -0.75 3.35 -2.5 2.3 -3.15 2.5 -3.9 2.7 -4.65 3.8 -4.25 5.5 -4.0 9.05 -4.3 L15.15 -5.05 15.15 -18.45 Q15.15 -20.15 14.55 -20.95 13.85 -21.85 12.05 -22.25 10.6 -22.65 11.35 -23.35 12.05 -24.0 13.25 -24.0 16.85 -23.9 17.75 -23.0 18.35 -22.4 18.0 -20.65 L17.85 -19.85 M26.6 -34.2 L27.35 -34.45 27.9 -34.9 Q28.55 -35.5 29.0 -35.5 29.75 -35.55 30.95 -34.55 L31.8 -33.35 31.45 -32.45 30.95 -31.65 Q30.65 -31.05 30.65 -30.3 L29.75 -21.2 Q29.05 -16.0 28.25 -13.25 27.75 -11.55 27.1 -11.55 26.4 -11.6 26.65 -13.4 27.25 -16.75 27.6 -23.25 L27.85 -32.45 15.95 -32.45 13.2 -32.2 11.55 -31.7 9.65 -31.4 Q8.5 -31.5 6.2 -32.65 4.75 -33.4 4.9 -34.1 5.0 -34.8 6.1 -34.6 L8.8 -34.3 13.55 -34.2 26.6 -34.2 M34.2 -38.75 Q32.7 -39.35 33.3 -40.1 33.9 -40.85 35.4 -40.6 39.2 -39.9 40.2 -38.85 40.8 -38.15 40.55 -36.4 L40.45 -35.65 40.4 -34.8 40.4 -16.65 41.45 -16.8 42.05 -17.15 Q42.6 -17.55 43.2 -17.65 44.25 -17.9 46.45 -17.65 47.35 -17.6 47.85 -17.15 48.35 -16.7 48.3 -16.15 48.25 -15.6 47.8 -15.2 47.25 -14.75 46.45 -14.75 L40.4 -14.75 40.4 -1.1 40.15 2.15 Q39.9 3.25 39.3 3.9 L38.2 3.85 Q37.75 3.1 37.75 0.65 L37.75 -33.85 Q37.75 -35.95 37.25 -36.75 36.6 -37.9 34.2 -38.75" fill-rule="evenodd" stroke="none"/>
    </g>
    <g id="font_HY_________16">
      <path d="M20.55 -29.85 Q20.8 -29.15 20.25 -27.75 L19.6 -26.1 18.4 -22.95 16.55 -18.5 Q18.9 -15.7 20.6 -14.2 21.65 -13.3 23.15 -12.4 L25.55 -10.65 Q27.1 -9.25 29.25 -6.35 30.1 -5.25 30.3 -4.3 30.45 -3.45 30.1 -2.95 29.8 -2.5 29.2 -2.5 28.65 -2.5 28.2 -2.95 L21.55 -10.3 15.55 -16.8 Q13.55 -13.2 10.35 -9.0 7.15 -4.85 4.8 -2.75 3.45 -1.7 3.1 -2.15 2.8 -2.65 3.95 -3.85 8.85 -9.55 12.75 -17.15 15.6 -22.8 16.65 -26.65 17.1 -28.65 17.0 -29.7 16.85 -31.15 15.7 -32.7 L14.65 -32.7 12.1 -32.45 10.6 -31.9 Q9.45 -31.4 8.65 -31.5 7.4 -31.6 5.05 -32.85 3.4 -33.7 3.55 -34.5 3.65 -35.3 4.85 -35.1 L7.55 -34.7 10.15 -34.6 19.45 -34.6 21.15 -34.8 21.9 -35.2 Q22.5 -35.65 23.2 -35.75 24.35 -36.0 26.9 -35.8 L29.55 -35.25 Q30.3 -34.8 30.4 -34.2 30.5 -33.6 30.0 -33.15 29.5 -32.7 28.85 -32.7 L18.15 -32.7 Q20.25 -30.85 20.55 -29.85 M34.2 -38.75 Q32.7 -39.35 33.3 -40.1 33.9 -40.85 35.4 -40.6 39.2 -39.9 40.2 -38.85 40.8 -38.15 40.55 -36.4 L40.45 -35.65 40.4 -34.8 40.4 -18.5 41.45 -18.65 42.05 -19.0 Q42.6 -19.35 43.2 -19.5 L46.45 -19.45 Q47.35 -19.4 47.85 -18.95 48.35 -18.55 48.3 -17.95 48.25 -17.4 47.8 -17.05 47.25 -16.6 46.45 -16.6 L40.4 -16.6 40.4 -1.1 40.15 2.15 Q39.9 3.25 39.3 3.9 L38.2 3.85 Q37.75 3.1 37.75 0.65 L37.75 -33.85 Q37.75 -35.95 37.25 -36.75 36.6 -37.9 34.2 -38.75" fill-rule="evenodd" stroke="none"/>
    </g>
    <g id="font_HY_________17">
      <path d="M37.95 -6.25 L14.4 -6.25 14.4 0.1 37.95 0.1 37.95 -6.25 M25.75 -25.85 Q25.75 -30.1 23.4 -32.45 20.85 -35.0 15.7 -35.0 10.5 -35.0 7.95 -32.45 5.65 -30.1 5.65 -25.85 5.65 -21.7 7.95 -19.45 10.5 -16.95 15.7 -16.95 20.9 -16.95 23.4 -19.45 25.75 -21.7 25.75 -25.85 M25.85 -33.55 Q28.45 -30.65 28.45 -25.85 28.45 -20.75 25.45 -17.85 22.2 -14.65 15.7 -14.65 9.2 -14.65 5.9 -17.85 2.95 -20.75 2.95 -25.85 2.95 -30.9 5.7 -33.75 8.7 -36.95 14.8 -37.15 L14.85 -38.05 14.4 -38.65 Q13.5 -39.15 13.9 -39.7 14.3 -40.3 15.7 -40.3 17.3 -40.3 17.75 -39.4 18.2 -38.55 17.5 -37.1 23.05 -36.7 25.85 -33.55 M37.75 -33.85 Q37.75 -35.95 37.25 -36.75 36.6 -37.9 34.2 -38.75 32.7 -39.35 33.3 -40.1 33.9 -40.85 35.4 -40.6 39.2 -39.9 40.2 -38.85 40.8 -38.15 40.55 -36.4 L40.45 -35.65 40.4 -34.8 40.4 -18.9 40.3 -16.35 39.9 -14.7 Q40.85 -14.35 41.0 -13.7 L40.85 -12.25 40.65 -11.3 40.6 -10.15 40.6 -0.4 Q40.6 3.25 39.6 4.1 38.6 4.95 38.0 1.95 L14.2 1.95 13.65 3.85 Q13.3 4.5 12.85 4.4 12.4 4.35 12.1 3.55 11.8 2.65 11.8 1.2 L11.8 -7.8 Q11.8 -9.5 11.35 -10.2 10.8 -11.15 9.15 -11.45 8.35 -11.6 8.05 -12.05 7.8 -12.45 8.05 -12.9 L8.95 -13.7 10.7 -13.85 Q13.7 -13.6 14.4 -12.8 14.85 -12.3 14.6 -10.85 L14.45 -10.05 14.4 -9.15 14.4 -8.15 37.95 -8.15 37.95 -9.35 Q37.95 -11.1 37.55 -11.75 37.0 -12.65 35.25 -13.0 34.5 -13.2 34.15 -13.65 33.85 -14.05 34.0 -14.5 L34.8 -15.25 36.6 -15.35 37.8 -15.25 37.75 -33.85" fill-rule="evenodd" stroke="none"/>
    </g>
    <g id="font_HY_________18">
      <path d="M3.65 -31.9 Q3.0 -32.05 2.7 -32.4 2.4 -32.75 2.55 -33.15 L3.25 -33.8 4.85 -33.95 Q8.65 -33.65 9.55 -32.8 10.1 -32.3 9.65 -30.7 L9.4 -29.8 9.3 -28.75 9.3 -8.9 Q9.3 -7.85 9.5 -7.55 L10.8 -7.45 Q14.05 -7.95 21.5 -9.95 29.8 -12.2 34.55 -14.05 L36.25 -14.0 Q36.6 -13.35 35.25 -12.7 31.85 -11.1 24.2 -8.5 L11.85 -4.6 10.85 -4.25 Q8.35 -3.55 7.4 -4.45 6.7 -5.2 6.7 -7.35 L6.7 -28.4 Q6.7 -29.85 6.15 -30.6 5.45 -31.55 3.65 -31.9 M37.75 -33.85 Q37.75 -35.95 37.25 -36.75 36.6 -37.9 34.2 -38.75 32.7 -39.35 33.3 -40.1 33.9 -40.85 35.4 -40.6 39.2 -39.9 40.2 -38.85 40.8 -38.15 40.55 -36.4 L40.45 -35.65 40.4 -34.8 40.4 -1.1 40.15 2.15 Q39.9 3.25 39.3 3.9 L38.2 3.85 Q37.75 3.1 37.75 0.65 L37.75 -33.85" fill-rule="evenodd" stroke="none"/>
    </g>
    <g id="font_HY_________19">
      <path d="M29.4 -30.65 Q28.85 -30.15 28.05 -30.15 L9.65 -30.15 9.4 -29.3 9.3 -28.3 9.3 -8.5 Q9.3 -7.5 9.5 -7.2 L10.8 -7.0 21.85 -9.45 Q30.8 -11.6 35.4 -13.25 L37.1 -13.2 Q37.5 -12.5 36.15 -11.9 L23.95 -7.7 Q15.75 -5.1 10.85 -3.95 8.3 -3.35 7.35 -4.5 6.7 -5.4 6.7 -7.6 L6.7 -27.95 Q6.7 -29.4 6.15 -30.15 5.45 -31.15 3.65 -31.45 2.2 -31.85 2.55 -32.75 2.95 -33.7 4.85 -33.55 L8.5 -33.0 Q9.6 -32.65 9.85 -32.1 L18.2 -32.1 19.7 -32.25 20.55 -32.6 Q21.35 -33.05 22.1 -33.15 L26.35 -33.25 28.9 -32.7 Q29.7 -32.3 29.8 -31.65 29.9 -31.05 29.4 -30.65 M34.2 -38.75 Q32.7 -39.35 33.3 -40.1 33.9 -40.85 35.4 -40.6 39.2 -39.9 40.2 -38.85 40.8 -38.15 40.55 -36.4 L40.45 -35.65 40.4 -34.8 40.4 -18.5 41.45 -18.65 42.05 -19.0 Q42.6 -19.35 43.2 -19.5 L46.45 -19.45 Q47.35 -19.4 47.85 -18.95 48.35 -18.55 48.3 -17.95 48.25 -17.4 47.8 -17.05 47.25 -16.6 46.45 -16.6 L40.4 -16.6 40.4 -1.1 40.15 2.15 Q39.9 3.25 39.3 3.9 L38.2 3.85 Q37.75 3.1 37.75 0.65 L37.75 -33.85 Q37.75 -35.95 37.25 -36.75 36.6 -37.9 34.2 -38.75" fill-rule="evenodd" stroke="none"/>
    </g>
    <g id="font_HY________.0">
      <path d="M8.35 -5.8 Q9.65 -5.8 10.4 -5.0 11.05 -4.25 11.05 -3.0 11.05 -1.85 10.4 -1.1 9.65 -0.2 8.35 -0.2 7.05 -0.2 6.3 -1.1 5.65 -1.85 5.65 -3.0 5.65 -4.2 6.3 -5.0 7.05 -5.8 8.35 -5.8" fill-rule="evenodd" stroke="none"/>
    </g>
    <g id="font_HY_________20">
      <path d="M39.1 -34.45 Q39.8 -35.0 40.25 -35.05 41.0 -35.05 42.15 -34.0 43.0 -33.3 43.05 -32.85 L42.65 -32.0 42.15 -31.15 Q41.85 -30.55 41.85 -29.8 41.45 -23.65 40.4 -16.4 39.25 -8.6 38.15 -4.8 L38.1 -4.75 37.95 -4.4 37.75 -4.1 38.95 -4.35 39.85 -4.7 Q40.9 -5.2 41.8 -5.35 L46.05 -5.1 Q47.05 -5.0 47.7 -4.5 48.2 -4.1 48.3 -3.5 48.35 -2.9 48.0 -2.5 47.6 -2.05 46.9 -2.05 L14.85 -2.05 11.55 -1.75 9.8 -1.15 Q8.7 -0.65 7.85 -0.75 6.5 -0.9 3.45 -2.2 2.2 -2.85 2.35 -3.7 2.5 -4.5 3.75 -4.25 L6.2 -4.05 9.9 -4.0 36.45 -4.0 36.6 -5.05 38.15 -16.05 Q39.05 -24.1 39.05 -32.0 L18.75 -32.0 15.75 -31.75 13.95 -31.15 11.8 -30.75 Q10.5 -30.85 7.9 -32.15 6.45 -32.95 6.6 -33.65 6.7 -34.3 7.75 -34.2 L10.5 -33.85 15.25 -33.75 37.75 -33.75 38.5 -34.0 39.1 -34.45" fill-rule="evenodd" stroke="none"/>
    </g>
    <g id="font_HY_________21">
      <path d="M28.75 -32.35 Q28.25 -31.9 27.6 -31.9 L17.6 -31.9 Q19.5 -30.25 19.8 -29.3 20.0 -28.65 19.55 -27.35 L15.8 -16.55 Q17.6 -14.4 19.0 -13.3 L21.05 -12.05 23.4 -10.55 27.25 -6.15 28.3 -4.1 Q28.45 -3.25 28.1 -2.75 27.75 -2.25 27.2 -2.25 26.6 -2.25 26.15 -2.75 L19.65 -9.85 14.75 -14.8 Q13.1 -11.1 9.9 -7.25 7.5 -4.4 4.45 -1.7 3.15 -0.7 2.75 -1.2 2.35 -1.7 3.5 -2.85 8.65 -7.85 12.5 -16.35 14.85 -21.6 16.15 -26.65 16.6 -28.45 16.5 -29.3 16.3 -30.45 15.05 -31.9 L14.8 -31.9 12.3 -31.65 10.8 -31.1 Q9.65 -30.6 8.85 -30.65 7.65 -30.75 5.25 -32.0 3.65 -32.9 3.75 -33.7 3.9 -34.5 5.05 -34.2 L7.7 -33.85 10.35 -33.75 18.2 -33.75 19.9 -33.95 20.65 -34.35 Q21.25 -34.8 21.95 -34.95 23.1 -35.15 25.7 -35.0 L28.3 -34.45 Q29.05 -34.0 29.15 -33.4 29.2 -32.8 28.75 -32.35 M34.2 -38.75 Q32.7 -39.35 33.3 -40.1 33.9 -40.85 35.4 -40.6 39.2 -39.9 40.2 -38.85 40.8 -38.15 40.55 -36.4 L40.45 -35.65 40.4 -34.8 40.4 -1.1 40.15 2.15 Q39.9 3.25 39.3 3.9 L38.2 3.85 Q37.75 3.1 37.75 0.65 L37.75 -19.15 33.25 -19.15 30.7 -18.95 29.15 -18.55 27.25 -18.25 Q26.15 -18.4 24.0 -19.5 22.6 -20.25 22.75 -21.0 22.9 -21.7 24.0 -21.45 L26.25 -21.15 28.6 -21.1 37.75 -21.1 37.75 -33.85 Q37.75 -35.95 37.25 -36.75 36.6 -37.9 34.2 -38.75" fill-rule="evenodd" stroke="none"/>
    </g>
    <g id="font_HY_________22">
      <path d="M9.8 -1.15 Q8.7 -0.65 7.85 -0.75 6.5 -0.9 3.45 -2.2 2.2 -2.85 2.35 -3.7 2.5 -4.5 3.75 -4.25 L6.2 -4.05 9.9 -4.0 36.85 -4.0 38.65 -4.2 39.8 -4.65 41.75 -5.3 46.05 -5.1 Q47.05 -5.0 47.7 -4.5 48.2 -4.1 48.3 -3.5 48.35 -2.9 48.0 -2.5 47.6 -2.05 46.9 -2.05 L14.85 -2.05 11.55 -1.75 9.8 -1.15 M21.2 -37.55 Q21.1 -37.95 21.4 -38.35 21.8 -38.75 22.5 -38.9 L24.35 -38.75 Q26.5 -38.2 27.45 -37.55 28.4 -36.95 28.45 -36.15 28.5 -35.45 27.85 -34.3 L26.1 -31.85 24.3 -29.35 Q28.3 -27.55 31.2 -26.85 L35.25 -26.2 38.2 -25.8 Q40.0 -25.4 42.3 -24.3 L43.8 -23.1 Q44.2 -22.5 44.05 -21.95 43.9 -21.45 43.3 -21.25 L41.95 -21.15 Q36.8 -22.5 31.6 -24.35 L22.95 -27.75 Q18.45 -23.2 14.6 -20.6 10.85 -18.1 5.65 -16.15 L3.35 -16.1 Q3.3 -16.95 5.15 -17.7 11.05 -20.2 16.7 -25.6 20.95 -29.65 23.75 -33.9 24.35 -34.85 24.15 -35.4 23.85 -36.3 21.95 -36.9 21.35 -37.1 21.2 -37.55" fill-rule="evenodd" stroke="none"/>
    </g>
    <g id="font_HY_________23">
      <path d="M20.3 -27.25 L21.05 -27.65 22.35 -28.2 Q23.5 -28.4 26.1 -28.2 L28.65 -27.65 Q29.45 -27.2 29.5 -26.6 29.6 -26.0 29.1 -25.55 28.65 -25.1 28.0 -25.1 L17.45 -25.1 Q19.2 -23.45 19.35 -22.35 19.45 -21.6 18.75 -20.2 L18.55 -19.75 15.25 -13.45 Q17.1 -11.85 18.5 -10.95 L20.55 -9.8 22.9 -8.4 26.85 -4.5 Q27.75 -3.45 28.0 -2.45 28.2 -1.65 27.85 -1.1 27.55 -0.65 26.95 -0.6 26.35 -0.55 25.9 -0.95 L23.55 -3.35 18.85 -8.05 14.45 -11.9 Q11.95 -7.95 9.25 -4.9 7.25 -2.7 4.25 -0.05 2.95 1.05 2.6 0.55 2.2 0.05 3.35 -1.1 7.3 -5.5 10.6 -10.7 13.9 -15.95 15.8 -20.8 L15.95 -22.75 Q15.8 -23.95 15.15 -25.1 L13.2 -25.1 11.05 -24.85 9.75 -24.35 Q8.75 -23.85 7.95 -23.9 6.7 -24.05 4.3 -25.3 2.75 -26.15 2.85 -26.95 3.0 -27.7 4.2 -27.5 L6.85 -27.15 9.45 -27.05 18.6 -27.05 20.3 -27.25 M23.95 -37.7 L25.45 -37.25 Q25.9 -36.8 25.8 -36.15 25.7 -35.55 25.15 -35.05 24.65 -34.55 23.95 -34.55 L12.65 -34.55 Q10.9 -34.55 9.2 -35.2 7.5 -35.8 6.9 -36.6 5.95 -37.75 6.45 -38.15 L8.0 -38.2 12.25 -37.8 16.45 -37.7 23.95 -37.7 M34.2 -38.75 Q32.7 -39.35 33.3 -40.1 33.9 -40.85 35.4 -40.6 39.2 -39.9 40.2 -38.85 40.8 -38.15 40.55 -36.4 L40.45 -35.65 40.4 -34.8 40.4 -1.1 40.15 2.15 Q39.9 3.25 39.3 3.9 L38.2 3.85 Q37.75 3.1 37.75 0.65 L37.75 -9.0 34.45 -9.0 31.9 -8.8 30.4 -8.4 28.5 -8.1 Q27.4 -8.3 25.25 -9.45 23.8 -10.2 23.95 -10.9 24.05 -11.6 25.15 -11.4 L27.45 -11.05 29.8 -10.95 37.75 -10.95 37.75 -19.25 33.85 -19.25 31.3 -19.05 29.8 -18.65 27.9 -18.4 Q26.8 -18.55 24.65 -19.65 23.2 -20.45 23.35 -21.15 23.5 -21.85 24.6 -21.65 L26.9 -21.3 29.25 -21.15 37.75 -21.15 37.75 -33.85 Q37.75 -35.95 37.25 -36.75 36.6 -37.9 34.2 -38.75" fill-rule="evenodd" stroke="none"/>
    </g>
    <g id="font_HY_________24">
      <path d="M20.55 -29.85 Q20.8 -29.15 20.25 -27.75 L19.6 -26.1 18.4 -22.95 16.55 -18.5 Q18.9 -15.7 20.6 -14.2 21.65 -13.3 23.15 -12.4 L25.55 -10.65 Q27.1 -9.25 29.25 -6.35 30.1 -5.25 30.3 -4.3 30.45 -3.45 30.1 -2.95 29.8 -2.5 29.2 -2.5 28.65 -2.5 28.2 -2.95 L21.55 -10.3 15.55 -16.8 Q13.55 -13.2 10.35 -9.0 7.15 -4.85 4.8 -2.75 3.45 -1.7 3.1 -2.15 2.8 -2.65 3.95 -3.85 8.85 -9.55 12.75 -17.15 15.6 -22.8 16.65 -26.65 17.1 -28.65 17.0 -29.7 16.85 -31.15 15.7 -32.7 L14.65 -32.7 12.1 -32.45 10.6 -31.9 Q9.45 -31.4 8.65 -31.5 7.4 -31.6 5.05 -32.85 3.4 -33.7 3.55 -34.5 3.65 -35.3 4.85 -35.1 L7.55 -34.7 10.15 -34.6 19.45 -34.6 21.15 -34.8 21.9 -35.2 Q22.5 -35.65 23.2 -35.75 24.35 -36.0 26.9 -35.8 L29.55 -35.25 Q30.3 -34.8 30.4 -34.2 30.5 -33.6 30.0 -33.15 29.5 -32.7 28.85 -32.7 L18.15 -32.7 Q20.25 -30.85 20.55 -29.85 M34.2 -38.75 Q32.7 -39.35 33.3 -40.1 33.9 -40.85 35.4 -40.6 39.2 -39.9 40.2 -38.85 40.8 -38.15 40.55 -36.4 L40.45 -35.65 40.4 -34.8 40.4 -1.1 40.15 2.15 Q39.9 3.25 39.3 3.9 L38.2 3.85 Q37.75 3.1 37.75 0.65 L37.75 -33.85 Q37.75 -35.95 37.25 -36.75 36.6 -37.9 34.2 -38.75" fill-rule="evenodd" stroke="none"/>
    </g>
    <g id="font_HY_________25">
      <path d="M3.65 -31.9 Q3.0 -32.05 2.7 -32.4 2.4 -32.75 2.55 -33.15 L3.25 -33.8 4.85 -33.95 Q8.65 -33.65 9.55 -32.8 10.1 -32.3 9.65 -30.7 L9.4 -29.8 9.3 -28.75 9.3 -8.9 Q9.3 -7.85 9.5 -7.55 L10.8 -7.45 Q14.05 -7.95 21.5 -9.95 29.8 -12.2 34.55 -14.05 L36.25 -14.0 Q36.6 -13.35 35.25 -12.7 31.85 -11.1 24.2 -8.5 L11.85 -4.6 10.85 -4.25 Q8.35 -3.55 7.4 -4.45 6.7 -5.2 6.7 -7.35 L6.7 -28.4 Q6.7 -29.85 6.15 -30.6 5.45 -31.55 3.65 -31.9 M37.75 -33.85 Q37.75 -35.95 37.25 -36.75 36.6 -37.9 34.2 -38.75 32.7 -39.35 33.3 -40.1 33.9 -40.85 35.4 -40.6 39.2 -39.9 40.2 -38.85 40.8 -38.15 40.55 -36.4 L40.45 -35.65 40.4 -34.8 40.4 -18.5 41.45 -18.65 42.05 -19.0 Q42.6 -19.35 43.2 -19.5 L46.45 -19.45 Q47.35 -19.4 47.85 -18.95 48.35 -18.55 48.3 -17.95 48.25 -17.4 47.8 -17.05 47.25 -16.6 46.45 -16.6 L40.4 -16.6 40.4 -1.1 40.15 2.15 Q39.9 3.25 39.3 3.9 L38.2 3.85 Q37.75 3.1 37.75 0.65 L37.75 -33.85" fill-rule="evenodd" stroke="none"/>
    </g>
    <g id="font_HY_________26">
      <path d="M19.65 -12.75 L16.7 -12.5 Q15.95 -12.3 14.95 -11.9 L12.8 -11.5 Q11.45 -11.65 8.85 -12.95 7.4 -13.7 7.5 -14.4 7.6 -15.1 8.7 -14.9 L11.45 -14.65 16.2 -14.55 36.55 -14.55 37.45 -14.8 38.1 -15.3 Q38.7 -15.8 39.15 -15.8 39.8 -15.8 40.95 -14.8 L41.9 -13.6 41.45 -12.8 41.0 -12.25 40.6 -11.4 40.15 -9.7 39.9 -7.75 Q41.65 -7.35 41.55 -6.2 41.4 -5.1 39.75 -5.1 L14.0 -5.1 13.8 -4.35 13.8 -3.5 13.8 -0.55 14.0 0.45 15.2 0.7 31.0 0.7 32.5 0.5 33.4 0.15 Q34.3 -0.35 35.3 -0.5 36.95 -0.75 40.35 -0.5 L42.85 0.05 Q43.65 0.5 43.75 1.15 43.85 1.75 43.35 2.15 42.8 2.65 42.0 2.65 L15.0 2.65 Q12.95 2.65 12.0 1.85 11.1 1.1 11.1 -0.55 L11.1 -3.25 Q11.1 -4.1 10.5 -4.7 9.7 -5.5 8.05 -5.65 7.4 -5.75 7.2 -6.1 7.0 -6.45 7.3 -6.85 L8.25 -7.6 9.95 -7.9 12.65 -7.7 Q13.5 -7.45 13.85 -7.0 L33.65 -7.0 35.75 -7.2 36.9 -7.55 37.85 -7.8 37.85 -12.75 19.65 -12.75 M25.75 -27.25 Q25.75 -31.5 23.4 -33.75 20.9 -36.15 15.7 -36.15 10.5 -36.15 7.95 -33.75 5.65 -31.5 5.65 -27.25 5.65 -23.15 7.95 -20.95 10.5 -18.5 15.7 -18.5 20.9 -18.5 23.4 -20.95 25.75 -23.15 25.75 -27.25 M25.85 -34.9 Q28.45 -32.1 28.45 -27.25 28.45 -22.15 25.45 -19.4 22.2 -16.3 15.7 -16.3 9.15 -16.3 5.9 -19.4 2.95 -22.2 2.95 -27.25 2.95 -32.25 5.7 -35.1 8.7 -38.15 14.8 -38.4 L14.85 -39.25 14.4 -39.8 Q13.5 -40.3 13.9 -40.85 14.3 -41.45 15.7 -41.45 17.25 -41.45 17.7 -40.55 18.2 -39.7 17.5 -38.3 23.05 -37.95 25.85 -34.9 M37.75 -33.85 Q37.75 -35.95 37.25 -36.75 36.6 -37.9 34.2 -38.75 32.7 -39.35 33.3 -40.1 33.9 -40.85 35.4 -40.6 39.2 -39.9 40.2 -38.85 40.8 -38.15 40.55 -36.4 L40.45 -35.65 40.4 -34.8 40.4 -22.15 40.15 -18.85 Q39.9 -17.8 39.3 -17.15 L38.2 -17.2 Q37.75 -17.95 37.75 -20.35 L37.75 -33.85" fill-rule="evenodd" stroke="none"/>
    </g>
    <g id="font_HY_________27">
      <path d="M9.8 -4.75 Q9.8 -8.75 13.7 -10.95 17.8 -13.25 25.6 -13.25 33.35 -13.25 37.45 -10.95 41.4 -8.75 41.4 -4.75 41.4 -0.8 37.45 1.45 33.35 3.8 25.6 3.8 17.8 3.8 13.7 1.45 9.8 -0.8 9.8 -4.75 M15.7 -9.4 Q12.55 -7.85 12.55 -4.75 12.55 -1.65 15.7 -0.1 18.95 1.5 25.6 1.5 32.15 1.5 35.35 -0.1 38.55 -1.65 38.55 -4.75 38.55 -7.85 35.35 -9.4 32.15 -10.95 25.6 -10.95 18.95 -10.95 15.7 -9.4 M21.55 -35.75 L21.0 -34.4 20.85 -34.0 19.6 -31.8 18.5 -29.9 16.95 -27.2 Q18.8 -25.45 20.55 -24.45 21.55 -23.85 23.3 -23.15 25.15 -22.45 26.15 -21.75 27.75 -20.6 29.55 -18.2 L30.7 -16.05 Q30.9 -15.2 30.6 -14.7 30.35 -14.25 29.8 -14.2 29.25 -14.2 28.8 -14.65 L23.5 -19.5 17.95 -24.3 16.15 -25.85 Q13.05 -21.8 10.15 -18.85 7.5 -16.25 4.75 -14.3 3.3 -13.35 2.95 -13.85 2.55 -14.4 3.85 -15.35 8.35 -19.35 12.25 -24.95 15.5 -29.65 17.65 -34.5 18.0 -35.45 17.5 -36.05 L15.05 -37.75 Q14.45 -38.05 14.35 -38.45 14.3 -38.8 14.6 -39.1 L15.6 -39.45 17.2 -39.15 20.1 -37.95 21.4 -36.85 Q21.7 -36.4 21.55 -35.75 M35.4 -40.6 Q39.2 -39.9 40.2 -38.85 40.8 -38.15 40.55 -36.4 L40.45 -35.65 40.4 -34.8 40.4 -23.15 41.45 -23.3 42.05 -23.6 Q42.6 -24.0 43.2 -24.1 L46.45 -24.0 Q47.35 -23.95 47.85 -23.5 48.35 -23.05 48.3 -22.5 48.25 -21.95 47.8 -21.55 47.25 -21.1 46.45 -21.1 L40.4 -21.1 40.4 -18.9 40.15 -15.65 Q39.9 -14.6 39.3 -13.85 38.6 -13.35 38.2 -13.95 37.75 -14.7 37.75 -17.2 L37.75 -33.85 Q37.75 -35.95 37.25 -36.75 36.6 -37.9 34.2 -38.75 32.7 -39.35 33.3 -40.1 33.9 -40.85 35.4 -40.6" fill-rule="evenodd" stroke="none"/>
    </g>
    <g id="font_HY_________28">
      <path d="M7.2 -10.5 Q7.3 -11.2 8.4 -10.95 L11.15 -10.7 15.9 -10.65 36.55 -10.65 37.3 -10.9 37.9 -11.35 Q38.6 -11.9 39.05 -11.9 39.8 -11.95 40.95 -10.9 L41.8 -9.7 41.3 -8.85 40.75 -8.1 40.5 -6.95 40.5 -1.0 40.25 2.3 Q40.0 3.4 39.35 4.1 38.7 4.65 38.3 4.0 37.85 3.25 37.85 0.8 L37.85 -8.85 19.35 -8.85 16.4 -8.6 14.65 -8.0 Q13.35 -7.5 12.5 -7.55 11.15 -7.7 8.55 -9.05 7.05 -9.75 7.2 -10.5 M26.9 -38.4 L29.55 -37.85 Q30.3 -37.4 30.4 -36.8 30.5 -36.2 30.0 -35.75 29.5 -35.3 28.85 -35.3 L18.6 -35.3 Q20.05 -33.9 20.1 -32.7 20.1 -32.0 19.35 -30.5 L19.3 -30.35 16.95 -26.05 Q18.85 -24.85 20.45 -24.0 L22.9 -22.8 25.7 -21.4 29.8 -18.4 Q30.9 -17.5 31.3 -16.65 31.6 -15.85 31.4 -15.3 L30.6 -14.7 Q30.05 -14.6 29.55 -15.0 L25.95 -17.7 21.9 -20.6 16.15 -24.7 10.15 -17.4 Q7.25 -14.25 4.75 -12.45 3.3 -11.55 2.95 -12.05 2.55 -12.5 3.85 -13.55 8.3 -17.5 12.15 -23.35 15.35 -28.25 16.9 -32.45 17.1 -33.15 16.9 -33.9 L16.2 -35.3 14.65 -35.3 12.55 -35.05 11.3 -34.55 Q10.25 -34.0 9.45 -34.1 8.25 -34.2 5.85 -35.4 4.2 -36.3 4.35 -37.1 4.45 -37.9 5.65 -37.7 L8.35 -37.25 10.9 -37.15 19.45 -37.15 21.15 -37.35 21.9 -37.75 23.2 -38.35 Q24.35 -38.55 26.9 -38.4 M34.2 -38.75 Q32.7 -39.35 33.3 -40.1 33.9 -40.85 35.4 -40.6 39.2 -39.9 40.2 -38.85 40.8 -38.15 40.55 -36.4 L40.45 -35.65 40.4 -34.8 40.4 -23.15 41.45 -23.3 42.05 -23.6 Q42.6 -24.0 43.2 -24.1 L46.45 -24.0 Q47.35 -23.95 47.85 -23.5 48.35 -23.05 48.3 -22.5 48.25 -21.95 47.8 -21.55 47.25 -21.1 46.45 -21.1 L40.4 -21.1 40.4 -18.9 40.15 -15.65 Q39.9 -14.6 39.3 -13.85 38.6 -13.35 38.2 -13.95 37.75 -14.7 37.75 -17.2 L37.75 -33.85 Q37.75 -35.95 37.25 -36.75 36.6 -37.9 34.2 -38.75" fill-rule="evenodd" stroke="none"/>
    </g>
    <g id="font_HY_________29">
      <path d="M8.4 -7.95 Q7.75 -8.0 7.55 -8.45 7.35 -8.85 7.65 -9.3 7.95 -9.85 8.65 -10.15 L10.35 -10.35 Q13.85 -10.0 14.65 -9.05 15.2 -8.5 14.9 -6.7 L14.75 -5.7 14.7 -4.55 14.7 -2.05 Q14.7 -0.9 15.25 -0.3 15.8 0.25 16.85 0.25 L31.0 0.25 32.5 0.05 33.4 -0.25 35.3 -0.85 Q36.95 -1.1 40.3 -0.9 L42.85 -0.3 Q43.65 0.15 43.75 0.75 43.85 1.35 43.35 1.8 42.85 2.25 42.05 2.25 L17.2 2.25 Q14.65 2.25 13.35 1.15 12.05 0.05 12.05 -2.05 L12.05 -4.8 Q12.05 -6.2 11.35 -6.9 10.5 -7.8 8.4 -7.95 M14.85 -14.45 L11.55 -14.15 9.8 -13.5 Q8.7 -13.0 7.85 -13.1 6.5 -13.3 3.45 -14.65 2.2 -15.25 2.35 -16.05 2.5 -16.9 3.75 -16.65 L6.2 -16.45 9.9 -16.4 36.85 -16.4 38.65 -16.6 39.8 -17.05 41.75 -17.7 46.05 -17.55 Q47.05 -17.45 47.7 -16.95 L48.3 -15.9 Q48.35 -15.3 48.0 -14.9 47.6 -14.45 46.9 -14.45 L14.85 -14.45 M25.6 -39.4 Q33.9 -39.4 38.35 -36.85 42.45 -34.45 42.45 -30.35 42.45 -26.25 38.35 -23.9 33.95 -21.3 25.6 -21.3 17.15 -21.3 12.8 -23.9 8.75 -26.25 8.75 -30.35 8.75 -34.45 12.8 -36.85 17.2 -39.4 25.6 -39.4 M39.65 -30.35 Q39.65 -33.55 36.3 -35.25 32.7 -37.15 25.6 -37.15 18.4 -37.15 14.8 -35.25 11.5 -33.55 11.5 -30.35 11.5 -27.1 14.8 -25.35 18.4 -23.45 25.6 -23.45 32.75 -23.45 36.3 -25.35 39.65 -27.15 39.65 -30.35" fill-rule="evenodd" stroke="none"/>
    </g>
    <g id="font_HY_________30">
      <path d="M14.85 -19.15 L11.55 -18.85 9.8 -18.25 Q8.7 -17.75 7.85 -17.85 6.5 -18.0 3.45 -19.35 2.2 -19.95 2.35 -20.8 2.5 -21.6 3.75 -21.4 L6.25 -21.15 10.05 -21.1 36.85 -21.1 38.65 -21.3 39.8 -21.75 41.75 -22.4 46.05 -22.25 Q47.05 -22.15 47.7 -21.65 L48.3 -20.6 Q48.35 -20.0 48.0 -19.6 47.6 -19.15 46.9 -19.15 L14.85 -19.15 M11.45 -13.0 L16.2 -12.9 36.55 -12.9 37.45 -13.15 38.1 -13.65 Q38.7 -14.15 39.15 -14.15 39.8 -14.15 40.95 -13.15 L41.9 -11.9 41.45 -11.15 41.0 -10.6 40.6 -9.75 39.9 -6.75 Q41.65 -6.3 41.55 -5.2 41.4 -4.05 39.75 -4.05 L14.0 -4.05 13.8 -3.3 13.8 -2.5 13.8 -0.2 14.0 0.8 15.2 1.05 31.0 1.05 32.5 0.85 33.4 0.5 Q34.3 0.0 35.3 -0.1 36.95 -0.4 40.35 -0.15 41.95 -0.1 42.85 0.4 43.65 0.85 43.75 1.5 43.85 2.1 43.35 2.5 42.8 3.0 42.0 3.0 L15.0 3.0 Q12.95 3.0 12.0 2.2 11.1 1.45 11.1 -0.2 L11.1 -2.2 Q11.1 -3.05 10.5 -3.65 9.7 -4.4 8.05 -4.55 7.4 -4.65 7.2 -5.05 7.0 -5.4 7.3 -5.8 L8.25 -6.55 9.95 -6.85 12.65 -6.65 Q13.5 -6.4 13.85 -5.95 L33.65 -5.95 35.8 -6.15 37.0 -6.55 37.85 -6.8 37.85 -11.1 19.65 -11.1 16.7 -10.85 Q15.95 -10.65 14.95 -10.25 L12.8 -9.8 Q11.45 -9.95 8.85 -11.3 7.4 -12.0 7.5 -12.75 7.6 -13.45 8.7 -13.25 L11.45 -13.0 M31.9 -38.3 L32.75 -38.65 34.45 -39.2 Q36.0 -39.45 39.3 -39.3 40.95 -39.25 41.8 -38.8 42.6 -38.35 42.65 -37.7 42.75 -37.15 42.25 -36.7 41.8 -36.2 41.15 -36.2 L26.6 -36.2 Q27.2 -35.0 27.05 -34.3 26.9 -33.75 25.85 -32.7 29.1 -31.2 31.3 -30.55 L34.25 -29.85 36.7 -29.3 Q38.25 -28.8 40.65 -27.5 L42.2 -26.2 42.8 -24.85 Q42.85 -24.15 42.3 -24.0 41.7 -23.8 40.6 -24.3 L32.6 -27.9 24.3 -31.3 Q19.65 -28.35 15.35 -26.6 11.0 -24.9 6.65 -24.3 4.85 -24.1 4.65 -24.7 4.45 -25.3 6.0 -25.6 10.1 -26.6 14.55 -28.55 19.8 -30.9 23.05 -33.7 23.7 -34.35 23.8 -34.95 L23.7 -36.2 19.1 -36.2 16.2 -35.95 14.5 -35.4 12.45 -35.0 Q11.2 -35.15 8.85 -36.4 7.3 -37.25 7.45 -38.0 7.55 -38.75 8.75 -38.55 L11.4 -38.25 14.05 -38.15 30.25 -38.15 31.9 -38.3" fill-rule="evenodd" stroke="none"/>
    </g>
    <g id="font_HY_________31">
      <path d="M24.3 -33.15 Q24.45 -33.15 24.65 -33.3 L25.05 -33.65 26.2 -34.4 Q27.0 -34.5 28.0 -33.5 28.85 -32.6 28.7 -31.9 L27.8 -30.65 27.15 -29.95 26.6 -29.05 Q21.55 -17.75 16.5 -11.45 11.55 -5.25 4.05 -0.75 3.0 -0.15 2.65 -0.85 2.3 -1.6 3.35 -2.15 10.6 -6.65 16.05 -14.6 20.65 -21.25 24.6 -31.35 L14.7 -31.35 12.1 -31.1 10.6 -30.65 Q9.55 -30.2 8.85 -30.3 7.8 -30.45 5.65 -31.6 4.25 -32.35 4.35 -33.05 4.45 -33.75 5.6 -33.5 L8.0 -33.25 10.35 -33.15 24.3 -33.15 M34.2 -38.75 Q32.7 -39.35 33.3 -40.1 33.9 -40.85 35.4 -40.6 39.2 -39.9 40.2 -38.85 40.8 -38.15 40.55 -36.4 L40.45 -35.65 40.4 -34.8 40.4 -1.1 40.15 2.15 Q39.9 3.25 39.3 3.9 L38.2 3.85 Q37.75 3.1 37.75 0.65 L37.75 -16.95 34.1 -16.95 31.6 -16.75 30.05 -16.35 28.15 -16.05 Q27.05 -16.2 24.9 -17.35 23.5 -18.1 23.65 -18.8 23.75 -19.45 24.85 -19.25 L27.15 -18.9 29.5 -18.8 37.75 -18.8 37.75 -33.85 Q37.75 -35.95 37.25 -36.75 36.6 -37.9 34.2 -38.75" fill-rule="evenodd" stroke="none"/>
    </g>
    <g id="font_HY_________32">
      <path d="M37.85 -0.45 L37.85 -8.9 13.75 -8.9 13.75 0.0 33.9 0.0 36.1 -0.15 37.85 -0.45 M14.85 -18.25 L11.55 -17.95 9.8 -17.35 Q8.7 -16.85 7.85 -16.95 6.5 -17.15 3.45 -18.5 2.2 -19.1 2.35 -19.9 2.5 -20.7 3.75 -20.5 L5.95 -20.3 9.15 -20.25 36.85 -20.25 38.65 -20.45 39.8 -20.9 41.75 -21.55 46.05 -21.4 Q47.05 -21.3 47.7 -20.75 L48.3 -19.7 Q48.35 -19.1 48.0 -18.7 47.6 -18.25 46.9 -18.25 L26.9 -18.25 26.9 -15.25 26.75 -12.45 26.3 -10.8 37.1 -10.8 Q37.6 -10.8 37.95 -11.05 L38.5 -11.5 39.35 -11.95 Q39.95 -12.0 41.15 -11.35 42.15 -10.75 42.2 -10.2 L41.7 -9.2 41.2 -8.45 40.85 -7.4 39.95 -1.0 Q41.15 -0.75 41.75 -0.25 42.3 0.2 42.25 0.75 42.2 1.2 41.75 1.55 41.25 1.9 40.6 1.9 L13.75 1.9 Q13.5 4.2 12.45 4.45 11.35 4.65 11.3 1.75 L11.1 -7.55 Q11.1 -8.3 10.55 -8.7 9.9 -9.2 8.55 -9.2 7.75 -9.2 7.5 -9.6 7.25 -9.9 7.5 -10.35 L8.4 -11.15 9.8 -11.5 11.25 -11.4 12.35 -11.1 13.05 -10.9 13.8 -10.8 24.5 -10.8 24.35 -11.95 24.3 -13.5 24.3 -18.25 14.85 -18.25 M25.6 -40.25 Q33.95 -40.25 38.35 -38.0 42.45 -35.85 42.45 -32.15 42.45 -28.5 38.35 -26.35 33.95 -24.05 25.6 -24.05 17.15 -24.05 12.8 -26.35 8.75 -28.5 8.75 -32.15 8.75 -35.85 12.8 -38.0 17.15 -40.25 25.6 -40.25 M39.65 -32.15 Q39.65 -35.0 36.3 -36.45 32.75 -38.0 25.6 -38.0 18.35 -38.0 14.8 -36.45 11.5 -35.0 11.5 -32.15 11.5 -29.35 14.8 -27.9 18.3 -26.35 25.6 -26.35 32.8 -26.35 36.3 -27.9 39.65 -29.35 39.65 -32.15" fill-rule="evenodd" stroke="none"/>
    </g>
    <g id="font_HY_________33">
      <path d="M19.3 -24.85 Q17.3 -27.6 13.25 -27.6 9.25 -27.6 7.25 -24.85 5.5 -22.35 5.5 -17.9 5.5 -13.5 7.25 -11.05 9.25 -8.25 13.25 -8.25 17.3 -8.25 19.3 -11.05 21.1 -13.5 21.1 -17.9 21.1 -22.35 19.3 -24.85 M25.15 -37.9 Q25.75 -38.65 27.25 -38.3 30.7 -37.6 31.55 -36.6 32.15 -35.95 31.85 -34.3 L31.75 -33.5 31.7 -32.6 31.7 -4.2 31.45 -0.9 Q31.25 0.15 30.6 0.85 29.9 1.4 29.5 0.75 29.05 0.0 29.05 -2.45 L29.05 -18.7 28.2 -18.7 26.9 -18.6 26.0 -18.3 25.05 -18.0 23.95 -18.05 23.95 -17.9 Q23.95 -12.65 21.4 -9.5 18.6 -6.0 13.25 -6.0 7.9 -6.0 5.15 -9.5 2.7 -12.65 2.7 -17.9 2.7 -23.0 4.95 -26.1 7.45 -29.5 12.35 -29.75 L12.4 -30.65 11.95 -31.3 Q11.1 -31.8 11.5 -32.35 11.9 -32.9 13.25 -32.9 14.85 -32.9 15.35 -32.05 15.8 -31.15 15.0 -29.7 18.8 -29.3 21.05 -26.8 23.1 -24.5 23.7 -20.75 L24.95 -20.6 26.1 -20.55 29.05 -20.55 29.05 -32.1 Q29.05 -33.95 28.65 -34.65 28.1 -35.7 26.05 -36.5 24.55 -37.15 25.15 -37.9 M34.2 -38.75 Q32.7 -39.35 33.3 -40.1 33.9 -40.85 35.4 -40.6 39.2 -39.9 40.2 -38.85 40.8 -38.15 40.55 -36.4 L40.45 -35.65 40.4 -34.8 40.4 -1.1 40.15 2.15 Q39.9 3.25 39.3 3.9 L38.2 3.85 Q37.75 3.1 37.75 0.65 L37.75 -33.85 Q37.75 -35.95 37.25 -36.75 36.6 -37.9 34.2 -38.75" fill-rule="evenodd" stroke="none"/>
    </g>
    <g id="font_HY_________34">
      <path d="M26.9 -3.55 Q25.4 -2.8 25.4 -1.25 25.4 0.25 26.9 1.0 28.55 1.8 32.15 1.8 35.7 1.8 37.4 1.0 39.05 0.2 39.05 -1.25 39.05 -2.8 37.4 -3.55 35.7 -4.35 32.15 -4.35 28.55 -4.35 26.9 -3.55 M22.55 -1.25 Q22.55 -3.7 24.8 -5.1 27.3 -6.6 32.15 -6.6 36.95 -6.6 39.45 -5.1 41.75 -3.7 41.75 -1.25 41.75 1.15 39.45 2.55 36.95 4.1 32.15 4.1 27.3 4.1 24.8 2.55 22.55 1.15 22.55 -1.25 M37.7 -16.75 Q38.8 -16.75 39.3 -16.3 39.75 -15.85 39.65 -15.2 L39.0 -14.1 Q38.4 -13.6 37.7 -13.6 L30.55 -13.6 Q28.85 -13.6 27.15 -14.25 25.5 -14.85 24.85 -15.65 23.85 -16.85 24.4 -17.2 L26.0 -17.25 29.25 -16.8 32.75 -16.75 37.7 -16.75 M19.55 -8.9 Q18.0 -9.75 18.2 -10.55 18.4 -11.35 19.6 -11.15 L21.85 -10.8 24.0 -10.7 34.45 -10.7 36.3 -10.95 37.05 -11.4 38.0 -11.85 Q38.85 -12.05 40.6 -11.85 42.5 -11.8 43.55 -11.3 44.45 -10.85 44.5 -10.25 44.6 -9.65 44.0 -9.2 43.35 -8.75 42.45 -8.75 L27.85 -8.75 25.7 -8.5 24.55 -8.0 Q23.7 -7.5 23.0 -7.55 21.95 -7.7 19.55 -8.9 M5.35 -12.8 L6.95 -12.95 Q10.75 -12.65 11.65 -11.8 12.2 -11.3 11.75 -9.85 L11.5 -9.05 11.4 -8.15 11.4 -1.4 Q11.4 -0.4 11.65 -0.2 11.9 0.0 12.9 -0.2 L16.6 -1.4 20.5 -2.95 21.1 -3.15 22.65 -3.25 Q22.9 -2.75 21.65 -1.9 L17.6 0.4 12.9 2.55 Q10.3 3.55 9.4 2.9 8.75 2.4 8.75 0.55 L8.75 -7.75 Q8.75 -8.95 8.2 -9.65 7.5 -10.55 5.7 -10.9 5.05 -11.05 4.75 -11.4 4.5 -11.75 4.65 -12.15 L5.35 -12.8 M25.85 -34.9 Q28.45 -32.1 28.45 -27.25 28.45 -22.15 25.45 -19.4 22.2 -16.3 15.7 -16.3 9.15 -16.3 5.9 -19.4 2.95 -22.2 2.95 -27.25 2.95 -32.25 5.7 -35.1 8.7 -38.15 14.8 -38.4 L14.85 -39.25 14.4 -39.8 Q13.5 -40.3 13.9 -40.85 14.3 -41.45 15.7 -41.45 17.25 -41.45 17.7 -40.55 18.2 -39.7 17.5 -38.3 23.05 -37.95 25.85 -34.9 M25.75 -27.25 Q25.75 -31.5 23.4 -33.75 20.9 -36.15 15.7 -36.15 10.5 -36.15 7.95 -33.75 5.65 -31.5 5.65 -27.25 5.65 -23.15 7.95 -20.95 10.5 -18.5 15.7 -18.5 20.9 -18.5 23.4 -20.95 25.75 -23.15 25.75 -27.25 M35.4 -40.6 Q39.2 -39.9 40.2 -38.85 40.8 -38.15 40.55 -36.4 L40.45 -35.65 40.4 -34.8 40.4 -25.35 41.45 -25.5 42.05 -25.85 Q42.6 -26.25 43.2 -26.35 44.25 -26.6 46.45 -26.35 47.35 -26.3 47.85 -25.8 48.35 -25.4 48.3 -24.85 48.25 -24.3 47.8 -23.9 47.25 -23.45 46.45 -23.45 L40.4 -23.45 40.4 -22.0 40.15 -18.75 Q39.9 -17.7 39.3 -17.0 L38.2 -17.05 Q37.75 -17.85 37.75 -20.25 L37.75 -33.85 Q37.75 -35.95 37.25 -36.75 36.6 -37.9 34.2 -38.75 32.7 -39.35 33.3 -40.1 33.9 -40.85 35.4 -40.6" fill-rule="evenodd" stroke="none"/>
    </g>
    <g id="font_HY_________35">
      <path d="M37.95 -4.8 L14.4 -4.8 14.4 0.1 37.95 0.1 37.95 -4.8 M9.15 -9.65 Q8.35 -9.8 8.05 -10.25 7.8 -10.65 8.05 -11.1 L8.95 -11.85 10.7 -12.05 Q13.7 -11.8 14.4 -11.05 14.9 -10.6 14.6 -9.3 L14.45 -8.7 14.4 -8.0 14.4 -6.75 37.95 -6.75 37.95 -7.95 Q37.95 -9.7 37.55 -10.35 37.0 -11.3 35.25 -11.6 34.5 -11.8 34.15 -12.25 33.85 -12.65 34.0 -13.1 L34.8 -13.85 36.6 -14.0 Q39.9 -13.35 40.65 -12.65 41.15 -12.15 40.85 -10.75 L40.65 -9.85 40.6 -8.75 40.6 0.1 Q40.6 3.4 39.6 4.15 38.6 4.9 38.0 2.0 L14.2 2.0 Q13.9 4.6 12.85 4.45 11.8 4.3 11.8 1.45 L11.8 -6.05 Q11.8 -8.05 11.35 -8.65 10.9 -9.35 9.15 -9.65 M14.85 -17.45 L11.55 -17.15 9.8 -16.55 Q8.7 -16.05 7.85 -16.15 6.5 -16.3 3.45 -17.65 2.2 -18.25 2.35 -19.05 2.5 -19.8 3.75 -19.55 L6.2 -19.35 9.9 -19.3 36.85 -19.3 38.7 -19.55 39.9 -20.05 41.9 -20.7 46.05 -20.55 Q47.05 -20.4 47.7 -19.9 L48.3 -18.85 Q48.35 -18.3 48.0 -17.9 47.6 -17.45 46.9 -17.45 L14.85 -17.45 M25.3 -38.0 Q25.25 -38.8 23.5 -39.55 L22.75 -40.2 Q22.55 -40.6 22.85 -40.9 23.15 -41.25 23.8 -41.3 L25.6 -41.05 Q30.05 -39.85 29.8 -38.1 29.6 -36.75 26.15 -34.5 29.55 -32.9 31.9 -32.25 L35.25 -31.7 37.95 -31.3 Q39.65 -30.85 41.95 -29.75 43.0 -29.25 43.4 -28.6 43.75 -28.05 43.45 -27.55 43.2 -27.1 42.55 -26.95 41.85 -26.75 41.1 -26.95 37.25 -28.05 32.9 -29.8 29.75 -31.05 24.65 -33.4 20.4 -30.85 16.45 -29.25 12.1 -27.55 6.9 -26.55 4.8 -26.15 4.75 -26.95 4.65 -27.7 6.4 -28.05 11.55 -29.25 17.5 -32.3 21.95 -34.65 24.35 -36.55 25.35 -37.4 25.3 -38.0" fill-rule="evenodd" stroke="none"/>
    </g>
    <g id="font_HY_________36">
      <path d="M21.35 -32.8 L21.1 -32.0 18.75 -25.55 15.85 -19.1 Q18.2 -16.65 20.35 -15.0 L23.45 -12.95 25.95 -11.1 Q27.05 -9.95 28.15 -7.45 L28.8 -5.2 Q28.9 -4.35 28.65 -3.9 28.4 -3.45 27.95 -3.5 27.5 -3.55 27.1 -4.05 L20.7 -11.5 15.1 -17.7 Q13.45 -14.55 10.3 -10.4 7.1 -6.15 4.8 -4.1 3.45 -3.05 3.1 -3.55 2.8 -4.05 3.95 -5.25 9.2 -11.0 13.2 -19.15 16.05 -24.9 17.9 -31.1 18.45 -33.0 17.85 -33.9 17.45 -34.55 15.3 -35.75 14.7 -36.1 14.6 -36.45 14.55 -36.85 14.85 -37.1 15.2 -37.4 15.85 -37.4 L17.45 -37.1 Q20.85 -35.9 21.5 -35.0 21.95 -34.4 21.35 -32.8 M37.75 -33.85 Q37.75 -35.95 37.25 -36.75 36.6 -37.9 34.2 -38.75 32.7 -39.35 33.3 -40.1 33.9 -40.85 35.4 -40.6 39.2 -39.9 40.2 -38.85 40.8 -38.15 40.55 -36.4 L40.45 -35.65 40.4 -34.8 40.4 -1.1 40.15 2.15 Q39.9 3.25 39.3 3.9 L38.2 3.85 Q37.75 3.1 37.75 0.65 L37.75 -19.15 33.25 -19.15 30.7 -18.95 29.15 -18.55 27.25 -18.25 Q26.15 -18.4 24.0 -19.5 22.6 -20.25 22.75 -21.0 22.9 -21.7 24.0 -21.45 L26.25 -21.15 28.6 -21.1 37.75 -21.1 37.75 -33.85" fill-rule="evenodd" stroke="none"/>
    </g>
    <g id="font_HY_________37">
      <path d="M9.8 -4.75 Q9.8 -8.75 13.7 -10.95 17.8 -13.25 25.6 -13.25 33.35 -13.25 37.45 -10.95 41.4 -8.75 41.4 -4.75 41.4 -0.8 37.45 1.45 33.35 3.8 25.6 3.8 17.8 3.8 13.7 1.45 9.8 -0.8 9.8 -4.75 M15.7 -9.4 Q12.55 -7.85 12.55 -4.75 12.55 -1.65 15.7 -0.1 18.95 1.5 25.6 1.5 32.15 1.5 35.35 -0.1 38.55 -1.65 38.55 -4.75 38.55 -7.85 35.35 -9.4 32.15 -10.95 25.6 -10.95 18.95 -10.95 15.7 -9.4 M22.95 -37.45 Q24.35 -37.7 27.1 -37.5 L29.6 -36.95 Q30.35 -36.5 30.45 -35.85 30.55 -35.25 30.05 -34.85 29.55 -34.35 28.75 -34.35 L9.75 -34.35 9.7 -34.3 9.4 -33.4 9.3 -32.35 9.3 -20.65 Q9.3 -19.95 9.65 -19.6 10.1 -19.25 11.05 -19.25 L22.05 -20.45 35.1 -22.55 Q36.45 -22.9 36.65 -22.2 36.85 -21.55 35.35 -21.1 L22.85 -18.35 10.85 -16.6 Q8.2 -16.35 7.35 -17.05 6.7 -17.65 6.7 -19.5 L6.7 -31.95 Q6.7 -33.45 6.15 -34.2 5.45 -35.2 3.65 -35.5 3.0 -35.65 2.7 -36.0 2.4 -36.35 2.55 -36.75 L3.25 -37.4 4.85 -37.55 8.1 -37.05 Q9.2 -36.8 9.65 -36.35 L18.8 -36.35 20.4 -36.55 21.3 -36.9 Q22.1 -37.35 22.95 -37.45 M34.2 -38.75 Q32.7 -39.35 33.3 -40.1 33.9 -40.85 35.4 -40.6 39.2 -39.9 40.2 -38.85 40.8 -38.15 40.55 -36.4 L40.45 -35.65 40.4 -34.8 40.4 -23.15 41.45 -23.3 42.05 -23.6 Q42.6 -24.0 43.2 -24.1 L46.45 -24.0 Q47.35 -23.95 47.85 -23.5 48.35 -23.05 48.3 -22.5 48.25 -21.95 47.8 -21.55 47.25 -21.1 46.45 -21.1 L40.4 -21.1 40.4 -18.9 40.15 -15.65 Q39.9 -14.6 39.3 -13.85 38.6 -13.35 38.2 -13.95 37.75 -14.7 37.75 -17.2 L37.75 -33.85 Q37.75 -35.95 37.25 -36.75 36.6 -37.9 34.2 -38.75" fill-rule="evenodd" stroke="none"/>
    </g>
    <g id="font_HY_________38">
      <path d="M8.8 -7.95 Q8.15 -8.0 7.95 -8.45 7.75 -8.85 8.05 -9.3 L9.0 -10.15 10.7 -10.35 Q14.2 -10.0 15.05 -9.05 15.6 -8.45 15.3 -6.7 L15.15 -5.7 15.1 -4.55 15.1 -2.05 Q15.1 -0.9 15.65 -0.3 16.2 0.25 17.25 0.25 L31.4 0.25 32.9 0.05 33.8 -0.25 35.65 -0.85 Q37.35 -1.1 40.7 -0.9 L43.25 -0.3 Q44.05 0.15 44.15 0.75 44.2 1.35 43.7 1.8 L42.4 2.25 17.6 2.25 Q15.05 2.25 13.75 1.15 12.45 0.0 12.45 -2.05 L12.45 -4.8 Q12.45 -6.2 11.75 -6.9 10.9 -7.8 8.8 -7.95 M21.55 -35.35 L21.0 -34.0 20.85 -33.65 20.3 -32.65 18.55 -29.25 16.9 -26.1 Q18.65 -24.35 20.2 -23.3 L22.7 -21.95 25.3 -20.45 28.65 -16.8 Q29.5 -15.65 29.7 -14.7 29.95 -13.85 29.65 -13.35 29.4 -12.85 28.85 -12.85 28.35 -12.8 27.85 -13.25 L21.85 -19.05 15.9 -24.45 Q13.05 -20.45 10.2 -17.35 7.35 -14.25 4.75 -12.4 3.3 -11.5 2.95 -12.0 2.55 -12.5 3.85 -13.55 8.35 -17.45 12.25 -23.55 15.45 -28.6 17.65 -34.0 18.0 -35.0 17.5 -35.65 L15.05 -37.4 Q13.8 -38.1 14.6 -38.7 L17.2 -38.75 20.15 -37.55 21.45 -36.45 Q21.7 -35.95 21.55 -35.35 M35.4 -40.6 Q39.2 -39.9 40.2 -38.85 40.8 -38.15 40.55 -36.4 L40.45 -35.65 40.4 -34.8 40.4 -12.1 40.15 -8.8 Q39.9 -7.75 39.3 -7.0 38.6 -6.45 38.2 -7.1 37.75 -7.9 37.75 -10.35 L37.75 -33.85 Q37.75 -35.95 37.25 -36.75 36.6 -37.9 34.2 -38.75 32.7 -39.35 33.3 -40.1 33.9 -40.85 35.4 -40.6" fill-rule="evenodd" stroke="none"/>
    </g>
    <g id="font_HY_________39">
      <path d="M16.15 -30.35 Q10.75 -30.35 7.95 -26.9 5.5 -23.85 5.5 -18.75 5.5 -13.85 7.95 -10.8 10.8 -7.35 16.15 -7.35 21.5 -7.35 24.35 -10.8 26.85 -13.85 26.85 -18.75 26.85 -23.85 24.35 -26.9 21.5 -30.35 16.15 -30.35 M14.85 -32.45 L14.8 -33.3 14.4 -33.85 Q13.5 -34.4 13.9 -34.95 14.3 -35.5 15.7 -35.5 17.2 -35.5 17.7 -34.65 18.2 -33.8 17.55 -32.45 23.55 -32.1 26.7 -28.05 29.55 -24.45 29.55 -18.75 29.55 -12.85 26.35 -9.2 22.8 -5.05 16.15 -5.05 9.45 -5.05 5.9 -9.2 2.7 -12.9 2.7 -18.75 2.7 -24.45 5.55 -28.1 8.8 -32.1 14.85 -32.45 M37.75 -33.85 Q37.75 -35.95 37.25 -36.75 36.6 -37.9 34.2 -38.75 32.7 -39.35 33.3 -40.1 33.9 -40.85 35.4 -40.6 39.2 -39.9 40.2 -38.85 40.8 -38.15 40.55 -36.4 L40.45 -35.65 40.4 -34.8 40.4 -1.1 40.15 2.15 Q39.9 3.25 39.3 3.9 L38.2 3.85 Q37.75 3.1 37.75 0.65 L37.75 -33.85" fill-rule="evenodd" stroke="none"/>
    </g>
    <g id="font_HY_________40">
      <path d="M9.8 -0.9 Q8.7 -0.4 7.85 -0.5 6.5 -0.65 3.45 -1.95 2.2 -2.6 2.35 -3.4 2.5 -4.2 3.75 -4.0 L5.95 -3.8 9.15 -3.75 24.5 -3.75 24.5 -11.8 Q24.5 -13.75 24.2 -14.6 23.8 -15.75 22.75 -16.15 21.2 -16.55 22.0 -17.2 22.8 -17.9 23.95 -17.55 26.75 -16.7 27.35 -15.9 27.75 -15.35 27.4 -13.9 L27.2 -12.9 27.1 -11.6 27.1 -3.75 36.85 -3.75 38.65 -3.95 39.8 -4.4 41.75 -5.05 46.05 -4.85 Q47.05 -4.75 47.7 -4.25 48.2 -3.85 48.3 -3.25 48.35 -2.65 48.0 -2.25 47.6 -1.8 46.9 -1.8 L14.85 -1.8 11.55 -1.5 9.8 -0.9 M21.2 -37.55 Q21.1 -37.95 21.4 -38.35 21.8 -38.75 22.5 -38.9 L24.35 -38.75 Q26.5 -38.2 27.45 -37.55 28.4 -36.95 28.45 -36.15 28.5 -35.45 27.85 -34.3 L26.1 -31.85 24.3 -29.35 Q28.3 -27.55 31.2 -26.85 L35.25 -26.2 38.2 -25.8 Q40.0 -25.4 42.3 -24.3 L43.8 -23.1 Q44.2 -22.5 44.05 -21.95 43.9 -21.45 43.3 -21.25 L41.95 -21.15 Q36.8 -22.5 31.6 -24.35 L22.95 -27.75 Q18.45 -23.2 14.6 -20.6 10.85 -18.1 5.65 -16.15 L3.35 -16.1 Q3.3 -16.95 5.15 -17.7 11.05 -20.2 16.7 -25.6 20.95 -29.65 23.75 -33.9 24.35 -34.85 24.15 -35.4 23.85 -36.3 21.95 -36.9 21.35 -37.1 21.2 -37.55" fill-rule="evenodd" stroke="none"/>
    </g>
    <g id="font_HY_________41">
      <path d="M22.75 -19.7 L24.6 -20.05 24.6 -34.3 9.0 -34.3 9.0 -19.6 20.6 -19.6 22.75 -19.7 M9.8 -4.75 Q9.8 -8.75 13.7 -10.95 17.8 -13.25 25.6 -13.25 33.35 -13.25 37.45 -10.95 41.4 -8.75 41.4 -4.75 41.4 -0.8 37.45 1.45 33.35 3.8 25.6 3.8 17.8 3.8 13.7 1.45 9.8 -0.8 9.8 -4.75 M15.7 -9.4 Q12.55 -7.85 12.55 -4.75 12.55 -1.65 15.7 -0.1 18.95 1.5 25.6 1.5 32.15 1.5 35.35 -0.1 38.55 -1.65 38.55 -4.75 38.55 -7.85 35.35 -9.4 32.15 -10.95 25.6 -10.95 18.95 -10.95 15.7 -9.4 M23.75 -36.3 L24.6 -36.55 25.15 -36.95 26.0 -37.45 Q26.6 -37.45 27.75 -36.75 28.75 -36.2 28.8 -35.65 L28.4 -34.65 27.9 -33.85 27.65 -32.75 26.6 -20.55 Q27.8 -20.35 28.4 -19.85 28.95 -19.4 28.9 -18.9 28.85 -18.4 28.35 -18.05 27.85 -17.7 27.2 -17.7 L9.0 -17.7 Q8.75 -15.55 7.7 -15.3 6.6 -15.0 6.55 -17.75 L6.3 -32.95 Q6.3 -33.75 5.8 -34.2 5.15 -34.75 3.8 -34.75 3.0 -34.75 2.75 -35.1 2.55 -35.4 2.8 -35.85 L3.65 -36.6 5.05 -36.9 6.55 -36.8 7.6 -36.55 8.35 -36.4 9.1 -36.3 23.75 -36.3 M34.2 -38.75 Q32.7 -39.35 33.3 -40.1 33.9 -40.85 35.4 -40.6 39.2 -39.9 40.2 -38.85 40.8 -38.15 40.55 -36.4 L40.45 -35.65 40.4 -34.8 40.4 -23.15 41.45 -23.3 42.05 -23.6 Q42.6 -24.0 43.2 -24.1 L46.45 -24.0 Q47.35 -23.95 47.85 -23.5 48.35 -23.05 48.3 -22.5 48.25 -21.95 47.8 -21.55 47.25 -21.1 46.45 -21.1 L40.4 -21.1 40.4 -18.9 40.15 -15.65 Q39.9 -14.6 39.3 -13.85 38.6 -13.35 38.2 -13.95 37.75 -14.7 37.75 -17.2 L37.75 -33.85 Q37.75 -35.95 37.25 -36.75 36.6 -37.9 34.2 -38.75" fill-rule="evenodd" stroke="none"/>
    </g>
    <g id="font_HY_________42">
      <path d="M8.7 -3.3 Q5.9 -6.05 5.9 -10.6 5.9 -15.2 8.7 -18.0 11.8 -21.05 17.75 -21.05 23.65 -21.05 26.75 -18.0 29.55 -15.25 29.55 -10.6 29.55 -6.05 26.75 -3.3 23.65 -0.2 17.75 -0.2 11.8 -0.2 8.7 -3.3 M17.75 -18.8 Q13.15 -18.8 10.8 -16.4 8.7 -14.25 8.7 -10.6 8.7 -6.95 10.8 -4.85 13.15 -2.45 17.75 -2.45 22.4 -2.45 24.75 -4.85 26.85 -6.95 26.85 -10.6 26.85 -14.25 24.75 -16.4 22.35 -18.8 17.75 -18.8 M26.65 -36.7 Q27.1 -36.25 26.95 -35.6 26.85 -35.0 26.35 -34.55 25.8 -34.05 25.1 -34.05 L13.65 -34.05 Q11.95 -34.05 10.25 -34.7 8.55 -35.35 7.9 -36.15 6.95 -37.25 7.45 -37.65 L9.0 -37.7 13.25 -37.25 17.45 -37.15 25.1 -37.15 Q26.15 -37.15 26.65 -36.7 M22.5 -27.45 L24.15 -27.65 Q24.55 -27.75 24.95 -28.05 L26.25 -28.6 30.1 -28.7 Q31.75 -28.6 32.6 -28.1 33.4 -27.65 33.45 -27.0 33.5 -26.45 33.05 -26.0 32.55 -25.5 31.9 -25.5 L12.95 -25.5 10.7 -25.25 9.4 -24.75 Q8.3 -24.25 7.55 -24.3 6.35 -24.45 3.95 -25.7 2.3 -26.55 2.45 -27.35 2.55 -28.1 3.75 -27.9 L6.4 -27.55 9.0 -27.45 22.5 -27.45 M34.2 -38.75 Q32.7 -39.35 33.3 -40.1 33.9 -40.85 35.4 -40.6 39.2 -39.9 40.2 -38.85 40.8 -38.15 40.55 -36.4 L40.45 -35.65 40.4 -34.8 40.4 -18.5 41.45 -18.65 42.05 -19.0 Q42.6 -19.35 43.2 -19.5 L46.45 -19.45 Q47.35 -19.4 47.85 -18.95 48.35 -18.55 48.3 -17.95 48.25 -17.4 47.8 -17.05 47.25 -16.6 46.45 -16.6 L40.4 -16.6 40.4 -1.1 40.15 2.15 Q39.9 3.25 39.3 3.9 L38.2 3.85 Q37.75 3.1 37.75 0.65 L37.75 -33.85 Q37.75 -35.95 37.25 -36.75 36.6 -37.9 34.2 -38.75" fill-rule="evenodd" stroke="none"/>
    </g>
    <g id="font_HY_________43">
      <path d="M25.5 -13.85 Q24.25 -14.65 24.8 -15.4 L27.15 -15.3 Q29.0 -14.45 29.95 -13.8 30.85 -13.15 31.0 -12.55 31.15 -12.05 30.75 -11.4 L29.65 -10.05 28.4 -8.5 Q30.2 -6.8 31.75 -5.9 L34.15 -4.8 36.65 -3.55 Q38.2 -2.55 40.15 -0.45 41.0 0.45 41.35 1.45 41.7 2.4 41.45 2.95 41.2 3.55 40.45 3.45 39.65 3.35 38.5 2.4 L35.95 0.3 33.3 -1.85 30.3 -4.25 27.15 -6.85 Q23.4 -3.0 19.55 -0.55 15.65 1.9 10.25 3.8 8.35 4.4 8.15 3.65 7.95 2.85 9.75 2.2 15.5 -0.2 20.35 -4.2 24.2 -7.45 26.5 -10.75 27.0 -11.55 26.8 -12.35 26.55 -13.2 25.5 -13.85 M27.6 -36.5 Q28.55 -35.5 28.55 -35.0 L27.8 -34.2 27.15 -33.6 26.45 -32.75 Q22.0 -25.75 16.8 -20.9 11.1 -15.6 4.25 -12.7 3.25 -12.25 2.95 -13.0 2.65 -13.75 3.7 -14.25 11.05 -17.8 17.35 -24.95 21.35 -29.5 24.05 -34.35 L15.7 -34.35 13.15 -34.15 11.6 -33.65 Q10.45 -33.2 9.7 -33.3 8.55 -33.4 6.4 -34.55 5.0 -35.3 5.15 -36.0 5.25 -36.7 6.3 -36.5 L8.7 -36.2 11.1 -36.15 23.75 -36.15 24.2 -36.35 24.65 -36.7 25.8 -37.4 Q26.6 -37.5 27.6 -36.5 M34.2 -38.75 Q32.7 -39.35 33.3 -40.1 33.9 -40.85 35.4 -40.6 39.2 -39.9 40.2 -38.85 40.8 -38.15 40.55 -36.4 L40.45 -35.65 40.4 -34.8 40.4 -14.75 40.15 -11.45 Q39.9 -10.4 39.3 -9.75 L38.2 -9.8 Q37.75 -10.55 37.75 -12.95 L37.75 -23.75 34.1 -23.75 31.55 -23.55 30.0 -23.15 28.15 -22.85 Q27.05 -23.0 24.9 -24.05 23.5 -24.85 23.65 -25.6 23.75 -26.3 24.85 -26.05 L27.15 -25.7 29.5 -25.6 37.75 -25.6 37.75 -33.85 Q37.75 -35.95 37.25 -36.75 36.6 -37.9 34.2 -38.75" fill-rule="evenodd" stroke="none"/>
    </g>
    <g id="font_HY_________44">
      <path d="M14.85 -19.15 L11.55 -18.85 9.8 -18.25 Q8.7 -17.75 7.85 -17.85 6.5 -18.0 3.45 -19.35 2.2 -19.95 2.35 -20.8 2.5 -21.6 3.75 -21.4 L6.25 -21.15 10.05 -21.1 36.85 -21.1 38.65 -21.3 39.8 -21.75 41.75 -22.4 46.05 -22.25 Q47.05 -22.15 47.7 -21.65 L48.3 -20.6 Q48.35 -20.0 48.0 -19.6 47.6 -19.15 46.9 -19.15 L14.85 -19.15 M11.45 -13.0 L16.2 -12.9 36.55 -12.9 37.45 -13.15 38.1 -13.65 Q38.7 -14.15 39.15 -14.15 39.8 -14.15 40.95 -13.15 L41.9 -11.9 41.45 -11.15 41.0 -10.6 40.6 -9.75 39.9 -6.75 Q41.65 -6.3 41.55 -5.2 41.4 -4.05 39.75 -4.05 L14.0 -4.05 13.8 -3.3 13.8 -2.5 13.8 -0.2 14.0 0.8 15.2 1.05 31.0 1.05 32.5 0.85 33.4 0.5 Q34.3 0.0 35.3 -0.1 36.95 -0.4 40.35 -0.15 41.95 -0.1 42.85 0.4 43.65 0.85 43.75 1.5 43.85 2.1 43.35 2.5 42.8 3.0 42.0 3.0 L15.0 3.0 Q12.95 3.0 12.0 2.2 11.1 1.45 11.1 -0.2 L11.1 -2.2 Q11.1 -3.05 10.5 -3.65 9.7 -4.4 8.05 -4.55 7.4 -4.65 7.2 -5.05 7.0 -5.4 7.3 -5.8 L8.25 -6.55 9.95 -6.85 12.65 -6.65 Q13.5 -6.4 13.85 -5.95 L33.65 -5.95 35.8 -6.15 37.0 -6.55 37.85 -6.8 37.85 -11.1 19.65 -11.1 16.7 -10.85 Q15.95 -10.65 14.95 -10.25 L12.8 -9.8 Q11.45 -9.95 8.85 -11.3 7.4 -12.0 7.5 -12.75 7.6 -13.45 8.7 -13.25 L11.45 -13.0 M30.85 -39.3 L32.45 -39.5 33.3 -39.9 34.95 -40.45 39.1 -40.55 41.65 -40.0 Q42.4 -39.55 42.5 -38.9 42.6 -38.35 42.1 -37.9 41.6 -37.4 40.8 -37.4 L12.65 -37.4 12.45 -35.65 12.45 -31.45 Q12.45 -30.3 13.0 -29.75 13.5 -29.2 14.55 -29.2 L30.35 -29.2 31.8 -29.4 32.7 -29.75 34.55 -30.35 Q36.2 -30.6 39.6 -30.35 L42.15 -29.8 Q42.95 -29.35 43.05 -28.7 43.1 -28.1 42.6 -27.7 42.1 -27.2 41.3 -27.2 L14.9 -27.2 Q12.35 -27.2 11.05 -28.3 9.75 -29.4 9.75 -31.45 L9.75 -34.65 Q9.75 -36.1 9.05 -36.8 8.25 -37.65 6.1 -37.8 5.45 -37.9 5.25 -38.3 5.1 -38.65 5.4 -39.1 5.7 -39.6 6.35 -39.9 L8.05 -40.25 10.95 -40.0 Q11.9 -39.75 12.35 -39.3 L30.85 -39.3" fill-rule="evenodd" stroke="none"/>
    </g>
    <g id="font_HY_________45">
      <path d="M14.85 -12.75 L11.55 -12.45 9.8 -11.8 Q8.7 -11.3 7.85 -11.4 6.5 -11.6 3.45 -12.95 2.2 -13.55 2.35 -14.4 2.5 -15.2 3.75 -15.0 L6.25 -14.75 10.05 -14.7 36.85 -14.7 38.7 -14.95 39.9 -15.45 41.9 -16.05 46.05 -15.9 Q47.05 -15.8 47.7 -15.3 48.2 -14.85 48.3 -14.2 48.35 -13.65 48.0 -13.2 47.6 -12.75 46.9 -12.75 L26.9 -12.75 26.9 -0.65 26.65 2.6 Q26.4 3.6 25.8 4.4 L24.75 4.3 Q24.3 3.5 24.3 1.05 L24.3 -12.75 14.85 -12.75 M38.25 -40.2 Q38.9 -40.75 39.4 -40.75 40.15 -40.8 41.3 -39.75 L42.25 -38.6 Q42.3 -38.3 41.8 -37.85 L41.3 -37.3 40.95 -36.35 40.3 -32.75 Q42.0 -32.35 41.85 -31.2 41.7 -30.1 40.1 -30.1 L13.3 -30.1 13.15 -24.85 Q13.15 -24.0 13.35 -23.8 13.6 -23.55 14.55 -23.55 L31.0 -23.55 32.5 -23.75 33.4 -24.1 Q34.3 -24.6 35.3 -24.75 37.0 -25.0 40.35 -24.8 L42.85 -24.25 Q43.65 -23.8 43.75 -23.15 43.85 -22.55 43.35 -22.15 42.8 -21.65 42.0 -21.65 L14.35 -21.65 Q12.25 -21.65 11.3 -22.4 10.4 -23.15 10.4 -24.85 L10.4 -27.45 Q10.4 -28.85 9.8 -29.55 9.1 -30.45 7.4 -30.6 6.75 -30.7 6.55 -31.05 6.35 -31.4 6.65 -31.8 6.95 -32.25 7.6 -32.55 L9.25 -32.85 12.0 -32.65 Q12.85 -32.4 13.25 -31.95 L34.0 -31.95 36.05 -32.15 37.2 -32.5 37.65 -32.65 38.2 -32.75 38.2 -37.7 19.0 -37.7 16.05 -37.45 14.3 -36.9 Q13.0 -36.35 12.15 -36.45 10.8 -36.6 8.2 -37.95 6.7 -38.65 6.85 -39.35 7.0 -40.05 8.05 -39.85 L10.8 -39.6 15.55 -39.5 36.9 -39.5 37.65 -39.75 38.25 -40.2" fill-rule="evenodd" stroke="none"/>
    </g>
    <g id="font_HY_________46">
      <path d="M15.9 -30.35 Q10.8 -30.35 8.1 -26.9 5.65 -23.8 5.65 -18.75 5.65 -13.9 8.1 -10.8 10.85 -7.35 15.9 -7.35 21.0 -7.35 23.7 -10.8 26.15 -13.85 26.15 -18.75 26.15 -23.85 23.7 -26.9 21.0 -30.35 15.9 -30.35 M37.75 -33.85 Q37.75 -35.95 37.25 -36.75 36.6 -37.9 34.2 -38.75 32.7 -39.35 33.3 -40.1 33.9 -40.85 35.4 -40.6 39.2 -39.9 40.2 -38.85 40.8 -38.15 40.55 -36.4 L40.45 -35.65 40.4 -34.8 40.4 -1.1 40.15 2.15 Q39.9 3.25 39.3 3.9 L38.2 3.85 Q37.75 3.1 37.75 0.65 L37.75 -18.3 35.4 -18.3 32.95 -18.15 31.4 -17.75 30.25 -17.45 28.95 -17.6 Q28.6 -12.2 25.45 -8.8 21.95 -5.05 15.9 -5.05 9.5 -5.05 6.05 -9.2 2.95 -12.9 2.95 -18.75 2.95 -24.4 5.75 -28.05 8.9 -32.1 14.65 -32.45 L14.6 -33.3 14.2 -33.85 Q13.25 -34.35 13.7 -34.95 14.15 -35.5 15.55 -35.5 17.0 -35.5 17.5 -34.65 17.95 -33.8 17.35 -32.45 22.6 -32.1 25.65 -28.55 28.45 -25.35 28.9 -20.3 L37.75 -20.25 37.75 -33.85" fill-rule="evenodd" stroke="none"/>
    </g>
    <g id="font_HY_________47">
      <path d="M19.65 -12.75 L16.7 -12.5 Q15.95 -12.3 14.95 -11.9 L12.8 -11.5 Q11.45 -11.65 8.85 -12.95 7.4 -13.7 7.5 -14.4 7.6 -15.1 8.7 -14.9 L11.45 -14.65 16.2 -14.55 36.55 -14.55 37.45 -14.8 38.1 -15.3 Q38.7 -15.8 39.15 -15.8 39.8 -15.8 40.95 -14.8 L41.9 -13.6 41.45 -12.8 41.0 -12.25 40.6 -11.4 40.15 -9.7 39.9 -7.75 Q41.65 -7.35 41.55 -6.2 41.4 -5.1 39.75 -5.1 L14.0 -5.1 13.8 -4.35 13.8 -3.5 13.8 -0.55 14.0 0.45 15.2 0.7 31.0 0.7 32.5 0.5 33.4 0.15 Q34.3 -0.35 35.3 -0.5 36.95 -0.75 40.35 -0.5 L42.85 0.05 Q43.65 0.5 43.75 1.15 43.85 1.75 43.35 2.15 42.8 2.65 42.0 2.65 L15.0 2.65 Q12.95 2.65 12.0 1.85 11.1 1.1 11.1 -0.55 L11.1 -3.25 Q11.1 -4.1 10.5 -4.7 9.7 -5.5 8.05 -5.65 7.4 -5.75 7.2 -6.1 7.0 -6.45 7.3 -6.85 L8.25 -7.6 9.95 -7.9 12.65 -7.7 Q13.5 -7.45 13.85 -7.0 L33.65 -7.0 35.75 -7.2 36.9 -7.55 37.85 -7.8 37.85 -12.75 19.65 -12.75 M25.4 -37.15 L26.5 -37.85 Q27.3 -37.95 28.35 -36.9 29.35 -36.0 29.3 -35.45 L28.5 -34.6 27.85 -34.05 27.25 -33.25 Q23.25 -26.3 16.8 -21.2 11.0 -16.6 4.2 -14.2 3.15 -13.85 2.9 -14.55 2.65 -15.25 3.7 -15.65 11.7 -18.9 18.15 -25.7 22.3 -30.15 24.85 -34.85 L15.7 -34.85 13.15 -34.65 11.6 -34.15 Q10.45 -33.7 9.7 -33.75 8.55 -33.9 6.4 -35.05 5.0 -35.85 5.15 -36.5 5.25 -37.15 6.3 -36.95 L8.7 -36.7 11.1 -36.6 24.6 -36.6 25.0 -36.8 25.4 -37.15 M34.2 -38.75 Q32.7 -39.35 33.3 -40.1 33.9 -40.85 35.4 -40.6 39.2 -39.9 40.2 -38.85 40.8 -38.15 40.55 -36.4 L40.45 -35.65 40.4 -34.8 40.4 -22.15 40.15 -18.85 Q39.9 -17.8 39.3 -17.15 L38.2 -17.2 Q37.75 -17.95 37.75 -20.35 L37.75 -33.85 Q37.75 -35.95 37.25 -36.75 36.6 -37.9 34.2 -38.75" fill-rule="evenodd" stroke="none"/>
    </g>
    <g id="font_HY_________48">
      <path d="M8.8 -7.15 Q8.15 -7.25 7.95 -7.65 7.75 -8.05 8.05 -8.55 8.35 -9.05 9.0 -9.35 L10.7 -9.6 Q14.2 -9.2 15.05 -8.3 15.6 -7.7 15.3 -5.9 L15.15 -4.9 15.1 -3.75 15.1 -2.05 Q15.1 -0.9 15.65 -0.3 16.2 0.25 17.25 0.25 L32.3 0.25 33.8 0.05 34.7 -0.25 36.55 -0.85 Q38.2 -1.1 41.55 -0.9 43.2 -0.8 44.1 -0.3 44.9 0.15 45.05 0.75 45.1 1.35 44.6 1.8 44.1 2.25 43.3 2.25 L17.6 2.25 Q15.05 2.25 13.75 1.15 12.45 0.0 12.45 -2.05 L12.45 -4.0 Q12.45 -5.45 11.75 -6.1 10.95 -7.0 8.8 -7.15 M17.6 -16.45 L11.8 -16.1 10.35 -15.9 9.35 -15.55 Q8.2 -15.05 7.3 -15.25 5.95 -15.5 3.35 -17.1 2.35 -17.75 2.5 -18.4 2.65 -19.1 3.8 -18.8 L8.05 -18.3 12.5 -18.3 22.85 -18.95 32.45 -20.1 Q34.1 -20.45 34.2 -19.8 34.25 -19.15 32.7 -18.75 L26.75 -17.6 20.25 -16.7 20.25 -13.4 20.0 -10.1 Q19.75 -9.0 19.05 -8.3 18.45 -7.75 18.1 -8.4 17.6 -9.2 17.6 -11.65 L17.6 -16.45 M27.2 -28.4 Q27.2 -31.2 25.2 -32.65 22.95 -34.25 18.25 -34.25 13.55 -34.25 11.35 -32.65 9.35 -31.2 9.35 -28.4 9.35 -25.7 11.35 -24.2 13.6 -22.55 18.25 -22.55 22.95 -22.55 25.2 -24.2 27.2 -25.7 27.2 -28.4 M27.7 -33.9 Q30.05 -31.8 30.05 -28.4 30.05 -24.75 27.25 -22.65 24.2 -20.3 18.25 -20.3 12.25 -20.3 9.3 -22.65 6.65 -24.75 6.65 -28.4 6.65 -31.9 9.15 -34.05 11.9 -36.4 17.4 -36.55 L17.4 -37.4 17.0 -38.0 Q16.1 -38.45 16.5 -39.05 16.9 -39.6 18.25 -39.6 19.8 -39.6 20.3 -38.75 20.8 -37.9 20.1 -36.5 25.1 -36.2 27.7 -33.9 M37.75 -33.85 Q37.75 -35.95 37.25 -36.75 36.6 -37.9 34.2 -38.75 32.7 -39.35 33.3 -40.1 33.9 -40.85 35.4 -40.6 39.2 -39.9 40.2 -38.85 40.8 -38.15 40.55 -36.4 L40.45 -35.65 40.4 -34.8 40.4 -11.5 40.15 -8.2 Q39.9 -7.2 39.3 -6.4 38.6 -5.9 38.2 -6.5 37.75 -7.3 37.75 -9.75 L37.75 -12.45 34.1 -12.45 31.6 -12.25 30.05 -11.85 28.15 -11.6 Q27.05 -11.75 24.9 -12.95 23.5 -13.7 23.65 -14.4 23.75 -15.05 24.85 -14.8 L27.15 -14.55 29.5 -14.45 37.75 -14.45 37.75 -33.85" fill-rule="evenodd" stroke="none"/>
    </g>
    <g id="font_HY_________49">
      <path d="M37.95 -4.5 L14.4 -4.5 14.4 0.55 37.95 0.55 37.95 -4.5 M10.5 -15.45 Q12.7 -14.0 17.45 -14.0 22.15 -14.0 24.35 -15.45 26.35 -16.8 26.35 -19.3 26.35 -21.95 24.35 -23.3 22.1 -24.8 17.45 -24.8 12.7 -24.8 10.5 -23.3 8.5 -21.95 8.5 -19.3 8.5 -16.8 10.5 -15.45 M8.4 -24.8 Q11.4 -26.95 17.45 -26.95 23.4 -26.95 26.4 -24.8 29.1 -22.85 29.1 -19.3 29.1 -15.8 26.4 -13.85 23.4 -11.7 17.45 -11.7 11.4 -11.7 8.4 -13.85 5.75 -15.8 5.75 -19.3 5.75 -22.85 8.4 -24.8 M21.95 -31.15 L23.6 -31.35 24.4 -31.75 Q24.95 -32.2 25.65 -32.35 26.85 -32.55 29.45 -32.4 31.1 -32.35 32.0 -31.85 32.8 -31.4 32.85 -30.75 32.95 -30.2 32.45 -29.75 32.0 -29.25 31.3 -29.25 L12.25 -29.25 10.05 -29.0 8.7 -28.5 Q7.65 -28.0 6.85 -28.05 5.6 -28.2 3.2 -29.45 1.65 -30.3 1.75 -31.1 1.9 -31.9 3.1 -31.65 L5.75 -31.25 8.4 -31.15 21.95 -31.15 M24.65 -38.75 Q25.7 -38.75 26.2 -38.3 26.65 -37.85 26.5 -37.2 26.4 -36.6 25.9 -36.1 25.35 -35.6 24.65 -35.6 L13.25 -35.6 Q12.1 -35.6 10.55 -36.25 8.95 -36.9 8.3 -37.7 7.35 -38.8 7.9 -39.2 L9.45 -39.25 13.25 -38.8 17.1 -38.75 24.65 -38.75 M34.2 -38.75 Q32.7 -39.35 33.3 -40.1 33.9 -40.85 35.4 -40.6 39.2 -39.9 40.2 -38.85 40.8 -38.15 40.55 -36.4 L40.45 -35.65 40.4 -34.8 40.4 -21.4 41.45 -21.55 42.05 -21.9 Q42.6 -22.25 43.2 -22.4 L46.45 -22.35 Q47.35 -22.3 47.85 -21.85 48.35 -21.4 48.3 -20.85 48.25 -20.3 47.8 -19.9 47.25 -19.45 46.45 -19.45 L40.4 -19.45 40.4 -15.7 40.35 -14.2 40.25 -13.0 Q40.9 -12.65 41.0 -12.05 L40.85 -10.75 40.65 -9.85 40.6 -8.75 40.6 0.1 Q40.6 3.35 39.6 4.2 38.6 5.05 38.0 2.45 L14.2 2.45 13.65 4.05 Q13.3 4.6 12.85 4.55 12.4 4.45 12.1 3.75 11.8 2.95 11.8 1.65 L11.8 -6.05 Q11.8 -7.6 11.35 -8.15 10.85 -8.75 9.15 -9.0 8.35 -9.15 8.05 -9.6 7.8 -10.0 8.05 -10.45 L8.95 -11.25 10.7 -11.45 Q13.7 -11.2 14.4 -10.45 14.9 -9.95 14.6 -8.7 L14.45 -8.1 14.4 -7.4 14.4 -6.35 37.95 -6.35 37.95 -7.95 Q37.95 -9.7 37.55 -10.35 37.0 -11.3 35.25 -11.6 34.5 -11.8 34.15 -12.25 33.85 -12.65 34.0 -13.1 L34.8 -13.85 36.6 -14.0 37.75 -13.85 37.75 -33.85 Q37.75 -35.95 37.25 -36.75 36.6 -37.9 34.2 -38.75" fill-rule="evenodd" stroke="none"/>
    </g>
  </defs>
</svg>
