<?xml version="1.0" encoding="UTF-8" standalone="no"?>
<svg xmlns:xlink="http://www.w3.org/1999/xlink" height="35.25px" width="106.1px" xmlns="http://www.w3.org/2000/svg">
  <g transform="matrix(1.0, 0.0, 0.0, 1.0, -6.55, -3.35)">
    <g transform="matrix(1.0, 0.0, 0.0, 1.0, 0.0, 0.0)">
      <use fill="#bb9562" height="35.25" transform="matrix(0.6641, 0.0, 0.0, 0.6641, 4.5, 29.85)" width="106.1" xlink:href="#font_PopplResidenz_L0"/>
      <use fill="#bb9562" height="35.25" transform="matrix(0.6641, 0.0, 0.0, 0.6641, 27.25, 29.85)" width="106.1" xlink:href="#font_PopplResidenz_o0"/>
      <use fill="#bb9562" height="35.25" transform="matrix(0.6641, 0.0, 0.0, 0.6641, 38.6, 29.85)" width="106.1" xlink:href="#font_PopplResidenz_a0"/>
      <use fill="#bb9562" height="35.25" transform="matrix(0.6641, 0.0, 0.0, 0.6641, 50.7, 29.85)" width="106.1" xlink:href="#font_PopplResidenz_d0"/>
      <use fill="#bb9562" height="35.25" transform="matrix(0.6641, 0.0, 0.0, 0.6641, 63.5, 29.85)" width="106.1" xlink:href="#font_PopplResidenz_i0"/>
      <use fill="#bb9562" height="35.25" transform="matrix(0.6641, 0.0, 0.0, 0.6641, 70.6, 29.85)" width="106.1" xlink:href="#font_PopplResidenz_n0"/>
      <use fill="#bb9562" height="35.25" transform="matrix(0.6641, 0.0, 0.0, 0.6641, 82.7, 29.85)" width="106.1" xlink:href="#font_PopplResidenz_g0"/>
    </g>
  </g>
  <defs>
    <g id="font_PopplResidenz_L0">
      <path d="M25.5 -31.75 Q21.8 -31.75 18.75 -30.1 15.75 -28.35 15.75 -25.6 15.75 -23.15 18.25 -21.55 21.2 -19.65 26.85 -19.65 L28.25 -19.65 29.4 -19.65 Q32.3 -26.3 37.2 -30.75 38.6 -32.7 40.95 -34.05 45.2 -37.0 48.4 -37.0 51.5 -37.0 51.5 -34.5 51.5 -32.75 49.3 -29.8 46.9 -26.65 43.0 -23.7 38.7 -20.35 33.3 -18.75 28.6 -11.3 23.5 -6.8 28.05 -3.7 32.05 -0.15 40.3 7.05 43.45 7.05 44.65 7.05 45.45 6.35 46.25 5.6 46.25 4.75 L46.75 4.2 Q46.25 3.35 47.0 3.35 47.9 3.35 47.9 4.45 47.9 6.15 45.95 7.6 44.6 9.35 41.05 9.35 37.5 9.35 34.35 7.2 32.05 5.65 26.65 0.55 L20.9 -4.55 Q17.85 -2.4 15.95 -1.45 12.25 0.3 9.0 0.3 6.1 0.3 4.55 -1.2 3.1 -2.5 3.1 -4.35 3.1 -6.85 5.5 -8.85 8.15 -11.05 12.05 -11.05 16.55 -11.05 21.95 -7.8 24.0 -10.15 25.55 -12.45 L28.8 -18.0 26.9 -18.0 Q21.6 -18.0 18.05 -19.85 13.95 -21.95 13.95 -25.65 13.95 -29.1 17.15 -31.65 20.3 -34.2 24.6 -34.2 28.3 -34.2 31.3 -31.15 33.25 -30.4 33.25 -29.45 33.25 -28.65 32.45 -28.65 32.0 -28.65 31.6 -29.2 29.7 -31.75 25.5 -31.75 M4.7 -4.3 Q4.7 -3.0 5.85 -2.1 7.0 -1.2 9.05 -1.2 13.8 -1.2 19.5 -5.6 14.6 -8.65 10.6 -8.65 7.95 -8.65 6.35 -7.35 4.7 -6.0 4.7 -4.3 M19.5 -5.6 L19.7 -5.5 19.8 -5.85 19.5 -5.6 M47.75 -30.3 Q49.85 -33.0 49.85 -34.55 49.85 -35.5 48.75 -35.5 L47.35 -35.2 Q44.9 -34.4 42.5 -31.9 39.8 -29.15 34.0 -20.35 38.5 -22.1 42.1 -24.95 45.2 -27.4 47.75 -30.3" fill-rule="evenodd" stroke="none"/>
    </g>
    <g id="font_PopplResidenz_o0">
      <path d="M15.0 -16.95 Q13.1 -16.95 10.4 -13.55 L7.45 -7.8 Q5.65 -4.0 5.65 -2.4 5.65 -1.05 7.1 -1.05 8.35 -1.05 9.8 -2.6 12.1 -5.05 14.4 -9.75 16.45 -14.05 16.45 -15.6 16.45 -16.95 15.0 -16.95 M19.0 -12.8 Q19.0 -7.3 14.55 -3.2 10.75 0.35 7.0 0.35 3.1 0.35 3.1 -5.15 3.1 -10.45 7.15 -14.45 11.25 -18.45 15.1 -18.35 16.6 -18.3 17.55 -17.35 19.0 -15.9 19.0 -12.8" fill-rule="evenodd" stroke="none"/>
    </g>
    <g id="font_PopplResidenz_a0">
      <path d="M14.95 -16.7 Q12.8 -16.75 7.45 -7.35 5.0 -3.0 5.0 -1.9 5.0 -1.35 5.35 -1.35 6.6 -1.35 10.55 -6.6 15.55 -13.35 15.55 -15.85 15.55 -16.7 14.95 -16.7 M17.05 -15.0 L18.0 -18.55 19.1 -18.55 Q18.95 -17.6 19.35 -17.6 20.05 -17.6 21.2 -18.55 L22.05 -18.2 18.85 -12.55 14.6 -4.45 Q13.65 -2.45 13.65 -1.7 13.65 -1.1 14.05 -1.1 14.85 -1.1 16.25 -3.0 L18.35 -6.3 Q18.55 -6.95 19.2 -6.95 19.95 -6.95 19.95 -6.2 L18.9 -4.85 Q16.05 0.25 14.05 0.25 11.9 0.25 11.9 -3.0 11.9 -5.65 13.8 -9.9 7.85 0.1 5.3 0.1 4.45 0.1 3.9 -0.5 3.05 -1.4 3.05 -3.45 3.05 -9.5 7.55 -14.2 9.45 -16.15 11.95 -17.3 13.7 -18.15 14.8 -18.15 17.05 -18.15 17.05 -15.75 L17.05 -15.0" fill-rule="evenodd" stroke="none"/>
    </g>
    <g id="font_PopplResidenz_d0">
      <path d="M36.45 -35.65 Q31.85 -35.65 25.5 -24.7 L15.2 -5.65 Q13.9 -3.1 13.9 -2.0 13.9 -1.35 14.3 -1.35 15.0 -1.35 16.5 -3.3 17.75 -4.85 18.6 -6.45 L19.5 -7.15 Q20.25 -7.15 20.25 -6.4 L19.8 -5.4 Q16.25 0.1 14.25 0.1 12.0 0.1 12.0 -3.4 12.0 -4.55 12.55 -6.25 L12.35 -6.0 Q7.85 0.25 5.5 0.25 2.9 0.25 2.9 -3.8 2.9 -6.35 4.25 -9.2 5.55 -11.9 7.55 -13.9 9.2 -15.55 11.3 -16.75 13.45 -17.9 14.9 -17.9 17.05 -17.9 17.2 -15.95 17.65 -17.4 18.65 -19.45 21.05 -23.95 23.25 -26.35 24.7 -30.05 26.8 -32.15 31.9 -37.35 38.25 -37.35 41.8 -37.35 41.9 -35.25 41.9 -34.85 41.2 -34.2 40.5 -33.5 39.75 -33.5 39.05 -33.5 38.7 -34.0 L37.75 -35.2 Q37.3 -35.65 36.45 -35.65 M15.15 -16.45 Q13.2 -16.35 9.1 -10.05 5.15 -3.95 5.15 -1.85 5.15 -1.15 5.55 -1.15 6.15 -1.15 7.3 -2.3 10.7 -5.65 13.55 -10.65 15.65 -14.35 15.65 -15.7 15.65 -16.5 15.15 -16.45" fill-rule="evenodd" stroke="none"/>
    </g>
    <g id="font_PopplResidenz_i0">
      <path d="M16.2 -25.95 Q17.7 -25.95 17.7 -24.25 17.7 -23.1 16.7 -21.9 15.7 -20.65 14.4 -20.65 12.9 -20.65 12.95 -22.55 13.0 -23.6 14.0 -24.8 14.95 -25.95 16.2 -25.95 M12.65 -14.7 Q12.65 -12.25 9.5 -8.3 L6.8 -4.3 Q5.95 -2.95 5.95 -2.1 5.95 -1.2 6.45 -1.2 7.8 -1.2 10.45 -5.35 10.95 -6.2 11.45 -6.2 12.15 -6.2 12.15 -5.4 12.15 -4.8 10.6 -2.9 8.05 0.25 6.4 0.25 5.2 0.25 4.45 -0.85 3.65 -2.0 3.65 -3.7 3.65 -5.45 4.7 -7.5 L7.45 -11.55 Q10.3 -15.3 10.3 -16.3 L10.05 -16.65 Q8.7 -16.65 5.9 -12.3 5.35 -11.75 5.0 -11.75 4.25 -11.75 4.25 -12.5 4.25 -13.15 6.2 -14.7 8.65 -18.15 10.2 -18.15 12.65 -18.15 12.65 -14.7" fill-rule="evenodd" stroke="none"/>
    </g>
    <g id="font_PopplResidenz_n0">
      <path d="M14.0 -13.65 Q10.15 -8.95 5.0 0.25 L4.1 0.25 Q3.85 -0.6 3.4 -0.6 2.9 -0.6 1.7 0.25 L0.8 0.25 4.85 -7.05 8.15 -12.55 9.2 -16.1 Q9.2 -16.5 8.85 -16.5 L7.95 -16.2 Q6.55 -14.7 5.15 -12.15 4.6 -11.65 4.2 -11.65 3.5 -11.65 3.5 -12.4 3.5 -12.9 5.1 -15.05 7.25 -17.95 9.0 -17.95 11.15 -17.95 11.15 -15.1 11.15 -13.55 10.3 -11.2 L10.8 -12.05 Q12.85 -14.75 14.6 -16.5 16.05 -17.95 17.2 -17.95 18.75 -17.95 19.15 -16.45 L19.45 -14.7 Q19.45 -11.9 16.3 -7.15 13.65 -3.15 13.65 -1.95 13.65 -1.2 14.2 -1.2 15.75 -1.2 17.8 -5.25 18.2 -5.85 18.65 -5.85 19.45 -5.85 19.45 -5.1 19.45 -4.4 17.75 -2.3 15.7 0.25 14.2 0.25 12.65 0.25 11.9 -1.6 11.45 -2.75 11.45 -4.0 11.45 -6.75 14.3 -10.9 L15.85 -13.0 Q17.35 -15.4 17.35 -16.2 L17.15 -16.5 Q16.4 -16.5 14.0 -13.65" fill-rule="evenodd" stroke="none"/>
    </g>
    <g id="font_PopplResidenz_g0">
      <path d="M16.05 -16.45 Q13.75 -16.5 9.5 -10.35 5.45 -4.45 5.45 -2.15 5.45 -1.25 6.15 -1.25 7.95 -1.25 12.65 -7.1 16.85 -13.65 16.85 -15.65 16.85 -16.45 16.05 -16.45 M19.7 -18.15 L21.45 -17.8 22.4 -17.95 23.1 -18.05 23.8 -18.15 Q24.75 -18.15 24.75 -17.3 24.75 -16.45 23.85 -16.45 22.9 -16.45 22.25 -15.8 20.95 -14.5 15.9 -6.2 12.25 2.65 10.2 5.75 8.15 8.85 6.35 10.35 2.8 13.15 -1.8 13.15 -4.95 13.15 -6.3 11.9 -8.15 10.65 -8.15 9.2 -8.15 6.9 -5.9 6.9 -3.95 6.9 -3.95 8.7 -3.95 9.45 -4.4 9.9 L-4.85 10.45 -4.6 11.0 Q-3.95 11.65 -2.25 11.65 2.1 11.65 5.6 7.45 8.6 2.6 14.9 -9.35 11.65 -3.9 9.6 -2.2 7.7 0.2 5.95 0.2 4.7 0.2 3.85 -0.9 2.9 -2.05 2.9 -4.2 2.9 -9.35 7.35 -13.8 11.6 -18.0 15.55 -18.0 18.4 -18.0 17.9 -15.45 17.35 -15.05 18.25 -14.85 L19.7 -18.15" fill-rule="evenodd" stroke="none"/>
    </g>
  </defs>
</svg>
