<?xml version="1.0" encoding="UTF-8" standalone="no"?>
<svg xmlns:xlink="http://www.w3.org/1999/xlink" height="12.7px" width="288.9px" xmlns="http://www.w3.org/2000/svg">
  <g transform="matrix(1.0, 0.0, 0.0, 1.0, 67.8, -3.3)">
    <g transform="matrix(1.0, 0.0, 0.0, 1.0, -69.8, 0.0)">
      <use fill="#2d1804" fill-opacity="0.5019608" height="12.7" transform="matrix(0.2344, 0.0, 0.0, 0.2344, 1.6, 12.6)" width="288.9" xlink:href="#font_Palatino_Linotype_C0"/>
      <use fill="#2d1804" fill-opacity="0.5019608" height="12.7" transform="matrix(0.2344, 0.0, 0.0, 0.2344, 10.1, 12.6)" width="288.9" xlink:href="#font_Palatino_Linotype_o0"/>
      <use fill="#2d1804" fill-opacity="0.5019608" height="12.7" transform="matrix(0.2344, 0.0, 0.0, 0.2344, 16.65, 12.6)" width="288.9" xlink:href="#font_Palatino_Linotype_p0"/>
      <use fill="#2d1804" fill-opacity="0.5019608" height="12.7" transform="matrix(0.2344, 0.0, 0.0, 0.2344, 23.85, 12.6)" width="288.9" xlink:href="#font_Palatino_Linotype_y0"/>
      <use fill="#2d1804" fill-opacity="0.5019608" height="12.7" transform="matrix(0.2344, 0.0, 0.0, 0.2344, 30.5, 12.6)" width="288.9" xlink:href="#font_Palatino_Linotype_r0"/>
      <use fill="#2d1804" fill-opacity="0.5019608" height="12.7" transform="matrix(0.2344, 0.0, 0.0, 0.2344, 35.25, 12.6)" width="288.9" xlink:href="#font_Palatino_Linotype_i0"/>
      <use fill="#2d1804" fill-opacity="0.5019608" height="12.7" transform="matrix(0.2344, 0.0, 0.0, 0.2344, 38.75, 12.6)" width="288.9" xlink:href="#font_Palatino_Linotype_g0"/>
      <use fill="#2d1804" fill-opacity="0.5019608" height="12.7" transform="matrix(0.2344, 0.0, 0.0, 0.2344, 45.4, 12.6)" width="288.9" xlink:href="#font_Palatino_Linotype_h0"/>
      <use fill="#2d1804" fill-opacity="0.5019608" height="12.7" transform="matrix(0.2344, 0.0, 0.0, 0.2344, 52.4, 12.6)" width="288.9" xlink:href="#font_Palatino_Linotype_t0"/>
      <use fill="#2d1804" fill-opacity="0.5019608" height="12.7" transform="matrix(0.2344, 0.0, 0.0, 0.2344, 59.3, 12.6)" width="288.9" xlink:href="#font_Palatino_Linotype__1"/>
      <use fill="#2d1804" fill-opacity="0.5019608" height="12.7" transform="matrix(0.2344, 0.0, 0.0, 0.2344, 63.3, 12.6)" width="288.9" xlink:href="#font_Palatino_Linotype_c0"/>
      <use fill="#2d1804" fill-opacity="0.5019608" height="12.7" transform="matrix(0.2344, 0.0, 0.0, 0.2344, 68.65, 12.6)" width="288.9" xlink:href="#font_Palatino_Linotype__2"/>
      <use fill="#2d1804" fill-opacity="0.5019608" height="12.7" transform="matrix(0.2344, 0.0, 0.0, 0.2344, 75.65, 12.6)" width="288.9" xlink:href="#font_Palatino_Linotype_C0"/>
      <use fill="#2d1804" fill-opacity="0.5019608" height="12.7" transform="matrix(0.2344, 0.0, 0.0, 0.2344, 84.15, 12.6)" width="288.9" xlink:href="#font_Palatino_Linotype_h0"/>
      <use fill="#2d1804" fill-opacity="0.5019608" height="12.7" transform="matrix(0.2344, 0.0, 0.0, 0.2344, 91.15, 12.6)" width="288.9" xlink:href="#font_Palatino_Linotype_e0"/>
      <use fill="#2d1804" fill-opacity="0.5019608" height="12.7" transform="matrix(0.2344, 0.0, 0.0, 0.2344, 96.9, 12.6)" width="288.9" xlink:href="#font_Palatino_Linotype_r0"/>
      <use fill="#2d1804" fill-opacity="0.5019608" height="12.7" transform="matrix(0.2344, 0.0, 0.0, 0.2344, 101.65, 12.6)" width="288.9" xlink:href="#font_Palatino_Linotype_r0"/>
      <use fill="#2d1804" fill-opacity="0.5019608" height="12.7" transform="matrix(0.2344, 0.0, 0.0, 0.2344, 106.4, 12.6)" width="288.9" xlink:href="#font_Palatino_Linotype_y0"/>
      <use fill="#2d1804" fill-opacity="0.5019608" height="12.7" transform="matrix(0.2344, 0.0, 0.0, 0.2344, 112.75, 12.6)" width="288.9" xlink:href="#font_Palatino_Linotype_a0"/>
      <use fill="#2d1804" fill-opacity="0.5019608" height="12.7" transform="matrix(0.2344, 0.0, 0.0, 0.2344, 118.75, 12.6)" width="288.9" xlink:href="#font_Palatino_Linotype_p0"/>
      <use fill="#2d1804" fill-opacity="0.5019608" height="12.7" transform="matrix(0.2344, 0.0, 0.0, 0.2344, 125.95, 12.6)" width="288.9" xlink:href="#font_Palatino_Linotype_p0"/>
      <use fill="#2d1804" fill-opacity="0.5019608" height="12.7" transform="matrix(0.2344, 0.0, 0.0, 0.2344, 133.15, 12.6)" width="288.9" xlink:href="#font_Palatino_Linotype_l0"/>
      <use fill="#2d1804" fill-opacity="0.5019608" height="12.7" transform="matrix(0.2344, 0.0, 0.0, 0.2344, 136.65, 12.6)" width="288.9" xlink:href="#font_Palatino_Linotype_e0"/>
      <use fill="#2d1804" fill-opacity="0.5019608" height="12.7" transform="matrix(0.2344, 0.0, 0.0, 0.2344, 142.4, 12.6)" width="288.9" xlink:href="#font_Palatino_Linotype_.0"/>
      <use fill="#2d1804" fill-opacity="0.5019608" height="12.7" transform="matrix(0.2344, 0.0, 0.0, 0.2344, 145.4, 12.6)" width="288.9" xlink:href="#font_Palatino_Linotype_c0"/>
      <use fill="#2d1804" fill-opacity="0.5019608" height="12.7" transform="matrix(0.2344, 0.0, 0.0, 0.2344, 150.75, 12.6)" width="288.9" xlink:href="#font_Palatino_Linotype_o0"/>
      <use fill="#2d1804" fill-opacity="0.5019608" height="12.7" transform="matrix(0.2344, 0.0, 0.0, 0.2344, 157.3, 12.6)" width="288.9" xlink:href="#font_Palatino_Linotype_m0"/>
      <use fill="#2d1804" fill-opacity="0.5019608" height="12.7" transform="matrix(0.2344, 0.0, 0.0, 0.2344, 167.9, 12.6)" width="288.9" xlink:href="#font_Palatino_Linotype_.0"/>
      <use fill="#2d1804" fill-opacity="0.5019608" height="12.7" transform="matrix(0.2344, 0.0, 0.0, 0.2344, 173.45, 12.6)" width="288.9" xlink:href="#font_Palatino_Linotype_A0"/>
      <use fill="#2d1804" fill-opacity="0.5019608" height="12.7" transform="matrix(0.2344, 0.0, 0.0, 0.2344, 182.8, 12.6)" width="288.9" xlink:href="#font_Palatino_Linotype_l0"/>
      <use fill="#2d1804" fill-opacity="0.5019608" height="12.7" transform="matrix(0.2344, 0.0, 0.0, 0.2344, 186.3, 12.6)" width="288.9" xlink:href="#font_Palatino_Linotype_l0"/>
      <use fill="#2d1804" fill-opacity="0.5019608" height="12.7" transform="matrix(0.2344, 0.0, 0.0, 0.2344, 192.8, 12.6)" width="288.9" xlink:href="#font_Palatino_Linotype_R0"/>
      <use fill="#2d1804" fill-opacity="0.5019608" height="12.7" transform="matrix(0.2344, 0.0, 0.0, 0.2344, 200.8, 12.6)" width="288.9" xlink:href="#font_Palatino_Linotype_i0"/>
      <use fill="#2d1804" fill-opacity="0.5019608" height="12.7" transform="matrix(0.2344, 0.0, 0.0, 0.2344, 204.3, 12.6)" width="288.9" xlink:href="#font_Palatino_Linotype_g0"/>
      <use fill="#2d1804" fill-opacity="0.5019608" height="12.7" transform="matrix(0.2344, 0.0, 0.0, 0.2344, 210.95, 12.6)" width="288.9" xlink:href="#font_Palatino_Linotype_h0"/>
      <use fill="#2d1804" fill-opacity="0.5019608" height="12.7" transform="matrix(0.2344, 0.0, 0.0, 0.2344, 217.95, 12.6)" width="288.9" xlink:href="#font_Palatino_Linotype_t0"/>
      <use fill="#2d1804" fill-opacity="0.5019608" height="12.7" transform="matrix(0.2344, 0.0, 0.0, 0.2344, 221.85, 12.6)" width="288.9" xlink:href="#font_Palatino_Linotype_s0"/>
      <use fill="#2d1804" fill-opacity="0.5019608" height="12.7" transform="matrix(0.2344, 0.0, 0.0, 0.2344, 229.95, 12.6)" width="288.9" xlink:href="#font_Palatino_Linotype_R0"/>
      <use fill="#2d1804" fill-opacity="0.5019608" height="12.7" transform="matrix(0.2344, 0.0, 0.0, 0.2344, 237.95, 12.6)" width="288.9" xlink:href="#font_Palatino_Linotype_e0"/>
      <use fill="#2d1804" fill-opacity="0.5019608" height="12.7" transform="matrix(0.2344, 0.0, 0.0, 0.2344, 243.7, 12.6)" width="288.9" xlink:href="#font_Palatino_Linotype_s0"/>
      <use fill="#2d1804" fill-opacity="0.5019608" height="12.7" transform="matrix(0.2344, 0.0, 0.0, 0.2344, 248.8, 12.6)" width="288.9" xlink:href="#font_Palatino_Linotype_e0"/>
      <use fill="#2d1804" fill-opacity="0.5019608" height="12.7" transform="matrix(0.2344, 0.0, 0.0, 0.2344, 254.55, 12.6)" width="288.9" xlink:href="#font_Palatino_Linotype_r0"/>
      <use fill="#2d1804" fill-opacity="0.5019608" height="12.7" transform="matrix(0.2344, 0.0, 0.0, 0.2344, 259.3, 12.6)" width="288.9" xlink:href="#font_Palatino_Linotype_v0"/>
      <use fill="#2d1804" fill-opacity="0.5019608" height="12.7" transform="matrix(0.2344, 0.0, 0.0, 0.2344, 265.9, 12.6)" width="288.9" xlink:href="#font_Palatino_Linotype_e0"/>
      <use fill="#2d1804" fill-opacity="0.5019608" height="12.7" transform="matrix(0.2344, 0.0, 0.0, 0.2344, 271.65, 12.6)" width="288.9" xlink:href="#font_Palatino_Linotype_d0"/>
      <use fill="#2d1804" fill-opacity="0.5019608" height="12.7" transform="matrix(0.2344, 0.0, 0.0, 0.2344, 279.0, 12.6)" width="288.9" xlink:href="#font_Palatino_Linotype_.0"/>
    </g>
  </g>
  <defs>
    <g id="font_Palatino_Linotype_C0">
      <path d="M21.9 -33.8 Q17.65 -33.8 14.3 -32.0 10.95 -30.2 9.1 -26.75 7.25 -23.3 7.25 -18.35 7.25 -13.35 9.45 -9.55 11.6 -5.8 15.4 -3.75 19.15 -1.75 24.15 -1.75 L28.45 -2.15 Q30.5 -2.6 31.85 -3.2 33.2 -3.85 34.45 -4.75 L34.9 -4.2 33.95 -1.9 Q28.4 0.95 22.1 0.95 13.05 0.95 7.45 -4.2 1.8 -9.3 1.8 -17.6 1.8 -23.3 4.6 -27.55 7.4 -31.8 12.05 -33.9 16.65 -36.05 22.4 -36.05 L28.95 -35.35 Q32.2 -34.65 34.4 -33.65 L34.55 -33.4 Q34.0 -32.0 33.5 -26.5 L33.3 -26.3 32.15 -26.3 31.95 -26.5 31.7 -30.75 Q29.85 -32.2 27.3 -33.0 24.7 -33.8 21.9 -33.8" fill-rule="evenodd" stroke="none"/>
    </g>
    <g id="font_Palatino_Linotype_o0">
      <path d="M13.35 -22.3 Q10.1 -22.3 8.25 -19.95 6.45 -17.6 6.45 -13.15 6.45 -9.65 7.35 -6.9 8.25 -4.15 10.2 -2.45 12.15 -0.8 14.65 -0.8 17.6 -0.8 19.5 -3.1 21.45 -5.45 21.45 -10.15 21.45 -15.5 19.35 -18.9 17.25 -22.3 13.35 -22.3 M7.2 -21.95 Q10.25 -23.95 14.4 -23.95 19.65 -23.95 22.95 -20.65 26.25 -17.35 26.25 -12.15 26.25 -6.4 22.5 -2.7 18.7 1.0 13.35 1.0 9.85 1.0 7.1 -0.9 4.35 -2.8 3.05 -5.5 1.7 -8.25 1.7 -11.45 1.7 -14.4 2.95 -17.15 4.15 -19.95 7.2 -21.95" fill-rule="evenodd" stroke="none"/>
    </g>
    <g id="font_Palatino_Linotype_p0">
      <path d="M11.55 -18.9 Q10.45 -18.0 10.0 -17.15 9.5 -16.35 9.5 -15.8 L9.45 -14.65 9.45 -4.95 Q10.6 -3.75 12.3 -2.9 14.0 -2.05 16.05 -2.05 18.5 -2.05 20.35 -3.25 22.2 -4.5 23.25 -6.85 24.25 -9.2 24.25 -12.1 24.25 -14.4 23.35 -16.4 22.45 -18.4 20.55 -19.55 18.6 -20.7 16.45 -20.7 L13.9 -20.25 Q12.65 -19.8 11.55 -18.9 M18.8 -23.85 L22.55 -23.3 Q24.2 -22.75 25.65 -21.45 27.05 -20.15 27.9 -18.2 28.7 -16.3 28.7 -13.75 28.7 -11.95 28.15 -10.1 L26.65 -6.65 25.15 -4.55 Q24.55 -4.05 22.8 -3.05 L19.7 -1.0 18.2 0.0 16.75 0.45 14.65 0.7 Q12.05 0.7 9.45 -0.65 L9.45 4.7 9.55 8.25 9.8 11.7 10.1 12.45 10.65 12.75 13.35 12.95 13.6 13.15 13.6 14.2 13.4 14.4 7.4 14.2 1.4 14.4 1.15 14.2 1.15 13.15 1.4 12.95 4.1 12.7 4.7 12.4 5.0 11.65 5.2 8.3 5.3 4.05 5.3 -15.1 5.2 -18.1 5.0 -20.1 4.65 -20.55 3.35 -20.75 1.25 -20.75 1.05 -20.95 1.05 -22.05 1.25 -22.25 Q6.0 -22.8 9.25 -24.1 L9.75 -23.8 9.45 -18.75 14.2 -22.85 Q15.55 -23.85 18.8 -23.85" fill-rule="evenodd" stroke="none"/>
    </g>
    <g id="font_Palatino_Linotype_y0">
      <path d="M18.1 -23.3 L23.05 -23.1 27.25 -23.3 27.45 -23.1 27.45 -22.0 27.25 -21.8 25.8 -21.55 24.75 -20.75 22.95 -17.5 20.35 -12.0 12.1 6.9 10.25 10.65 Q9.15 12.65 7.55 13.55 5.9 14.4 4.1 14.4 2.55 14.4 1.15 13.6 L2.4 9.75 3.0 9.75 Q4.25 11.05 5.65 11.05 7.45 11.05 8.75 9.3 10.05 7.55 12.45 1.5 L10.55 -3.55 6.55 -13.4 4.7 -17.75 3.25 -20.85 2.65 -21.4 0.6 -21.9 0.4 -22.1 0.4 -23.1 0.65 -23.3 6.55 -23.1 12.0 -23.3 12.2 -23.1 12.2 -22.1 12.05 -21.9 10.5 -21.75 8.95 -21.35 Q8.6 -21.05 8.6 -20.65 L9.4 -17.9 10.9 -13.75 12.45 -9.85 14.85 -4.2 16.2 -7.1 18.2 -11.95 20.25 -17.25 21.2 -19.8 21.3 -20.55 Q21.3 -21.1 20.9 -21.3 L19.1 -21.65 18.05 -21.8 17.9 -22.0 17.9 -23.1 18.1 -23.3" fill-rule="evenodd" stroke="none"/>
    </g>
    <g id="font_Palatino_Linotype_r0">
      <path d="M19.05 -23.4 L19.25 -23.05 Q18.85 -19.75 18.8 -17.2 L17.65 -17.2 Q16.65 -19.5 14.45 -19.5 12.9 -19.5 11.75 -18.5 10.6 -17.55 10.2 -16.05 9.8 -14.55 9.8 -12.3 L9.8 -9.5 9.9 -5.85 10.15 -2.45 Q10.25 -2.0 10.5 -1.8 10.7 -1.6 11.1 -1.5 L14.65 -1.25 14.9 -1.05 14.9 0.0 14.65 0.2 7.7 0.0 1.7 0.2 1.5 0.0 1.5 -1.05 1.7 -1.25 4.45 -1.5 5.0 -1.8 5.35 -2.5 5.55 -5.75 5.65 -9.9 5.65 -14.8 5.55 -17.55 5.4 -19.65 5.0 -20.25 3.7 -20.45 1.6 -20.45 1.35 -20.65 1.35 -21.75 1.55 -21.95 Q6.35 -22.5 9.6 -23.8 L10.1 -23.5 9.85 -18.35 11.75 -20.7 13.4 -22.5 Q14.1 -23.15 15.05 -23.5 L17.0 -23.85 19.05 -23.4" fill-rule="evenodd" stroke="none"/>
    </g>
    <g id="font_Palatino_Linotype_i0">
      <path d="M9.2 -34.15 Q10.05 -33.35 10.05 -32.15 10.05 -31.0 9.2 -30.2 8.4 -29.35 7.2 -29.35 6.05 -29.35 5.25 -30.15 4.4 -31.0 4.4 -32.15 4.4 -33.35 5.25 -34.15 6.05 -35.0 7.2 -35.0 8.4 -35.0 9.2 -34.15 M9.8 -23.5 Q9.55 -20.2 9.55 -15.15 L9.55 -9.5 9.65 -5.95 9.85 -2.5 Q9.95 -2.0 10.2 -1.75 10.4 -1.55 10.75 -1.45 L13.45 -1.25 13.65 -1.05 13.65 0.0 13.45 0.2 7.45 0.0 1.45 0.2 1.2 0.0 1.2 -1.05 1.45 -1.25 4.2 -1.5 4.75 -1.8 5.05 -2.5 5.25 -5.75 5.35 -9.9 5.35 -14.8 5.25 -17.55 5.1 -19.65 4.7 -20.25 3.4 -20.45 1.3 -20.45 1.1 -20.65 1.1 -21.75 1.3 -21.95 Q6.05 -22.5 9.35 -23.8 L9.8 -23.5" fill-rule="evenodd" stroke="none"/>
    </g>
    <g id="font_Palatino_Linotype_g0">
      <path d="M12.6 -22.2 Q10.35 -22.2 8.8 -20.7 7.25 -19.2 7.25 -16.3 7.25 -14.75 7.85 -13.0 8.45 -11.25 9.8 -10.35 11.15 -9.45 12.8 -9.45 15.05 -9.45 16.65 -10.9 18.25 -12.35 18.25 -15.45 18.25 -18.05 16.8 -20.1 15.3 -22.2 12.6 -22.2 M14.4 -24.0 Q17.55 -24.0 20.35 -22.0 L27.6 -22.1 27.8 -21.65 26.5 -19.6 21.85 -19.6 Q22.55 -18.2 22.55 -16.7 22.55 -14.95 21.75 -13.25 20.95 -11.6 19.5 -10.4 18.05 -9.25 16.2 -8.55 14.35 -7.85 12.0 -7.85 L10.85 -7.85 8.95 -6.1 Q8.55 -5.5 8.55 -4.9 8.55 -3.8 9.55 -3.35 L13.75 -2.9 19.35 -3.0 Q22.0 -3.0 23.4 -2.35 24.8 -1.75 25.7 -0.1 26.55 1.5 26.55 3.3 26.55 6.05 24.8 8.8 23.0 11.5 19.6 12.95 16.25 14.35 12.4 14.35 L8.35 13.9 Q6.4 13.4 5.0 12.45 3.55 11.5 2.65 9.95 1.8 8.4 1.8 6.7 1.8 5.8 2.05 4.8 2.35 3.75 3.1 2.6 L7.65 0.05 Q5.45 -0.6 4.9 -1.25 4.35 -1.95 4.35 -2.85 4.35 -3.8 4.95 -5.1 L9.0 -8.0 Q5.45 -8.95 4.2 -10.8 2.95 -12.65 2.95 -14.85 2.95 -16.85 3.85 -18.7 4.7 -20.55 6.5 -21.65 8.25 -22.75 10.45 -23.35 L14.4 -24.0 M21.7 2.25 Q20.8 1.0 19.4 0.75 L14.6 0.5 9.95 0.6 Q9.35 0.7 8.2 1.45 7.1 2.2 6.4 3.5 5.65 4.75 5.65 6.35 5.65 9.2 7.75 10.95 9.85 12.75 13.35 12.75 16.0 12.75 18.2 11.65 20.45 10.55 21.5 8.7 22.55 6.85 22.55 5.15 22.55 3.45 21.7 2.25" fill-rule="evenodd" stroke="none"/>
    </g>
    <g id="font_Palatino_Linotype_h0">
      <path d="M9.0 -36.7 Q8.7 -33.85 8.7 -25.2 L8.7 -19.0 12.6 -22.45 13.6 -23.15 15.15 -23.6 17.35 -23.85 Q19.25 -23.85 21.05 -23.1 22.8 -22.3 23.75 -21.25 24.65 -20.2 25.0 -18.75 25.35 -17.3 25.35 -15.15 L25.35 -10.75 25.45 -4.55 Q25.55 -2.15 26.0 -1.7 26.45 -1.25 29.1 -1.25 L29.3 -1.05 29.3 0.0 29.1 0.2 24.8 0.0 21.15 0.2 20.85 -0.05 21.15 -8.55 21.15 -11.8 21.05 -16.05 Q20.9 -17.35 20.2 -18.4 19.5 -19.5 18.35 -20.05 17.15 -20.65 15.5 -20.65 L12.7 -20.2 Q11.55 -19.75 10.35 -18.65 9.2 -17.55 8.95 -16.8 8.7 -16.05 8.7 -13.95 L8.7 -9.5 8.8 -5.95 9.05 -2.5 9.35 -1.75 Q9.6 -1.55 9.9 -1.45 L12.6 -1.25 12.85 -1.05 12.85 0.0 12.65 0.2 6.6 0.0 0.6 0.2 0.4 0.0 0.4 -1.05 0.6 -1.25 3.35 -1.5 3.9 -1.8 4.25 -2.5 4.45 -5.75 4.55 -9.9 4.45 -28.15 4.3 -32.0 4.05 -33.25 3.5 -33.55 0.5 -33.65 0.25 -33.9 0.25 -34.95 0.45 -35.15 Q5.25 -35.7 8.5 -37.0 L9.0 -36.7" fill-rule="evenodd" stroke="none"/>
    </g>
    <g id="font_Palatino_Linotype_t0">
      <path d="M9.2 -31.65 L9.8 -31.15 Q9.55 -29.6 9.2 -22.0 L11.9 -22.0 16.15 -22.15 16.3 -21.95 15.85 -19.85 15.65 -19.65 12.8 -19.65 9.2 -19.65 9.05 -9.45 Q9.05 -5.95 9.25 -4.85 9.4 -3.75 10.15 -3.15 10.85 -2.55 12.3 -2.55 14.0 -2.55 15.4 -3.4 L16.0 -2.5 13.15 0.0 Q11.85 0.6 10.5 0.6 4.85 0.6 4.85 -4.85 L4.95 -8.25 5.0 -9.15 5.0 -19.5 3.95 -19.5 1.4 -19.4 1.15 -19.6 1.15 -20.25 1.35 -20.5 5.15 -22.15 5.0 -29.75 Q7.55 -30.65 9.2 -31.65" fill-rule="evenodd" stroke="none"/>
    </g>
    <g id="font_Palatino_Linotype__1">
      <path d="M7.4 -12.65 Q7.4 -5.15 9.15 0.2 10.9 5.5 15.2 10.7 L15.2 11.0 14.25 11.8 13.95 11.85 Q8.75 7.4 5.9 1.2 3.05 -5.0 3.05 -12.1 3.05 -17.85 4.65 -22.3 6.25 -26.8 9.1 -30.55 11.95 -34.3 14.15 -35.85 L14.45 -35.85 15.2 -34.85 15.2 -34.6 Q7.4 -26.2 7.4 -12.65" fill-rule="evenodd" stroke="none"/>
    </g>
    <g id="font_Palatino_Linotype_c0">
      <path d="M13.4 -21.5 Q11.35 -21.5 9.75 -20.6 8.15 -19.75 7.35 -17.8 6.5 -15.85 6.5 -13.1 6.5 -10.8 7.15 -8.6 7.8 -6.45 8.9 -5.0 9.95 -3.55 11.7 -2.7 13.45 -1.8 15.6 -1.8 L18.25 -2.15 21.2 -3.3 21.7 -2.65 20.7 -1.0 Q17.5 0.8 13.5 0.8 8.0 0.8 5.0 -2.5 2.0 -5.75 2.0 -10.95 2.0 -13.3 2.55 -15.1 3.05 -16.95 3.85 -18.15 L5.55 -20.05 8.8 -22.0 12.2 -23.65 15.35 -24.05 Q19.25 -24.05 21.7 -22.55 L21.0 -16.25 20.75 -16.05 19.75 -16.05 19.5 -16.3 19.25 -19.1 Q19.05 -19.85 17.25 -20.65 15.45 -21.5 13.4 -21.5" fill-rule="evenodd" stroke="none"/>
    </g>
    <g id="font_Palatino_Linotype__2">
      <path d="M14.05 -12.1 Q14.05 -5.2 11.3 1.05 8.5 7.25 3.1 11.85 L2.8 11.8 1.85 11.0 1.85 10.7 Q6.2 5.5 7.95 0.15 9.65 -5.15 9.65 -12.65 9.65 -26.2 1.85 -34.6 L1.85 -34.85 2.65 -35.85 2.9 -35.85 Q6.75 -33.05 10.4 -26.8 14.05 -20.6 14.05 -12.1" fill-rule="evenodd" stroke="none"/>
    </g>
    <g id="font_Palatino_Linotype_e0">
      <path d="M12.4 -22.3 Q9.4 -22.3 7.75 -20.2 6.1 -18.05 6.1 -13.9 L9.55 -13.7 14.0 -13.6 18.25 -13.75 18.25 -14.65 Q18.25 -18.55 16.7 -20.4 15.1 -22.3 12.4 -22.3 M18.7 -22.55 Q21.0 -21.15 21.9 -18.95 22.85 -16.75 22.85 -14.3 L22.75 -12.8 22.5 -12.5 17.9 -12.0 14.1 -11.9 6.1 -11.9 Q6.15 -6.7 8.7 -4.25 11.25 -1.8 14.95 -1.8 16.7 -1.8 18.3 -2.4 19.9 -3.0 21.7 -4.1 L22.1 -3.65 21.3 -1.85 Q18.7 -0.2 16.7 0.3 L13.05 0.8 Q10.05 0.8 7.35 -0.35 4.65 -1.55 3.0 -4.35 1.3 -7.15 1.3 -11.1 1.3 -13.7 1.95 -15.8 2.6 -17.95 3.3 -18.95 4.0 -20.0 5.7 -21.25 7.4 -22.5 9.3 -23.25 11.2 -24.0 13.4 -24.0 16.4 -24.0 18.7 -22.55" fill-rule="evenodd" stroke="none"/>
    </g>
    <g id="font_Palatino_Linotype_a0">
      <path d="M10.85 -21.25 L8.2 -20.8 Q7.0 -20.4 6.85 -20.1 L5.5 -17.05 5.3 -16.95 4.35 -17.2 4.15 -17.45 4.15 -20.55 Q8.6 -23.85 12.8 -23.85 15.65 -23.85 17.55 -22.75 19.45 -21.7 20.3 -20.05 21.15 -18.45 21.15 -16.3 L21.05 -3.85 Q21.05 -2.3 21.25 -2.0 L21.75 -1.55 22.75 -1.35 24.2 -1.25 24.4 -1.0 24.4 0.0 24.2 0.2 20.8 0.05 17.2 0.2 16.8 -0.15 16.9 -4.2 11.45 0.05 Q10.1 0.65 8.45 0.65 6.45 0.65 5.05 -0.1 3.6 -0.8 2.85 -2.1 2.05 -3.4 2.05 -5.25 2.05 -8.95 4.35 -11.0 6.65 -13.05 16.9 -14.5 16.9 -18.2 15.25 -19.7 13.6 -21.25 10.85 -21.25 M6.45 -6.3 Q6.45 -2.4 10.35 -2.4 13.65 -2.4 16.9 -6.25 L16.9 -13.0 Q9.9 -11.8 8.2 -10.45 6.45 -9.1 6.45 -6.3" fill-rule="evenodd" stroke="none"/>
    </g>
    <g id="font_Palatino_Linotype_l0">
      <path d="M9.85 -36.7 Q9.55 -33.85 9.55 -25.2 L9.55 -9.5 9.65 -5.95 9.9 -2.5 10.2 -1.75 10.75 -1.45 13.45 -1.25 13.7 -1.05 13.7 0.0 13.5 0.2 7.45 0.0 1.45 0.2 1.25 0.0 1.25 -1.05 1.45 -1.25 4.2 -1.5 4.75 -1.8 5.1 -2.5 5.3 -5.75 5.4 -9.9 5.3 -28.15 5.15 -32.0 4.9 -33.25 4.35 -33.55 1.35 -33.65 1.1 -33.9 1.1 -34.95 1.3 -35.15 Q6.1 -35.7 9.35 -37.0 L9.85 -36.7" fill-rule="evenodd" stroke="none"/>
    </g>
    <g id="font_Palatino_Linotype_.0">
      <path d="M6.4 -5.5 Q7.6 -5.5 8.5 -4.65 9.4 -3.8 9.4 -2.5 9.4 -1.3 8.5 -0.4 7.65 0.45 6.4 0.45 5.15 0.45 4.3 -0.4 3.4 -1.25 3.4 -2.5 3.4 -3.75 4.3 -4.65 5.15 -5.5 6.4 -5.5" fill-rule="evenodd" stroke="none"/>
    </g>
    <g id="font_Palatino_Linotype_m0">
      <path d="M10.6 -18.65 L9.6 -17.05 Q9.4 -16.3 9.4 -13.8 L9.4 -10.1 9.5 -6.0 9.75 -2.45 Q9.85 -1.95 10.1 -1.75 L10.65 -1.45 13.3 -1.25 13.55 -1.05 13.55 0.0 13.35 0.2 7.3 0.0 1.3 0.2 1.1 0.0 1.1 -1.05 1.3 -1.25 4.05 -1.5 4.6 -1.8 4.95 -2.5 5.15 -5.75 5.25 -9.9 5.25 -14.8 5.15 -17.55 5.0 -19.65 4.6 -20.25 3.3 -20.45 1.2 -20.45 0.95 -20.65 0.95 -21.75 1.15 -21.95 Q5.95 -22.5 9.2 -23.8 L9.7 -23.5 9.5 -19.55 11.85 -21.7 13.2 -22.9 14.7 -23.5 17.25 -23.85 Q19.75 -23.85 21.6 -22.6 23.5 -21.4 24.4 -19.2 L28.35 -22.75 30.1 -23.45 32.55 -23.85 Q34.55 -23.85 36.2 -23.0 37.85 -22.15 38.8 -20.75 39.8 -19.4 39.95 -17.8 L40.1 -13.4 40.1 -10.75 40.25 -4.55 Q40.3 -2.15 40.8 -1.7 L43.85 -1.25 44.05 -1.05 44.05 0.0 43.85 0.2 39.55 0.0 35.95 0.2 35.6 -0.05 Q35.95 -3.3 35.95 -8.55 L35.95 -11.55 Q35.95 -15.5 35.55 -17.1 35.2 -18.7 33.8 -19.7 32.45 -20.7 30.55 -20.7 29.2 -20.7 28.0 -20.15 26.85 -19.65 25.9 -18.55 24.95 -17.5 24.85 -16.6 L24.75 -13.25 24.75 -10.1 24.85 -6.0 25.1 -2.45 Q25.2 -1.95 25.45 -1.75 25.65 -1.55 26.0 -1.45 L28.65 -1.25 28.9 -1.05 28.9 0.0 28.7 0.2 22.65 0.0 16.65 0.2 16.45 0.0 16.45 -1.05 16.65 -1.25 19.4 -1.5 19.95 -1.8 20.3 -2.5 20.5 -5.75 20.6 -9.9 20.6 -12.75 Q20.6 -15.55 20.2 -17.1 19.8 -18.6 18.55 -19.65 17.25 -20.7 15.35 -20.7 13.85 -20.7 12.6 -20.1 11.35 -19.55 10.6 -18.65" fill-rule="evenodd" stroke="none"/>
    </g>
    <g id="font_Palatino_Linotype_A0">
      <path d="M19.3 -35.65 L20.95 -35.65 33.05 -7.2 34.5 -4.1 Q35.3 -2.45 35.6 -2.15 35.9 -1.85 36.4 -1.65 L38.45 -1.5 38.65 -1.3 38.65 0.0 38.45 0.2 33.65 0.0 25.35 0.2 25.15 0.0 25.15 -1.3 25.35 -1.5 28.85 -1.7 Q29.55 -1.9 29.55 -2.6 L29.2 -4.05 26.15 -11.65 11.65 -11.65 8.95 -5.25 Q8.2 -3.55 8.2 -2.75 8.2 -2.1 8.9 -1.8 L12.3 -1.5 12.5 -1.3 12.5 0.0 12.3 0.2 6.65 0.0 1.1 0.2 0.9 0.0 0.9 -1.3 1.1 -1.5 3.45 -1.65 4.4 -2.3 6.05 -5.5 15.5 -26.6 19.3 -35.65 M12.5 -13.8 L25.15 -13.8 18.9 -28.9 12.5 -13.8" fill-rule="evenodd" stroke="none"/>
    </g>
    <g id="font_Palatino_Linotype_R0">
      <path d="M22.1 -31.75 Q19.9 -33.45 16.15 -33.45 13.5 -33.45 11.2 -32.7 10.8 -32.15 10.8 -23.35 L10.85 -6.9 Q10.85 -4.05 11.0 -3.25 11.1 -2.4 11.35 -2.15 11.6 -1.85 12.25 -1.65 L15.6 -1.4 15.8 -1.25 15.8 0.0 15.6 0.2 11.2 0.05 8.4 0.0 1.25 0.2 1.05 0.0 1.05 -1.25 1.25 -1.4 4.35 -1.65 5.4 -2.0 5.85 -3.05 6.0 -6.5 6.0 -28.2 5.85 -31.9 5.5 -33.0 4.6 -33.45 1.25 -33.7 1.05 -33.9 1.05 -35.15 1.25 -35.3 8.4 -35.1 16.0 -35.3 18.6 -35.35 Q24.9 -35.35 27.15 -33.05 29.4 -30.75 29.4 -27.6 29.4 -25.5 28.3 -23.45 27.2 -21.45 25.05 -20.0 22.9 -18.55 19.15 -17.85 L21.65 -14.45 25.2 -9.75 28.9 -4.85 Q30.9 -2.25 31.45 -1.9 L32.45 -1.5 33.75 -1.45 33.95 -1.25 33.95 -0.05 33.75 0.15 30.9 0.0 27.0 0.15 21.6 -7.1 Q17.3 -13.1 12.8 -18.25 L13.05 -19.0 15.05 -18.95 Q19.4 -18.95 21.85 -21.0 24.3 -23.1 24.3 -26.75 24.3 -30.05 22.1 -31.75" fill-rule="evenodd" stroke="none"/>
    </g>
    <g id="font_Palatino_Linotype_s0">
      <path d="M18.3 -22.7 L18.5 -22.35 Q18.3 -21.35 18.25 -17.1 L18.05 -16.85 17.05 -16.85 16.8 -17.1 16.55 -19.2 15.65 -20.55 Q14.9 -21.25 13.6 -21.75 L10.8 -22.25 8.25 -21.8 Q7.2 -21.35 6.55 -20.4 5.9 -19.5 5.9 -18.2 5.9 -17.25 6.3 -16.5 6.7 -15.75 7.5 -15.3 L9.15 -14.65 11.9 -13.95 Q15.4 -13.1 16.9 -12.45 18.4 -11.85 19.25 -10.55 20.05 -9.3 20.05 -7.5 20.05 -4.05 17.2 -1.6 14.35 0.9 9.9 0.9 L6.0 0.55 2.0 -0.25 1.85 -0.55 2.1 -2.25 2.25 -3.8 2.3 -7.1 2.55 -7.35 3.6 -7.35 3.85 -7.1 Q3.9 -5.0 4.1 -3.5 4.85 -2.35 6.75 -1.6 8.65 -0.85 10.5 -0.85 13.15 -0.85 14.75 -2.3 16.35 -3.7 16.35 -5.7 16.35 -6.75 15.75 -7.55 15.2 -8.35 14.05 -8.85 L9.85 -10.05 6.25 -11.0 Q5.25 -11.35 4.3 -12.15 3.35 -12.95 2.85 -14.1 2.35 -15.25 2.35 -16.65 2.35 -20.0 5.0 -22.0 7.65 -24.05 11.65 -24.05 L15.3 -23.55 18.3 -22.7" fill-rule="evenodd" stroke="none"/>
    </g>
    <g id="font_Palatino_Linotype_v0">
      <path d="M18.55 -23.3 L23.2 -23.1 27.65 -23.3 27.85 -23.05 27.85 -22.0 27.65 -21.8 25.7 -21.35 24.75 -20.2 22.1 -14.85 19.7 -9.7 15.35 0.45 12.75 0.45 4.25 -19.65 3.35 -21.2 2.55 -21.65 0.95 -21.8 0.75 -22.0 0.75 -23.05 1.0 -23.3 6.55 -23.1 12.35 -23.3 12.55 -23.1 12.55 -22.0 12.35 -21.8 9.35 -21.4 Q8.9 -21.15 8.9 -20.7 8.9 -19.95 9.9 -17.45 L15.35 -4.2 19.95 -15.0 21.5 -19.15 21.85 -20.8 Q21.85 -21.25 21.3 -21.45 L18.5 -21.8 18.3 -22.0 18.3 -23.05 18.55 -23.3" fill-rule="evenodd" stroke="none"/>
    </g>
    <g id="font_Palatino_Linotype_d0">
      <path d="M20.6 -33.25 L20.1 -33.55 17.05 -33.65 16.85 -33.9 16.85 -34.95 17.05 -35.15 Q21.8 -35.7 25.1 -37.0 L25.55 -36.7 Q25.3 -33.85 25.3 -25.2 L25.3 -8.8 25.4 -4.4 Q25.45 -2.5 25.7 -2.15 25.9 -1.8 26.45 -1.6 L29.35 -1.15 29.55 -0.95 29.55 0.0 29.35 0.2 25.15 0.05 21.3 0.2 21.0 -0.05 21.1 -3.5 21.1 -4.45 18.35 -2.2 15.7 0.05 Q14.55 0.6 12.45 0.6 9.0 0.6 6.6 -1.1 4.15 -2.8 3.15 -5.4 2.1 -8.05 2.1 -10.85 2.1 -13.65 3.2 -16.25 4.25 -18.9 6.2 -20.1 L10.5 -22.55 Q12.8 -23.85 15.05 -23.85 18.25 -23.85 21.1 -22.3 L21.0 -27.85 20.85 -31.9 20.6 -33.25 M13.9 -21.6 Q11.8 -21.6 10.0 -20.45 8.15 -19.35 7.35 -17.1 6.55 -14.85 6.55 -12.25 6.55 -7.85 8.8 -5.2 11.0 -2.55 14.35 -2.55 16.15 -2.55 17.6 -3.4 19.0 -4.25 19.9 -5.65 20.8 -7.1 20.95 -8.5 L21.1 -13.75 21.1 -18.0 Q19.55 -19.75 17.7 -20.7 15.8 -21.6 13.9 -21.6" fill-rule="evenodd" stroke="none"/>
    </g>
  </defs>
</svg>
